%TF.GenerationSoftware,KiCad,Pcbnew,6.0.8-f2edbf62ab~116~ubuntu20.04.1*%
%TF.CreationDate,2022-10-11T00:42:46-04:00*%
%TF.ProjectId,Linear_PSU_APFC_Pre_Reg,4c696e65-6172-45f5-9053-555f41504643,rev?*%
%TF.SameCoordinates,Original*%
%TF.FileFunction,Soldermask,Top*%
%TF.FilePolarity,Negative*%
%FSLAX46Y46*%
G04 Gerber Fmt 4.6, Leading zero omitted, Abs format (unit mm)*
G04 Created by KiCad (PCBNEW 6.0.8-f2edbf62ab~116~ubuntu20.04.1) date 2022-10-11 00:42:46*
%MOMM*%
%LPD*%
G01*
G04 APERTURE LIST*
G04 Aperture macros list*
%AMRoundRect*
0 Rectangle with rounded corners*
0 $1 Rounding radius*
0 $2 $3 $4 $5 $6 $7 $8 $9 X,Y pos of 4 corners*
0 Add a 4 corners polygon primitive as box body*
4,1,4,$2,$3,$4,$5,$6,$7,$8,$9,$2,$3,0*
0 Add four circle primitives for the rounded corners*
1,1,$1+$1,$2,$3*
1,1,$1+$1,$4,$5*
1,1,$1+$1,$6,$7*
1,1,$1+$1,$8,$9*
0 Add four rect primitives between the rounded corners*
20,1,$1+$1,$2,$3,$4,$5,0*
20,1,$1+$1,$4,$5,$6,$7,0*
20,1,$1+$1,$6,$7,$8,$9,0*
20,1,$1+$1,$8,$9,$2,$3,0*%
%AMRotRect*
0 Rectangle, with rotation*
0 The origin of the aperture is its center*
0 $1 length*
0 $2 width*
0 $3 Rotation angle, in degrees counterclockwise*
0 Add horizontal line*
21,1,$1,$2,0,0,$3*%
%AMFreePoly0*
4,1,9,3.862500,-0.866500,0.737500,-0.866500,0.737500,-0.450000,-0.737500,-0.450000,-0.737500,0.450000,0.737500,0.450000,0.737500,0.866500,3.862500,0.866500,3.862500,-0.866500,3.862500,-0.866500,$1*%
G04 Aperture macros list end*
%ADD10C,0.050000*%
%ADD11RotRect,2.500000X2.300000X45.000000*%
%ADD12R,2.500000X2.300000*%
%ADD13RoundRect,0.250000X-0.312500X-0.625000X0.312500X-0.625000X0.312500X0.625000X-0.312500X0.625000X0*%
%ADD14R,3.150000X12.500000*%
%ADD15R,12.500000X3.150000*%
%ADD16RoundRect,0.225000X-0.225000X-0.250000X0.225000X-0.250000X0.225000X0.250000X-0.225000X0.250000X0*%
%ADD17R,1.600000X1.600000*%
%ADD18C,1.600000*%
%ADD19RoundRect,0.225000X-0.250000X0.225000X-0.250000X-0.225000X0.250000X-0.225000X0.250000X0.225000X0*%
%ADD20RoundRect,0.250000X0.250000X0.475000X-0.250000X0.475000X-0.250000X-0.475000X0.250000X-0.475000X0*%
%ADD21RoundRect,0.200000X-0.275000X0.200000X-0.275000X-0.200000X0.275000X-0.200000X0.275000X0.200000X0*%
%ADD22RoundRect,0.200000X0.275000X-0.200000X0.275000X0.200000X-0.275000X0.200000X-0.275000X-0.200000X0*%
%ADD23RoundRect,0.250000X-0.450000X0.262500X-0.450000X-0.262500X0.450000X-0.262500X0.450000X0.262500X0*%
%ADD24R,0.900000X1.300000*%
%ADD25FreePoly0,270.000000*%
%ADD26R,3.200000X3.200000*%
%ADD27C,3.200000*%
%ADD28R,1.700000X1.700000*%
%ADD29O,1.700000X1.700000*%
%ADD30RoundRect,0.250000X-0.475000X0.250000X-0.475000X-0.250000X0.475000X-0.250000X0.475000X0.250000X0*%
%ADD31R,1.000000X1.300000*%
%ADD32RoundRect,0.250000X1.100000X-0.325000X1.100000X0.325000X-1.100000X0.325000X-1.100000X-0.325000X0*%
%ADD33RoundRect,0.150000X0.512500X0.150000X-0.512500X0.150000X-0.512500X-0.150000X0.512500X-0.150000X0*%
%ADD34RoundRect,0.250000X-1.100000X0.325000X-1.100000X-0.325000X1.100000X-0.325000X1.100000X0.325000X0*%
%ADD35C,2.600000*%
%ADD36RoundRect,0.200000X-0.200000X-0.275000X0.200000X-0.275000X0.200000X0.275000X-0.200000X0.275000X0*%
%ADD37C,3.700000*%
%ADD38R,1.700000X13.700000*%
%ADD39C,1.440000*%
%ADD40R,1.100000X4.600000*%
%ADD41R,10.800000X9.400000*%
%ADD42RoundRect,0.225000X0.225000X0.250000X-0.225000X0.250000X-0.225000X-0.250000X0.225000X-0.250000X0*%
%ADD43RoundRect,0.225000X0.250000X-0.225000X0.250000X0.225000X-0.250000X0.225000X-0.250000X-0.225000X0*%
%ADD44RoundRect,0.250000X1.000000X-1.950000X1.000000X1.950000X-1.000000X1.950000X-1.000000X-1.950000X0*%
%ADD45R,2.500000X1.800000*%
%ADD46RoundRect,0.008602X-0.391398X0.391398X-0.391398X-0.391398X0.391398X-0.391398X0.391398X0.391398X0*%
%ADD47RoundRect,0.075000X-0.075000X0.312500X-0.075000X-0.312500X0.075000X-0.312500X0.075000X0.312500X0*%
%ADD48RoundRect,0.075000X-0.312500X0.075000X-0.312500X-0.075000X0.312500X-0.075000X0.312500X0.075000X0*%
%ADD49RoundRect,0.250000X-2.075000X2.075000X-2.075000X-2.075000X2.075000X-2.075000X2.075000X2.075000X0*%
%ADD50R,1.800000X2.500000*%
%ADD51RoundRect,0.200000X0.200000X0.275000X-0.200000X0.275000X-0.200000X-0.275000X0.200000X-0.275000X0*%
%ADD52RoundRect,0.250000X-0.250000X-0.475000X0.250000X-0.475000X0.250000X0.475000X-0.250000X0.475000X0*%
%ADD53RoundRect,0.150000X-0.150000X0.512500X-0.150000X-0.512500X0.150000X-0.512500X0.150000X0.512500X0*%
G04 APERTURE END LIST*
%TO.C,U2*%
G36*
X124550000Y-81200000D02*
G01*
X124250000Y-81500000D01*
X123550000Y-81500000D01*
X123550000Y-80500000D01*
X124550000Y-80500000D01*
X124550000Y-81200000D01*
G37*
D10*
X124550000Y-81200000D02*
X124250000Y-81500000D01*
X123550000Y-81500000D01*
X123550000Y-80500000D01*
X124550000Y-80500000D01*
X124550000Y-81200000D01*
G36*
X130350000Y-81500000D02*
G01*
X129650000Y-81500000D01*
X129350000Y-81200000D01*
X129350000Y-80500000D01*
X130350000Y-80500000D01*
X130350000Y-81500000D01*
G37*
X130350000Y-81500000D02*
X129650000Y-81500000D01*
X129350000Y-81200000D01*
X129350000Y-80500000D01*
X130350000Y-80500000D01*
X130350000Y-81500000D01*
G36*
X124550000Y-86600000D02*
G01*
X124550000Y-87300000D01*
X123550000Y-87300000D01*
X123550000Y-86300000D01*
X124250000Y-86300000D01*
X124550000Y-86600000D01*
G37*
X124550000Y-86600000D02*
X124550000Y-87300000D01*
X123550000Y-87300000D01*
X123550000Y-86300000D01*
X124250000Y-86300000D01*
X124550000Y-86600000D01*
G36*
X130350000Y-87300000D02*
G01*
X129350000Y-87300000D01*
X129350000Y-86600000D01*
X129650000Y-86300000D01*
X130350000Y-86300000D01*
X130350000Y-87300000D01*
G37*
X130350000Y-87300000D02*
X129350000Y-87300000D01*
X129350000Y-86600000D01*
X129650000Y-86300000D01*
X130350000Y-86300000D01*
X130350000Y-87300000D01*
%TD*%
D11*
%TO.C,D5*%
X142729720Y-56020280D03*
X145770280Y-52979720D03*
%TD*%
D12*
%TO.C,D4*%
X69400000Y-55700000D03*
X65100000Y-55700000D03*
%TD*%
D13*
%TO.C,R1*%
X80387500Y-83050000D03*
X83312500Y-83050000D03*
%TD*%
D14*
%TO.C,L1*%
X76825000Y-52750000D03*
X92175000Y-52750000D03*
%TD*%
D15*
%TO.C,L2*%
X118000000Y-54325000D03*
X118000000Y-69675000D03*
%TD*%
D16*
%TO.C,C8*%
X118900000Y-83900000D03*
X120450000Y-83900000D03*
%TD*%
D17*
%TO.C,C22*%
X134250000Y-67750000D03*
D18*
X130750000Y-67750000D03*
%TD*%
D19*
%TO.C,C1*%
X116600000Y-86862500D03*
X116600000Y-88412500D03*
%TD*%
D20*
%TO.C,C18*%
X109900000Y-50500000D03*
X108000000Y-50500000D03*
%TD*%
D17*
%TO.C,C20*%
X137000000Y-47750000D03*
D18*
X140500000Y-47750000D03*
%TD*%
D21*
%TO.C,R11*%
X138150000Y-73900000D03*
X138150000Y-75550000D03*
%TD*%
D22*
%TO.C,R8*%
X96050000Y-97850000D03*
X96050000Y-96200000D03*
%TD*%
D23*
%TO.C,R6*%
X91650000Y-85600000D03*
X91650000Y-87425000D03*
%TD*%
D20*
%TO.C,C17*%
X109900000Y-48350000D03*
X108000000Y-48350000D03*
%TD*%
D19*
%TO.C,C5*%
X125650000Y-76050000D03*
X125650000Y-77600000D03*
%TD*%
D22*
%TO.C,R7*%
X96050000Y-101050000D03*
X96050000Y-99400000D03*
%TD*%
D19*
%TO.C,C23*%
X127450000Y-76050000D03*
X127450000Y-77600000D03*
%TD*%
D24*
%TO.C,U5*%
X93700000Y-97850000D03*
D25*
X92200000Y-97937500D03*
D24*
X90700000Y-97850000D03*
%TD*%
D26*
%TO.C,D1*%
X75350000Y-69350000D03*
D27*
X75350000Y-74430000D03*
X75350000Y-79510000D03*
X75350000Y-84590000D03*
%TD*%
D20*
%TO.C,C16*%
X109900000Y-46200000D03*
X108000000Y-46200000D03*
%TD*%
D28*
%TO.C,J1*%
X130175000Y-100500000D03*
D29*
X132715000Y-100500000D03*
X135255000Y-100500000D03*
X137795000Y-100500000D03*
X140335000Y-100500000D03*
%TD*%
D17*
%TO.C,C21*%
X134250000Y-58750000D03*
D18*
X130750000Y-58750000D03*
%TD*%
D30*
%TO.C,C15*%
X90700000Y-93300000D03*
X90700000Y-95200000D03*
%TD*%
D16*
%TO.C,C6*%
X123450000Y-89000000D03*
X125000000Y-89000000D03*
%TD*%
%TO.C,C13*%
X96750000Y-89200000D03*
X98300000Y-89200000D03*
%TD*%
D31*
%TO.C,Y1*%
X118400000Y-86862500D03*
X118400000Y-89062500D03*
X120200000Y-89062500D03*
X120200000Y-86862500D03*
%TD*%
D32*
%TO.C,C11*%
X108100000Y-98500000D03*
X108100000Y-95550000D03*
%TD*%
D33*
%TO.C,U4*%
X96737500Y-87412500D03*
X96737500Y-86462500D03*
X96737500Y-85512500D03*
X94462500Y-85512500D03*
X94462500Y-87412500D03*
%TD*%
D19*
%TO.C,C4*%
X121900000Y-81050000D03*
X121900000Y-82600000D03*
%TD*%
D34*
%TO.C,C24*%
X141600000Y-69000000D03*
X141600000Y-71950000D03*
%TD*%
D30*
%TO.C,C9*%
X99600000Y-94050000D03*
X99600000Y-95950000D03*
%TD*%
D35*
%TO.C,J6*%
X150000000Y-80040000D03*
X150000000Y-74960000D03*
%TD*%
D36*
%TO.C,R2*%
X102850000Y-91750000D03*
X104500000Y-91750000D03*
%TD*%
D35*
%TO.C,J5*%
X150000000Y-63040000D03*
X150000000Y-57960000D03*
%TD*%
D21*
%TO.C,R3*%
X106050000Y-91750000D03*
X106050000Y-93400000D03*
%TD*%
D36*
%TO.C,R5*%
X130100000Y-77762500D03*
X131750000Y-77762500D03*
%TD*%
D35*
%TO.C,J2*%
X65000000Y-82960000D03*
X65000000Y-88040000D03*
%TD*%
D21*
%TO.C,R10*%
X138150000Y-70850000D03*
X138150000Y-72500000D03*
%TD*%
D37*
%TO.C,H4*%
X66500000Y-98500000D03*
%TD*%
D28*
%TO.C,J4*%
X116500000Y-100500000D03*
D29*
X119040000Y-100500000D03*
X121580000Y-100500000D03*
X124120000Y-100500000D03*
%TD*%
D38*
%TO.C,HS1*%
X87250000Y-70750000D03*
X101090000Y-70750000D03*
%TD*%
D37*
%TO.C,H1*%
X66500000Y-46500000D03*
%TD*%
D35*
%TO.C,J3*%
X65000000Y-71040000D03*
X65000000Y-65960000D03*
%TD*%
D39*
%TO.C,RV1*%
X146985000Y-86760000D03*
X144445000Y-89300000D03*
X146985000Y-91840000D03*
%TD*%
D40*
%TO.C,Q1*%
X91660000Y-81175000D03*
D41*
X94200000Y-72025000D03*
D40*
X96740000Y-81175000D03*
%TD*%
D42*
%TO.C,C2*%
X120200000Y-91112500D03*
X118650000Y-91112500D03*
%TD*%
D43*
%TO.C,C10*%
X132850000Y-86112500D03*
X132850000Y-84562500D03*
%TD*%
D44*
%TO.C,C7*%
X82400000Y-99050000D03*
X82400000Y-90650000D03*
%TD*%
D45*
%TO.C,D3*%
X127000000Y-47250000D03*
X123000000Y-47250000D03*
%TD*%
D19*
%TO.C,C19*%
X123850000Y-76050000D03*
X123850000Y-77600000D03*
%TD*%
D37*
%TO.C,H2*%
X148500000Y-46500000D03*
%TD*%
D46*
%TO.C,U2*%
X129900000Y-86850000D03*
X124000000Y-86850000D03*
X129900000Y-80950000D03*
X124000000Y-80950000D03*
D47*
X128900000Y-80900000D03*
X128250000Y-80900000D03*
X127600000Y-80900000D03*
X126950000Y-80900000D03*
X126300000Y-80900000D03*
X125650000Y-80900000D03*
X125000000Y-80900000D03*
D48*
X123950000Y-81950000D03*
X123950000Y-82600000D03*
X123950000Y-83250000D03*
X123950000Y-83900000D03*
X123950000Y-84550000D03*
X123950000Y-85200000D03*
X123950000Y-85850000D03*
D47*
X125000000Y-86900000D03*
X125650000Y-86900000D03*
X126300000Y-86900000D03*
X126950000Y-86900000D03*
X127600000Y-86900000D03*
X128250000Y-86900000D03*
X128900000Y-86900000D03*
D48*
X129950000Y-85850000D03*
X129950000Y-85200000D03*
X129950000Y-84550000D03*
X129950000Y-83900000D03*
X129950000Y-83250000D03*
X129950000Y-82600000D03*
X129950000Y-81950000D03*
D49*
X126950000Y-83900000D03*
%TD*%
D43*
%TO.C,C3*%
X106000000Y-87150000D03*
X106000000Y-85600000D03*
%TD*%
D50*
%TO.C,D2*%
X73600000Y-98100000D03*
X73600000Y-94100000D03*
%TD*%
D51*
%TO.C,R9*%
X140550000Y-91850000D03*
X138900000Y-91850000D03*
%TD*%
D52*
%TO.C,C12*%
X96750000Y-91000000D03*
X98650000Y-91000000D03*
%TD*%
D24*
%TO.C,U3*%
X104850000Y-95950000D03*
D25*
X103350000Y-96037500D03*
D24*
X101850000Y-95950000D03*
%TD*%
D53*
%TO.C,U1*%
X104150000Y-84862500D03*
X103200000Y-84862500D03*
X102250000Y-84862500D03*
X102250000Y-87137500D03*
X104150000Y-87137500D03*
%TD*%
D34*
%TO.C,C25*%
X145000000Y-69000000D03*
X145000000Y-71950000D03*
%TD*%
D52*
%TO.C,C14*%
X66650000Y-59600000D03*
X68550000Y-59600000D03*
%TD*%
D37*
%TO.C,H3*%
X148500000Y-98500000D03*
%TD*%
D51*
%TO.C,R4*%
X108050000Y-82500000D03*
X106400000Y-82500000D03*
%TD*%
M02*
