%TF.GenerationSoftware,KiCad,Pcbnew,6.0.8-f2edbf62ab~116~ubuntu20.04.1*%
%TF.CreationDate,2022-10-11T00:42:45-04:00*%
%TF.ProjectId,Linear_PSU_APFC_Pre_Reg,4c696e65-6172-45f5-9053-555f41504643,rev?*%
%TF.SameCoordinates,Original*%
%TF.FileFunction,Paste,Top*%
%TF.FilePolarity,Positive*%
%FSLAX46Y46*%
G04 Gerber Fmt 4.6, Leading zero omitted, Abs format (unit mm)*
G04 Created by KiCad (PCBNEW 6.0.8-f2edbf62ab~116~ubuntu20.04.1) date 2022-10-11 00:42:45*
%MOMM*%
%LPD*%
G01*
G04 APERTURE LIST*
G04 Aperture macros list*
%AMRoundRect*
0 Rectangle with rounded corners*
0 $1 Rounding radius*
0 $2 $3 $4 $5 $6 $7 $8 $9 X,Y pos of 4 corners*
0 Add a 4 corners polygon primitive as box body*
4,1,4,$2,$3,$4,$5,$6,$7,$8,$9,$2,$3,0*
0 Add four circle primitives for the rounded corners*
1,1,$1+$1,$2,$3*
1,1,$1+$1,$4,$5*
1,1,$1+$1,$6,$7*
1,1,$1+$1,$8,$9*
0 Add four rect primitives between the rounded corners*
20,1,$1+$1,$2,$3,$4,$5,0*
20,1,$1+$1,$4,$5,$6,$7,0*
20,1,$1+$1,$6,$7,$8,$9,0*
20,1,$1+$1,$8,$9,$2,$3,0*%
%AMRotRect*
0 Rectangle, with rotation*
0 The origin of the aperture is its center*
0 $1 length*
0 $2 width*
0 $3 Rotation angle, in degrees counterclockwise*
0 Add horizontal line*
21,1,$1,$2,0,0,$3*%
%AMFreePoly0*
4,1,9,3.862500,-0.866500,0.737500,-0.866500,0.737500,-0.450000,-0.737500,-0.450000,-0.737500,0.450000,0.737500,0.450000,0.737500,0.866500,3.862500,0.866500,3.862500,-0.866500,3.862500,-0.866500,$1*%
G04 Aperture macros list end*
%ADD10RotRect,2.500000X2.300000X45.000000*%
%ADD11R,2.500000X2.300000*%
%ADD12RoundRect,0.250000X-0.312500X-0.625000X0.312500X-0.625000X0.312500X0.625000X-0.312500X0.625000X0*%
%ADD13R,3.150000X12.500000*%
%ADD14R,12.500000X3.150000*%
%ADD15RoundRect,0.225000X-0.225000X-0.250000X0.225000X-0.250000X0.225000X0.250000X-0.225000X0.250000X0*%
%ADD16RoundRect,0.225000X-0.250000X0.225000X-0.250000X-0.225000X0.250000X-0.225000X0.250000X0.225000X0*%
%ADD17RoundRect,0.250000X0.250000X0.475000X-0.250000X0.475000X-0.250000X-0.475000X0.250000X-0.475000X0*%
%ADD18RoundRect,0.200000X-0.275000X0.200000X-0.275000X-0.200000X0.275000X-0.200000X0.275000X0.200000X0*%
%ADD19RoundRect,0.200000X0.275000X-0.200000X0.275000X0.200000X-0.275000X0.200000X-0.275000X-0.200000X0*%
%ADD20RoundRect,0.250000X-0.450000X0.262500X-0.450000X-0.262500X0.450000X-0.262500X0.450000X0.262500X0*%
%ADD21R,0.900000X1.300000*%
%ADD22FreePoly0,270.000000*%
%ADD23RoundRect,0.250000X-0.475000X0.250000X-0.475000X-0.250000X0.475000X-0.250000X0.475000X0.250000X0*%
%ADD24R,1.000000X1.300000*%
%ADD25RoundRect,0.250000X1.100000X-0.325000X1.100000X0.325000X-1.100000X0.325000X-1.100000X-0.325000X0*%
%ADD26RoundRect,0.150000X0.512500X0.150000X-0.512500X0.150000X-0.512500X-0.150000X0.512500X-0.150000X0*%
%ADD27RoundRect,0.250000X-1.100000X0.325000X-1.100000X-0.325000X1.100000X-0.325000X1.100000X0.325000X0*%
%ADD28RoundRect,0.200000X-0.200000X-0.275000X0.200000X-0.275000X0.200000X0.275000X-0.200000X0.275000X0*%
%ADD29R,1.700000X13.700000*%
%ADD30R,5.250000X4.550000*%
%ADD31R,1.100000X4.600000*%
%ADD32RoundRect,0.225000X0.225000X0.250000X-0.225000X0.250000X-0.225000X-0.250000X0.225000X-0.250000X0*%
%ADD33RoundRect,0.225000X0.250000X-0.225000X0.250000X0.225000X-0.250000X0.225000X-0.250000X-0.225000X0*%
%ADD34RoundRect,0.250000X1.000000X-1.950000X1.000000X1.950000X-1.000000X1.950000X-1.000000X-1.950000X0*%
%ADD35R,2.500000X1.800000*%
%ADD36RoundRect,0.249999X-0.395001X0.395001X-0.395001X-0.395001X0.395001X-0.395001X0.395001X0.395001X0*%
%ADD37RoundRect,0.000000X-0.350000X0.350000X-0.350000X-0.350000X0.350000X-0.350000X0.350000X0.350000X0*%
%ADD38RoundRect,0.025000X-0.075000X0.312500X-0.075000X-0.312500X0.075000X-0.312500X0.075000X0.312500X0*%
%ADD39RoundRect,0.025000X-0.312500X0.075000X-0.312500X-0.075000X0.312500X-0.075000X0.312500X0.075000X0*%
%ADD40R,1.800000X2.500000*%
%ADD41RoundRect,0.200000X0.200000X0.275000X-0.200000X0.275000X-0.200000X-0.275000X0.200000X-0.275000X0*%
%ADD42RoundRect,0.250000X-0.250000X-0.475000X0.250000X-0.475000X0.250000X0.475000X-0.250000X0.475000X0*%
%ADD43RoundRect,0.150000X-0.150000X0.512500X-0.150000X-0.512500X0.150000X-0.512500X0.150000X0.512500X0*%
G04 APERTURE END LIST*
D10*
%TO.C,D5*%
X142729720Y-56020280D03*
X145770280Y-52979720D03*
%TD*%
D11*
%TO.C,D4*%
X69400000Y-55700000D03*
X65100000Y-55700000D03*
%TD*%
D12*
%TO.C,R1*%
X80387500Y-83050000D03*
X83312500Y-83050000D03*
%TD*%
D13*
%TO.C,L1*%
X76825000Y-52750000D03*
X92175000Y-52750000D03*
%TD*%
D14*
%TO.C,L2*%
X118000000Y-54325000D03*
X118000000Y-69675000D03*
%TD*%
D15*
%TO.C,C8*%
X118900000Y-83900000D03*
X120450000Y-83900000D03*
%TD*%
D16*
%TO.C,C1*%
X116600000Y-86862500D03*
X116600000Y-88412500D03*
%TD*%
D17*
%TO.C,C18*%
X109900000Y-50500000D03*
X108000000Y-50500000D03*
%TD*%
D18*
%TO.C,R11*%
X138150000Y-73900000D03*
X138150000Y-75550000D03*
%TD*%
D19*
%TO.C,R8*%
X96050000Y-97850000D03*
X96050000Y-96200000D03*
%TD*%
D20*
%TO.C,R6*%
X91650000Y-85600000D03*
X91650000Y-87425000D03*
%TD*%
D17*
%TO.C,C17*%
X109900000Y-48350000D03*
X108000000Y-48350000D03*
%TD*%
D16*
%TO.C,C5*%
X125650000Y-76050000D03*
X125650000Y-77600000D03*
%TD*%
D19*
%TO.C,R7*%
X96050000Y-101050000D03*
X96050000Y-99400000D03*
%TD*%
D16*
%TO.C,C23*%
X127450000Y-76050000D03*
X127450000Y-77600000D03*
%TD*%
D21*
%TO.C,U5*%
X93700000Y-97850000D03*
D22*
X92200000Y-97937500D03*
D21*
X90700000Y-97850000D03*
%TD*%
D17*
%TO.C,C16*%
X109900000Y-46200000D03*
X108000000Y-46200000D03*
%TD*%
D23*
%TO.C,C15*%
X90700000Y-93300000D03*
X90700000Y-95200000D03*
%TD*%
D15*
%TO.C,C6*%
X123450000Y-89000000D03*
X125000000Y-89000000D03*
%TD*%
%TO.C,C13*%
X96750000Y-89200000D03*
X98300000Y-89200000D03*
%TD*%
D24*
%TO.C,Y1*%
X118400000Y-86862500D03*
X118400000Y-89062500D03*
X120200000Y-89062500D03*
X120200000Y-86862500D03*
%TD*%
D25*
%TO.C,C11*%
X108100000Y-98500000D03*
X108100000Y-95550000D03*
%TD*%
D26*
%TO.C,U4*%
X96737500Y-87412500D03*
X96737500Y-86462500D03*
X96737500Y-85512500D03*
X94462500Y-85512500D03*
X94462500Y-87412500D03*
%TD*%
D16*
%TO.C,C4*%
X121900000Y-81050000D03*
X121900000Y-82600000D03*
%TD*%
D27*
%TO.C,C24*%
X141600000Y-69000000D03*
X141600000Y-71950000D03*
%TD*%
D23*
%TO.C,C9*%
X99600000Y-94050000D03*
X99600000Y-95950000D03*
%TD*%
D28*
%TO.C,R2*%
X102850000Y-91750000D03*
X104500000Y-91750000D03*
%TD*%
D18*
%TO.C,R3*%
X106050000Y-91750000D03*
X106050000Y-93400000D03*
%TD*%
D28*
%TO.C,R5*%
X130100000Y-77762500D03*
X131750000Y-77762500D03*
%TD*%
D18*
%TO.C,R10*%
X138150000Y-70850000D03*
X138150000Y-72500000D03*
%TD*%
D29*
%TO.C,HS1*%
X87250000Y-70750000D03*
X101090000Y-70750000D03*
%TD*%
D30*
%TO.C,Q1*%
X91425000Y-74450000D03*
X96975000Y-69600000D03*
X91425000Y-69600000D03*
X96975000Y-74450000D03*
D31*
X91660000Y-81175000D03*
X96740000Y-81175000D03*
%TD*%
D32*
%TO.C,C2*%
X120200000Y-91112500D03*
X118650000Y-91112500D03*
%TD*%
D33*
%TO.C,C10*%
X132850000Y-86112500D03*
X132850000Y-84562500D03*
%TD*%
D34*
%TO.C,C7*%
X82400000Y-99050000D03*
X82400000Y-90650000D03*
%TD*%
D35*
%TO.C,D3*%
X127000000Y-47250000D03*
X123000000Y-47250000D03*
%TD*%
D16*
%TO.C,C19*%
X123850000Y-76050000D03*
X123850000Y-77600000D03*
%TD*%
D36*
%TO.C,U2*%
X126950000Y-83900000D03*
X125350000Y-83900000D03*
X128550000Y-83900000D03*
X125350000Y-85500000D03*
X126950000Y-82300000D03*
X128550000Y-82300000D03*
X126950000Y-85500000D03*
X128550000Y-85500000D03*
X125350000Y-82300000D03*
D37*
X129900000Y-86850000D03*
X124000000Y-86850000D03*
X129900000Y-80950000D03*
X124000000Y-80950000D03*
D38*
X128900000Y-80900000D03*
X128250000Y-80900000D03*
X127600000Y-80900000D03*
X126950000Y-80900000D03*
X126300000Y-80900000D03*
X125650000Y-80900000D03*
X125000000Y-80900000D03*
D39*
X123950000Y-81950000D03*
X123950000Y-82600000D03*
X123950000Y-83250000D03*
X123950000Y-83900000D03*
X123950000Y-84550000D03*
X123950000Y-85200000D03*
X123950000Y-85850000D03*
D38*
X125000000Y-86900000D03*
X125650000Y-86900000D03*
X126300000Y-86900000D03*
X126950000Y-86900000D03*
X127600000Y-86900000D03*
X128250000Y-86900000D03*
X128900000Y-86900000D03*
D39*
X129950000Y-85850000D03*
X129950000Y-85200000D03*
X129950000Y-84550000D03*
X129950000Y-83900000D03*
X129950000Y-83250000D03*
X129950000Y-82600000D03*
X129950000Y-81950000D03*
%TD*%
D33*
%TO.C,C3*%
X106000000Y-87150000D03*
X106000000Y-85600000D03*
%TD*%
D40*
%TO.C,D2*%
X73600000Y-98100000D03*
X73600000Y-94100000D03*
%TD*%
D41*
%TO.C,R9*%
X140550000Y-91850000D03*
X138900000Y-91850000D03*
%TD*%
D42*
%TO.C,C12*%
X96750000Y-91000000D03*
X98650000Y-91000000D03*
%TD*%
D21*
%TO.C,U3*%
X104850000Y-95950000D03*
D22*
X103350000Y-96037500D03*
D21*
X101850000Y-95950000D03*
%TD*%
D43*
%TO.C,U1*%
X104150000Y-84862500D03*
X103200000Y-84862500D03*
X102250000Y-84862500D03*
X102250000Y-87137500D03*
X104150000Y-87137500D03*
%TD*%
D27*
%TO.C,C25*%
X145000000Y-69000000D03*
X145000000Y-71950000D03*
%TD*%
D42*
%TO.C,C14*%
X66650000Y-59600000D03*
X68550000Y-59600000D03*
%TD*%
D41*
%TO.C,R4*%
X108050000Y-82500000D03*
X106400000Y-82500000D03*
%TD*%
M02*
