%TF.GenerationSoftware,KiCad,Pcbnew,6.0.8-f2edbf62ab~116~ubuntu20.04.1*%
%TF.CreationDate,2022-10-11T00:42:45-04:00*%
%TF.ProjectId,Linear_PSU_APFC_Pre_Reg,4c696e65-6172-45f5-9053-555f41504643,rev?*%
%TF.SameCoordinates,Original*%
%TF.FileFunction,Copper,L4,Bot*%
%TF.FilePolarity,Positive*%
%FSLAX46Y46*%
G04 Gerber Fmt 4.6, Leading zero omitted, Abs format (unit mm)*
G04 Created by KiCad (PCBNEW 6.0.8-f2edbf62ab~116~ubuntu20.04.1) date 2022-10-11 00:42:45*
%MOMM*%
%LPD*%
G01*
G04 APERTURE LIST*
%TA.AperFunction,ComponentPad*%
%ADD10R,1.600000X1.600000*%
%TD*%
%TA.AperFunction,ComponentPad*%
%ADD11C,1.600000*%
%TD*%
%TA.AperFunction,ComponentPad*%
%ADD12R,3.200000X3.200000*%
%TD*%
%TA.AperFunction,ComponentPad*%
%ADD13C,3.200000*%
%TD*%
%TA.AperFunction,ComponentPad*%
%ADD14R,1.700000X1.700000*%
%TD*%
%TA.AperFunction,ComponentPad*%
%ADD15O,1.700000X1.700000*%
%TD*%
%TA.AperFunction,ComponentPad*%
%ADD16C,2.600000*%
%TD*%
%TA.AperFunction,ComponentPad*%
%ADD17C,1.440000*%
%TD*%
%TA.AperFunction,ViaPad*%
%ADD18C,0.800000*%
%TD*%
%TA.AperFunction,Conductor*%
%ADD19C,0.250000*%
%TD*%
%TA.AperFunction,Conductor*%
%ADD20C,0.750000*%
%TD*%
%TA.AperFunction,Conductor*%
%ADD21C,0.350000*%
%TD*%
G04 APERTURE END LIST*
D10*
%TO.P,C22,1*%
%TO.N,/VOUT*%
X134250000Y-67750000D03*
D11*
%TO.P,C22,2*%
%TO.N,GND*%
X130750000Y-67750000D03*
%TD*%
D10*
%TO.P,C20,1*%
%TO.N,/VOUT*%
X137000000Y-47750000D03*
D11*
%TO.P,C20,2*%
%TO.N,GND*%
X140500000Y-47750000D03*
%TD*%
D12*
%TO.P,D1,1,+*%
%TO.N,/VIN_RECT*%
X75350000Y-69350000D03*
D13*
%TO.P,D1,2*%
%TO.N,/AC_IN_2*%
X75350000Y-74430000D03*
%TO.P,D1,3*%
%TO.N,/AC_IN_1*%
X75350000Y-79510000D03*
%TO.P,D1,4,-*%
%TO.N,Net-(D1-Pad4)*%
X75350000Y-84590000D03*
%TD*%
D14*
%TO.P,J1,1,Pin_1*%
%TO.N,/MCLR*%
X130175000Y-100500000D03*
D15*
%TO.P,J1,2,Pin_2*%
%TO.N,+3.3V*%
X132715000Y-100500000D03*
%TO.P,J1,3,Pin_3*%
%TO.N,GND*%
X135255000Y-100500000D03*
%TO.P,J1,4,Pin_4*%
%TO.N,/PGD*%
X137795000Y-100500000D03*
%TO.P,J1,5,Pin_5*%
%TO.N,/PGC*%
X140335000Y-100500000D03*
%TD*%
D10*
%TO.P,C21,1*%
%TO.N,/VOUT*%
X134250000Y-58750000D03*
D11*
%TO.P,C21,2*%
%TO.N,GND*%
X130750000Y-58750000D03*
%TD*%
D16*
%TO.P,J6,1,Pin_1*%
%TO.N,GND*%
X150000000Y-80040000D03*
X150000000Y-74960000D03*
%TD*%
%TO.P,J5,1,Pin_1*%
%TO.N,/VOUT*%
X150000000Y-63040000D03*
X150000000Y-57960000D03*
%TD*%
%TO.P,J2,1,Pin_1*%
%TO.N,/AC_IN_1*%
X65000000Y-82960000D03*
X65000000Y-88040000D03*
%TD*%
D14*
%TO.P,J4,1,Pin_1*%
%TO.N,+3.3V*%
X116500000Y-100500000D03*
D15*
%TO.P,J4,2,Pin_2*%
%TO.N,/UART1_TX*%
X119040000Y-100500000D03*
%TO.P,J4,3,Pin_3*%
%TO.N,/UART1_RX*%
X121580000Y-100500000D03*
%TO.P,J4,4,Pin_4*%
%TO.N,GND*%
X124120000Y-100500000D03*
%TD*%
D16*
%TO.P,J3,1,Pin_1*%
%TO.N,/AC_IN_2*%
X65000000Y-71040000D03*
X65000000Y-65960000D03*
%TD*%
D17*
%TO.P,RV1,1,1*%
%TO.N,+3.3V*%
X146985000Y-86760000D03*
%TO.P,RV1,2,2*%
%TO.N,/VOUT_SETPT*%
X144445000Y-89300000D03*
%TO.P,RV1,3,3*%
%TO.N,Net-(R9-Pad1)*%
X146985000Y-91840000D03*
%TD*%
D18*
%TO.N,GND*%
X63450000Y-55700000D03*
X64200000Y-57250000D03*
X64250000Y-54150000D03*
X147650000Y-52500000D03*
X147000000Y-51850000D03*
X146350000Y-51200000D03*
%TO.N,/SW*%
X94300000Y-46999998D03*
X94300000Y-48916668D03*
X94300000Y-50833334D03*
X94300000Y-54666666D03*
X94300000Y-58499998D03*
X94300000Y-52750000D03*
X94300000Y-56583332D03*
%TO.N,GND*%
X117999998Y-71750000D03*
X123750000Y-71750000D03*
X121833330Y-71750000D03*
X119916664Y-71750000D03*
X116083332Y-71750000D03*
X114166666Y-71750000D03*
X112250000Y-71750000D03*
%TO.N,/VOUT*%
X127000000Y-45850000D03*
X127000000Y-48650000D03*
%TO.N,GND*%
X121900000Y-80150000D03*
X125050000Y-83900000D03*
X105800000Y-95550000D03*
X144400000Y-72950000D03*
X99100000Y-89850000D03*
X141000000Y-72950000D03*
X65700000Y-59100000D03*
X145650000Y-72950000D03*
X84350000Y-83450000D03*
X94450000Y-84650000D03*
X104850000Y-94800000D03*
X138000000Y-91850000D03*
X121150000Y-86150000D03*
X96750000Y-83950000D03*
X128850000Y-83900000D03*
X108100000Y-94475000D03*
X80450000Y-90650000D03*
X116600000Y-89362500D03*
X97800000Y-82700000D03*
X84350000Y-81750000D03*
X97800000Y-79750000D03*
X96050000Y-95250000D03*
X106000000Y-84700000D03*
X97950000Y-86500000D03*
X97800000Y-83700000D03*
X99600000Y-93050000D03*
X126550000Y-75850000D03*
X83462500Y-84450000D03*
X117750000Y-91112500D03*
X138150000Y-76400000D03*
X103200000Y-83700000D03*
X84350000Y-84300000D03*
X90700000Y-92350000D03*
X122550000Y-89250000D03*
X142200000Y-72950000D03*
X83462500Y-81600000D03*
X97800000Y-80700000D03*
X65700000Y-60050000D03*
X126950000Y-85800000D03*
X84350000Y-90650000D03*
X84350000Y-82600000D03*
X124750000Y-75850000D03*
X97800000Y-81700000D03*
X82400000Y-87800000D03*
X133950000Y-86112500D03*
X118000000Y-83900000D03*
X126950000Y-82000000D03*
X132600000Y-77762500D03*
X107050000Y-85600000D03*
X126950000Y-83900000D03*
%TO.N,+3.3V*%
X103800000Y-99500000D03*
X120450000Y-82600000D03*
X103350000Y-98400000D03*
X108100000Y-99500000D03*
X102900000Y-97300000D03*
X103800000Y-97300000D03*
X102900000Y-99500000D03*
X107187500Y-87137500D03*
X133900000Y-84562500D03*
%TO.N,/I_SHAPE*%
X113100000Y-86450000D03*
X125650000Y-78650000D03*
%TO.N,/+17V*%
X98250000Y-95950000D03*
X90700000Y-96450000D03*
%TO.N,/VIN_RECT*%
X100600000Y-91750000D03*
X93450000Y-91750000D03*
%TO.N,/SW*%
X102500000Y-67000000D03*
X95750000Y-72000000D03*
X101100000Y-63400000D03*
X107050000Y-50950000D03*
X94200000Y-76000000D03*
X95830000Y-76000000D03*
X107050000Y-47800000D03*
X102500000Y-69000000D03*
X98996666Y-76000000D03*
X89450000Y-76000000D03*
X98966666Y-74000000D03*
X102500000Y-71000000D03*
X107050000Y-46750000D03*
X107050000Y-48850000D03*
X102500000Y-73000000D03*
X87250000Y-63400000D03*
X107050000Y-49900000D03*
X107050000Y-45700000D03*
X102500000Y-65000000D03*
X91033333Y-76000000D03*
X85800000Y-67000000D03*
X94200000Y-70000000D03*
X97383333Y-68000000D03*
X89450000Y-70000000D03*
X92586666Y-68000000D03*
X85800000Y-75000000D03*
X98916666Y-70000000D03*
X102500000Y-75000000D03*
X102500000Y-77000000D03*
X92666666Y-72000000D03*
X94170000Y-68000000D03*
X89500000Y-74000000D03*
X85800000Y-69000000D03*
X97413333Y-76000000D03*
X92616666Y-76000000D03*
X85800000Y-77000000D03*
X94250000Y-72000000D03*
X85800000Y-65000000D03*
X98916666Y-72000000D03*
X95800000Y-68000000D03*
X89500000Y-72000000D03*
X91083333Y-72000000D03*
X97333333Y-72000000D03*
X91003333Y-68000000D03*
X98966666Y-68000000D03*
X85800000Y-71000000D03*
X89420000Y-68000000D03*
X85800000Y-73000000D03*
X94250000Y-74000000D03*
%TO.N,/VOUT_SETPT*%
X131650000Y-79500000D03*
X123850000Y-78650000D03*
%TO.N,/VOUT*%
X128750000Y-46300000D03*
X128750000Y-48200000D03*
X145750000Y-68000000D03*
X144300000Y-68000000D03*
X142300000Y-68000000D03*
X140950000Y-68000000D03*
X128750000Y-47250000D03*
%TO.N,/MCLR*%
X128700000Y-78500000D03*
%TO.N,/UART1_TX*%
X119040000Y-94810000D03*
X124600000Y-94000000D03*
%TO.N,Net-(NT1-Pad1)*%
X89650000Y-87700000D03*
X100950000Y-87150000D03*
%TO.N,Net-(NT2-Pad1)*%
X89700000Y-85600000D03*
X100950000Y-84850000D03*
%TO.N,/PWM1H*%
X130100000Y-75000000D03*
X122200000Y-74400000D03*
%TD*%
D19*
%TO.N,/MCLR*%
X128700000Y-78500000D02*
X128700000Y-80900000D01*
X128700000Y-80900000D02*
X130175000Y-82375000D01*
X130175000Y-82375000D02*
X130175000Y-100500000D01*
%TO.N,/UART1_TX*%
X124600000Y-94000000D02*
X122550000Y-94000000D01*
X122550000Y-94000000D02*
X121750000Y-94800000D01*
X121750000Y-94800000D02*
X119050000Y-94800000D01*
X119050000Y-94800000D02*
X119040000Y-94810000D01*
%TO.N,/I_SHAPE*%
X124500000Y-79800000D02*
X125650000Y-78650000D01*
X123300000Y-79800000D02*
X124500000Y-79800000D01*
X113100000Y-86450000D02*
X120600000Y-78950000D01*
X122450000Y-78950000D02*
X123300000Y-79800000D01*
X120600000Y-78950000D02*
X122450000Y-78950000D01*
D20*
%TO.N,/+17V*%
X97550000Y-95950000D02*
X97050000Y-96450000D01*
X98250000Y-95950000D02*
X97550000Y-95950000D01*
X97050000Y-96450000D02*
X90700000Y-96450000D01*
D21*
%TO.N,/VIN_RECT*%
X93450000Y-91750000D02*
X100600000Y-91750000D01*
D19*
%TO.N,/VOUT_SETPT*%
X123850000Y-78650000D02*
X125250000Y-77250000D01*
X125250000Y-77250000D02*
X129400000Y-77250000D01*
X129400000Y-77250000D02*
X131650000Y-79500000D01*
%TO.N,Net-(NT1-Pad1)*%
X99600000Y-87150000D02*
X99050000Y-87700000D01*
X100950000Y-87150000D02*
X99600000Y-87150000D01*
X99050000Y-87700000D02*
X89650000Y-87700000D01*
%TO.N,Net-(NT2-Pad1)*%
X97500000Y-85600000D02*
X98250000Y-84850000D01*
X89700000Y-85600000D02*
X97500000Y-85600000D01*
X98250000Y-84850000D02*
X100950000Y-84850000D01*
%TO.N,/PWM1H*%
X128200000Y-74400000D02*
X122200000Y-74400000D01*
X130100000Y-75000000D02*
X128800000Y-75000000D01*
X128800000Y-75000000D02*
X128200000Y-74400000D01*
%TD*%
%TA.AperFunction,Conductor*%
%TO.N,GND*%
G36*
X145615689Y-43028502D02*
G01*
X145662182Y-43082158D01*
X145672286Y-43152432D01*
X145642792Y-43217012D01*
X145629398Y-43230311D01*
X145518501Y-43325026D01*
X145516449Y-43327143D01*
X145516441Y-43327151D01*
X145235001Y-43617574D01*
X145232941Y-43619700D01*
X144976381Y-43939941D01*
X144974752Y-43942421D01*
X144752727Y-44280420D01*
X144752721Y-44280430D01*
X144751096Y-44282904D01*
X144559086Y-44645547D01*
X144402057Y-45024650D01*
X144401189Y-45027473D01*
X144401186Y-45027480D01*
X144282274Y-45414010D01*
X144281401Y-45416848D01*
X144280800Y-45419751D01*
X144280798Y-45419758D01*
X144255334Y-45542723D01*
X144198190Y-45818660D01*
X144153161Y-46226520D01*
X144146716Y-46636807D01*
X144146948Y-46639751D01*
X144146948Y-46639761D01*
X144161204Y-46820899D01*
X144178911Y-47045881D01*
X144249460Y-47450108D01*
X144250244Y-47452975D01*
X144250247Y-47452987D01*
X144356953Y-47843039D01*
X144356956Y-47843049D01*
X144357737Y-47845903D01*
X144358781Y-47848667D01*
X144358785Y-47848678D01*
X144496936Y-48214283D01*
X144502781Y-48229751D01*
X144683305Y-48598246D01*
X144684858Y-48600781D01*
X144684859Y-48600782D01*
X144757659Y-48719580D01*
X144897706Y-48948116D01*
X145144081Y-49276257D01*
X145146081Y-49278455D01*
X145238753Y-49380300D01*
X145420244Y-49579756D01*
X145723743Y-49855919D01*
X146051884Y-50102294D01*
X146401754Y-50316695D01*
X146404433Y-50318007D01*
X146404434Y-50318008D01*
X146532443Y-50380719D01*
X146770249Y-50497219D01*
X146773019Y-50498266D01*
X146773022Y-50498267D01*
X147151322Y-50641215D01*
X147151333Y-50641219D01*
X147154097Y-50642263D01*
X147156951Y-50643044D01*
X147156961Y-50643047D01*
X147547013Y-50749753D01*
X147547025Y-50749756D01*
X147549892Y-50750540D01*
X147954119Y-50821089D01*
X147957067Y-50821321D01*
X148325362Y-50850307D01*
X148325371Y-50850307D01*
X148327819Y-50850500D01*
X148604602Y-50850500D01*
X148606083Y-50850430D01*
X148606090Y-50850430D01*
X148836748Y-50839552D01*
X148909882Y-50836103D01*
X149115534Y-50806834D01*
X149313191Y-50778704D01*
X149313194Y-50778703D01*
X149316127Y-50778286D01*
X149319002Y-50777596D01*
X149319006Y-50777595D01*
X149712246Y-50683187D01*
X149712253Y-50683185D01*
X149715127Y-50682495D01*
X150103342Y-50549579D01*
X150477325Y-50380719D01*
X150479896Y-50379253D01*
X150479901Y-50379250D01*
X150653560Y-50280197D01*
X150833758Y-50177414D01*
X151169476Y-49941467D01*
X151271982Y-49853919D01*
X151479245Y-49676899D01*
X151481499Y-49674974D01*
X151483551Y-49672857D01*
X151483559Y-49672849D01*
X151764999Y-49382426D01*
X151765001Y-49382423D01*
X151767059Y-49380300D01*
X151768913Y-49377985D01*
X151770875Y-49375760D01*
X151772060Y-49376805D01*
X151825175Y-49339573D01*
X151896115Y-49336722D01*
X151957334Y-49372676D01*
X151989397Y-49436020D01*
X151991500Y-49458946D01*
X151991500Y-55360500D01*
X151971498Y-55428621D01*
X151917842Y-55475114D01*
X151865500Y-55486500D01*
X146014888Y-55486500D01*
X145946767Y-55466498D01*
X145925793Y-55449595D01*
X139300405Y-48824207D01*
X139266379Y-48761895D01*
X139263500Y-48735112D01*
X139263500Y-48676827D01*
X139825810Y-48676827D01*
X139835692Y-48689316D01*
X139944112Y-48761760D01*
X139954225Y-48767251D01*
X140137805Y-48846123D01*
X140148738Y-48849675D01*
X140343615Y-48893771D01*
X140355025Y-48895273D01*
X140554676Y-48903117D01*
X140566158Y-48902515D01*
X140763898Y-48873845D01*
X140775081Y-48871160D01*
X140964283Y-48806934D01*
X140974786Y-48802258D01*
X141149117Y-48704629D01*
X141158599Y-48698113D01*
X141167616Y-48690614D01*
X141176067Y-48678031D01*
X141169893Y-48667381D01*
X140512811Y-48010298D01*
X140498868Y-48002685D01*
X140497034Y-48002816D01*
X140490420Y-48007067D01*
X139832003Y-48665485D01*
X139825810Y-48676827D01*
X139263500Y-48676827D01*
X139263500Y-48387354D01*
X139283502Y-48319233D01*
X139337158Y-48272740D01*
X139407432Y-48262636D01*
X139472012Y-48292130D01*
X139498619Y-48324353D01*
X139503140Y-48332183D01*
X139561914Y-48415348D01*
X139572504Y-48423736D01*
X139585803Y-48416709D01*
X140239702Y-47762811D01*
X140246079Y-47751132D01*
X140752685Y-47751132D01*
X140752816Y-47752966D01*
X140757067Y-47759580D01*
X141416223Y-48418735D01*
X141429526Y-48425999D01*
X141439563Y-48418879D01*
X141448113Y-48408599D01*
X141454629Y-48399117D01*
X141552258Y-48224786D01*
X141556934Y-48214283D01*
X141621160Y-48025081D01*
X141623845Y-48013898D01*
X141652811Y-47814118D01*
X141653441Y-47806736D01*
X141654830Y-47753704D01*
X141654587Y-47746305D01*
X141636117Y-47545285D01*
X141634020Y-47533971D01*
X141579785Y-47341670D01*
X141575663Y-47330931D01*
X141487293Y-47151736D01*
X141481278Y-47141919D01*
X141438377Y-47084468D01*
X141427117Y-47076017D01*
X141414701Y-47082787D01*
X140760298Y-47737189D01*
X140752685Y-47751132D01*
X140246079Y-47751132D01*
X140247315Y-47748868D01*
X140247184Y-47747034D01*
X140242933Y-47740420D01*
X139584803Y-47082291D01*
X139571968Y-47075282D01*
X139561276Y-47083080D01*
X139534978Y-47116440D01*
X139528704Y-47126101D01*
X139501008Y-47178742D01*
X139451589Y-47229715D01*
X139382457Y-47245878D01*
X139315560Y-47222099D01*
X139272140Y-47165928D01*
X139263500Y-47120075D01*
X139263500Y-46820684D01*
X139822102Y-46820684D01*
X139827934Y-46830446D01*
X140487189Y-47489702D01*
X140501132Y-47497315D01*
X140502966Y-47497184D01*
X140509580Y-47492933D01*
X141169238Y-46833274D01*
X141175995Y-46820899D01*
X141169965Y-46812843D01*
X141029209Y-46724034D01*
X141018965Y-46718814D01*
X140833385Y-46644775D01*
X140822347Y-46641505D01*
X140626391Y-46602527D01*
X140614944Y-46601324D01*
X140415167Y-46598709D01*
X140403687Y-46599612D01*
X140206780Y-46633447D01*
X140195660Y-46636427D01*
X140008207Y-46705582D01*
X139997829Y-46710532D01*
X139827812Y-46811681D01*
X139822102Y-46820684D01*
X139263500Y-46820684D01*
X139263500Y-45126000D01*
X139252909Y-45027480D01*
X139252128Y-45020215D01*
X139252127Y-45020208D01*
X139251766Y-45016851D01*
X139251048Y-45013550D01*
X139241094Y-44967790D01*
X139241093Y-44967785D01*
X139240380Y-44964509D01*
X139205710Y-44860343D01*
X139126692Y-44737388D01*
X139080199Y-44683732D01*
X139070933Y-44675703D01*
X138976550Y-44593919D01*
X138976547Y-44593917D01*
X138969739Y-44588018D01*
X138836790Y-44527302D01*
X138813036Y-44520327D01*
X138772992Y-44508569D01*
X138772988Y-44508568D01*
X138768669Y-44507300D01*
X138764220Y-44506660D01*
X138764214Y-44506659D01*
X138628447Y-44487139D01*
X138628442Y-44487139D01*
X138624000Y-44486500D01*
X125626000Y-44486500D01*
X125622654Y-44486860D01*
X125622649Y-44486860D01*
X125520215Y-44497872D01*
X125520208Y-44497873D01*
X125516851Y-44498234D01*
X125513551Y-44498952D01*
X125513550Y-44498952D01*
X125467790Y-44508906D01*
X125467785Y-44508907D01*
X125464509Y-44509620D01*
X125360343Y-44544290D01*
X125237388Y-44623308D01*
X125233993Y-44626250D01*
X125233990Y-44626252D01*
X125211723Y-44645547D01*
X125183732Y-44669801D01*
X125180792Y-44673194D01*
X125093919Y-44773450D01*
X125093917Y-44773453D01*
X125088018Y-44780261D01*
X125027302Y-44913210D01*
X125007300Y-44981331D01*
X125006660Y-44985780D01*
X125006659Y-44985786D01*
X124987139Y-45121553D01*
X124986500Y-45126000D01*
X124986500Y-50697810D01*
X124986592Y-50699522D01*
X124989326Y-50750540D01*
X124989441Y-50752692D01*
X124992320Y-50779475D01*
X124992588Y-50781132D01*
X124992590Y-50781143D01*
X125000125Y-50827640D01*
X125000126Y-50827645D01*
X125001116Y-50833752D01*
X125003278Y-50839549D01*
X125003279Y-50839552D01*
X125007363Y-50850500D01*
X125052194Y-50970693D01*
X125086220Y-51033005D01*
X125088915Y-51036605D01*
X125171109Y-51146402D01*
X125171113Y-51146406D01*
X125173806Y-51150004D01*
X131949595Y-57925793D01*
X131983621Y-57988105D01*
X131986500Y-58014888D01*
X131986500Y-58116693D01*
X131966498Y-58184814D01*
X131912842Y-58231307D01*
X131842568Y-58241411D01*
X131777988Y-58211917D01*
X131747494Y-58172421D01*
X131737293Y-58151736D01*
X131731278Y-58141919D01*
X131688377Y-58084468D01*
X131677117Y-58076017D01*
X131664701Y-58082787D01*
X131010298Y-58737189D01*
X131002685Y-58751132D01*
X131002816Y-58752966D01*
X131007067Y-58759580D01*
X131666223Y-59418735D01*
X131679526Y-59425999D01*
X131689563Y-59418879D01*
X131698113Y-59408599D01*
X131704629Y-59399117D01*
X131750565Y-59317092D01*
X131801302Y-59267430D01*
X131870834Y-59253082D01*
X131937085Y-59278604D01*
X131979020Y-59335892D01*
X131986500Y-59378658D01*
X131986500Y-67116693D01*
X131966498Y-67184814D01*
X131912842Y-67231307D01*
X131842568Y-67241411D01*
X131777988Y-67211917D01*
X131747494Y-67172421D01*
X131737293Y-67151736D01*
X131731278Y-67141919D01*
X131688377Y-67084468D01*
X131677117Y-67076017D01*
X131664701Y-67082787D01*
X131010298Y-67737189D01*
X131002685Y-67751132D01*
X131002816Y-67752966D01*
X131007067Y-67759580D01*
X131666223Y-68418735D01*
X131679526Y-68425999D01*
X131689563Y-68418879D01*
X131698113Y-68408599D01*
X131704629Y-68399117D01*
X131750565Y-68317092D01*
X131801302Y-68267430D01*
X131870834Y-68253082D01*
X131937085Y-68278604D01*
X131979020Y-68335892D01*
X131986500Y-68378658D01*
X131986500Y-69624000D01*
X131998234Y-69733149D01*
X132009620Y-69785491D01*
X132044290Y-69889657D01*
X132123308Y-70012612D01*
X132169801Y-70066268D01*
X132173194Y-70069208D01*
X132273450Y-70156081D01*
X132273453Y-70156083D01*
X132280261Y-70161982D01*
X132413210Y-70222698D01*
X132436964Y-70229673D01*
X132477008Y-70241431D01*
X132477012Y-70241432D01*
X132481331Y-70242700D01*
X132485780Y-70243340D01*
X132485786Y-70243341D01*
X132621553Y-70262861D01*
X132621558Y-70262861D01*
X132626000Y-70263500D01*
X151865500Y-70263500D01*
X151933621Y-70283502D01*
X151980114Y-70337158D01*
X151991500Y-70389500D01*
X151991500Y-95547055D01*
X151971498Y-95615176D01*
X151917842Y-95661669D01*
X151847568Y-95671773D01*
X151782988Y-95642279D01*
X151772318Y-95631866D01*
X151579756Y-95420244D01*
X151571857Y-95413056D01*
X151278455Y-95146081D01*
X151276257Y-95144081D01*
X151266017Y-95136392D01*
X150950500Y-94899496D01*
X150950501Y-94899496D01*
X150948116Y-94897706D01*
X150598246Y-94683305D01*
X150496582Y-94633500D01*
X150232419Y-94504088D01*
X150232418Y-94504088D01*
X150229751Y-94502781D01*
X150226978Y-94501733D01*
X149848678Y-94358785D01*
X149848667Y-94358781D01*
X149845903Y-94357737D01*
X149843049Y-94356956D01*
X149843039Y-94356953D01*
X149452987Y-94250247D01*
X149452975Y-94250244D01*
X149450108Y-94249460D01*
X149045881Y-94178911D01*
X149029558Y-94177626D01*
X148674638Y-94149693D01*
X148674629Y-94149693D01*
X148672181Y-94149500D01*
X148395398Y-94149500D01*
X148393917Y-94149570D01*
X148393910Y-94149570D01*
X148175023Y-94159893D01*
X148090118Y-94163897D01*
X147907214Y-94189928D01*
X147686809Y-94221296D01*
X147686806Y-94221297D01*
X147683873Y-94221714D01*
X147680998Y-94222404D01*
X147680994Y-94222405D01*
X147287754Y-94316813D01*
X147287747Y-94316815D01*
X147284873Y-94317505D01*
X146896658Y-94450421D01*
X146522675Y-94619281D01*
X146520104Y-94620747D01*
X146520099Y-94620750D01*
X146407704Y-94684859D01*
X146166242Y-94822586D01*
X145830524Y-95058533D01*
X145828267Y-95060461D01*
X145828264Y-95060463D01*
X145615224Y-95242417D01*
X145518501Y-95325026D01*
X145516449Y-95327143D01*
X145516441Y-95327151D01*
X145278467Y-95572721D01*
X145232941Y-95619700D01*
X144976381Y-95939941D01*
X144965461Y-95956565D01*
X144752727Y-96280420D01*
X144752721Y-96280430D01*
X144751096Y-96282904D01*
X144559086Y-96645547D01*
X144402057Y-97024650D01*
X144401189Y-97027473D01*
X144401186Y-97027480D01*
X144308803Y-97327776D01*
X144281401Y-97416848D01*
X144280800Y-97419751D01*
X144280798Y-97419758D01*
X144227469Y-97677279D01*
X144198190Y-97818660D01*
X144197863Y-97821622D01*
X144156669Y-98194750D01*
X144153161Y-98226520D01*
X144146716Y-98636807D01*
X144146948Y-98639751D01*
X144146948Y-98639761D01*
X144176520Y-99015500D01*
X144178911Y-99045881D01*
X144249460Y-99450108D01*
X144250244Y-99452975D01*
X144250247Y-99452987D01*
X144356953Y-99843039D01*
X144356956Y-99843049D01*
X144357737Y-99845903D01*
X144358781Y-99848667D01*
X144358785Y-99848678D01*
X144481697Y-100173955D01*
X144502781Y-100229751D01*
X144504088Y-100232418D01*
X144504088Y-100232419D01*
X144570898Y-100368794D01*
X144683305Y-100598246D01*
X144684858Y-100600781D01*
X144684859Y-100600782D01*
X144757659Y-100719580D01*
X144897706Y-100948116D01*
X144899496Y-100950500D01*
X145091539Y-101206277D01*
X145144081Y-101276257D01*
X145146081Y-101278455D01*
X145237836Y-101379292D01*
X145420244Y-101579756D01*
X145631857Y-101772309D01*
X145668777Y-101832947D01*
X145667054Y-101903922D01*
X145627232Y-101962699D01*
X145561954Y-101990616D01*
X145547055Y-101991500D01*
X140922160Y-101991500D01*
X140854039Y-101971498D01*
X140807546Y-101917842D01*
X140797442Y-101847568D01*
X140826936Y-101782988D01*
X140866728Y-101752349D01*
X141028346Y-101673173D01*
X141032994Y-101670896D01*
X141214860Y-101541173D01*
X141373096Y-101383489D01*
X141432594Y-101300689D01*
X141500435Y-101206277D01*
X141503453Y-101202077D01*
X141510883Y-101187045D01*
X141600136Y-101006453D01*
X141600137Y-101006451D01*
X141602430Y-101001811D01*
X141667370Y-100788069D01*
X141696529Y-100566590D01*
X141698156Y-100500000D01*
X141679852Y-100277361D01*
X141625431Y-100060702D01*
X141536354Y-99855840D01*
X141424775Y-99683365D01*
X141417822Y-99672617D01*
X141417820Y-99672614D01*
X141415014Y-99668277D01*
X141264670Y-99503051D01*
X141260619Y-99499852D01*
X141260615Y-99499848D01*
X141093414Y-99367800D01*
X141093410Y-99367798D01*
X141089359Y-99364598D01*
X141056805Y-99346627D01*
X141035642Y-99334945D01*
X140893789Y-99256638D01*
X140888920Y-99254914D01*
X140888916Y-99254912D01*
X140688087Y-99183795D01*
X140688083Y-99183794D01*
X140683212Y-99182069D01*
X140678119Y-99181162D01*
X140678116Y-99181161D01*
X140468373Y-99143800D01*
X140468367Y-99143799D01*
X140463284Y-99142894D01*
X140389452Y-99141992D01*
X140245081Y-99140228D01*
X140245079Y-99140228D01*
X140239911Y-99140165D01*
X140019091Y-99173955D01*
X139806756Y-99243357D01*
X139776443Y-99259137D01*
X139625099Y-99337922D01*
X139608607Y-99346507D01*
X139604474Y-99349610D01*
X139604471Y-99349612D01*
X139456934Y-99460386D01*
X139429965Y-99480635D01*
X139390203Y-99522243D01*
X139318729Y-99597037D01*
X139275629Y-99642138D01*
X139168201Y-99799621D01*
X139113293Y-99844621D01*
X139042768Y-99852792D01*
X138979021Y-99821538D01*
X138958324Y-99797054D01*
X138877822Y-99672617D01*
X138877820Y-99672614D01*
X138875014Y-99668277D01*
X138724670Y-99503051D01*
X138720619Y-99499852D01*
X138720615Y-99499848D01*
X138553414Y-99367800D01*
X138553410Y-99367798D01*
X138549359Y-99364598D01*
X138516805Y-99346627D01*
X138495642Y-99334945D01*
X138353789Y-99256638D01*
X138348920Y-99254914D01*
X138348916Y-99254912D01*
X138148087Y-99183795D01*
X138148083Y-99183794D01*
X138143212Y-99182069D01*
X138138119Y-99181162D01*
X138138116Y-99181161D01*
X137928373Y-99143800D01*
X137928367Y-99143799D01*
X137923284Y-99142894D01*
X137849452Y-99141992D01*
X137705081Y-99140228D01*
X137705079Y-99140228D01*
X137699911Y-99140165D01*
X137479091Y-99173955D01*
X137266756Y-99243357D01*
X137236443Y-99259137D01*
X137085099Y-99337922D01*
X137068607Y-99346507D01*
X137064474Y-99349610D01*
X137064471Y-99349612D01*
X136916934Y-99460386D01*
X136889965Y-99480635D01*
X136850203Y-99522243D01*
X136778729Y-99597037D01*
X136735629Y-99642138D01*
X136609743Y-99826680D01*
X136607567Y-99831369D01*
X136607563Y-99831375D01*
X136551512Y-99952128D01*
X136504688Y-100005495D01*
X136436444Y-100025076D01*
X136368449Y-100004652D01*
X136324218Y-99954807D01*
X136285104Y-99875493D01*
X136279097Y-99865689D01*
X136154047Y-99698227D01*
X136146357Y-99689687D01*
X135992883Y-99547816D01*
X135983758Y-99540815D01*
X135807006Y-99429293D01*
X135796759Y-99424072D01*
X135602642Y-99346627D01*
X135591615Y-99343360D01*
X135447769Y-99314748D01*
X135434894Y-99315900D01*
X135430000Y-99331056D01*
X135430000Y-101669146D01*
X135433966Y-101682652D01*
X135447965Y-101684656D01*
X135530613Y-101672673D01*
X135541809Y-101669985D01*
X135739707Y-101602807D01*
X135750216Y-101598128D01*
X135932552Y-101496015D01*
X135942045Y-101489490D01*
X136102725Y-101355854D01*
X136110854Y-101347725D01*
X136244490Y-101187045D01*
X136251015Y-101177552D01*
X136327464Y-101041042D01*
X136378201Y-100991380D01*
X136447732Y-100977033D01*
X136513983Y-101002554D01*
X136554140Y-101055203D01*
X136576319Y-101109823D01*
X136576323Y-101109831D01*
X136578266Y-101114616D01*
X136616833Y-101177552D01*
X136692291Y-101300688D01*
X136694987Y-101305088D01*
X136841250Y-101473938D01*
X137013126Y-101616632D01*
X137206000Y-101729338D01*
X137210825Y-101731180D01*
X137210826Y-101731181D01*
X137254321Y-101747790D01*
X137310824Y-101790778D01*
X137335117Y-101857489D01*
X137319487Y-101926743D01*
X137268896Y-101976554D01*
X137209372Y-101991500D01*
X133302160Y-101991500D01*
X133234039Y-101971498D01*
X133187546Y-101917842D01*
X133177442Y-101847568D01*
X133206936Y-101782988D01*
X133246728Y-101752349D01*
X133408346Y-101673173D01*
X133412994Y-101670896D01*
X133594860Y-101541173D01*
X133753096Y-101383489D01*
X133812594Y-101300689D01*
X133880435Y-101206277D01*
X133883453Y-101202077D01*
X133929048Y-101109823D01*
X133959909Y-101047379D01*
X134008022Y-100995172D01*
X134076724Y-100977265D01*
X134144200Y-100999343D01*
X134187292Y-101050455D01*
X134208899Y-101097324D01*
X134214649Y-101107285D01*
X134335272Y-101277962D01*
X134342740Y-101286705D01*
X134492446Y-101432543D01*
X134501380Y-101439777D01*
X134675152Y-101555889D01*
X134685265Y-101561380D01*
X134877288Y-101643879D01*
X134888221Y-101647431D01*
X135062332Y-101686828D01*
X135076405Y-101685939D01*
X135080000Y-101676540D01*
X135080000Y-99330512D01*
X135076194Y-99317550D01*
X135061278Y-99315614D01*
X134948777Y-99334945D01*
X134937669Y-99337922D01*
X134741592Y-99410258D01*
X134731210Y-99415210D01*
X134551604Y-99522064D01*
X134542292Y-99528829D01*
X134385163Y-99666629D01*
X134377246Y-99674972D01*
X134247862Y-99839095D01*
X134241594Y-99848747D01*
X134184143Y-99957943D01*
X134134724Y-100008915D01*
X134065591Y-100025078D01*
X133998695Y-100001299D01*
X133957087Y-99949520D01*
X133916354Y-99855840D01*
X133804775Y-99683365D01*
X133797822Y-99672617D01*
X133797820Y-99672614D01*
X133795014Y-99668277D01*
X133644670Y-99503051D01*
X133640619Y-99499852D01*
X133640615Y-99499848D01*
X133473414Y-99367800D01*
X133473410Y-99367798D01*
X133469359Y-99364598D01*
X133436805Y-99346627D01*
X133415642Y-99334945D01*
X133273789Y-99256638D01*
X133268920Y-99254914D01*
X133268916Y-99254912D01*
X133068087Y-99183795D01*
X133068083Y-99183794D01*
X133063212Y-99182069D01*
X133058119Y-99181162D01*
X133058116Y-99181161D01*
X132848373Y-99143800D01*
X132848367Y-99143799D01*
X132843284Y-99142894D01*
X132769452Y-99141992D01*
X132625081Y-99140228D01*
X132625079Y-99140228D01*
X132619911Y-99140165D01*
X132399091Y-99173955D01*
X132186756Y-99243357D01*
X132156443Y-99259137D01*
X132005099Y-99337922D01*
X131988607Y-99346507D01*
X131984474Y-99349610D01*
X131984471Y-99349612D01*
X131836934Y-99460386D01*
X131809965Y-99480635D01*
X131745766Y-99547816D01*
X131729283Y-99565064D01*
X131667759Y-99600494D01*
X131596846Y-99597037D01*
X131539060Y-99555791D01*
X131520207Y-99522243D01*
X131478767Y-99411703D01*
X131475615Y-99403295D01*
X131388261Y-99286739D01*
X131271705Y-99199385D01*
X131135316Y-99148255D01*
X131073134Y-99141500D01*
X130934500Y-99141500D01*
X130866379Y-99121498D01*
X130819886Y-99067842D01*
X130808500Y-99015500D01*
X130808500Y-91840000D01*
X145751807Y-91840000D01*
X145770542Y-92054142D01*
X145771966Y-92059455D01*
X145771966Y-92059457D01*
X145788606Y-92121556D01*
X145826178Y-92261777D01*
X145828500Y-92266757D01*
X145828501Y-92266759D01*
X145906350Y-92433705D01*
X145917024Y-92456596D01*
X146040319Y-92632681D01*
X146192319Y-92784681D01*
X146368403Y-92907976D01*
X146373381Y-92910297D01*
X146373384Y-92910299D01*
X146558241Y-92996499D01*
X146563223Y-92998822D01*
X146568531Y-93000244D01*
X146568533Y-93000245D01*
X146765543Y-93053034D01*
X146765545Y-93053034D01*
X146770858Y-93054458D01*
X146985000Y-93073193D01*
X147199142Y-93054458D01*
X147204455Y-93053034D01*
X147204457Y-93053034D01*
X147401467Y-93000245D01*
X147401469Y-93000244D01*
X147406777Y-92998822D01*
X147411759Y-92996499D01*
X147596616Y-92910299D01*
X147596619Y-92910297D01*
X147601597Y-92907976D01*
X147777681Y-92784681D01*
X147929681Y-92632681D01*
X148052976Y-92456596D01*
X148063651Y-92433705D01*
X148141499Y-92266759D01*
X148141500Y-92266757D01*
X148143822Y-92261777D01*
X148181395Y-92121556D01*
X148198034Y-92059457D01*
X148198034Y-92059455D01*
X148199458Y-92054142D01*
X148218193Y-91840000D01*
X148199458Y-91625858D01*
X148181831Y-91560072D01*
X148145245Y-91423533D01*
X148145244Y-91423531D01*
X148143822Y-91418223D01*
X148141499Y-91413241D01*
X148055299Y-91228385D01*
X148055297Y-91228382D01*
X148052976Y-91223404D01*
X147929681Y-91047319D01*
X147777681Y-90895319D01*
X147601597Y-90772024D01*
X147596619Y-90769703D01*
X147596616Y-90769701D01*
X147411759Y-90683501D01*
X147411758Y-90683500D01*
X147406777Y-90681178D01*
X147401469Y-90679756D01*
X147401467Y-90679755D01*
X147204457Y-90626966D01*
X147204455Y-90626966D01*
X147199142Y-90625542D01*
X146985000Y-90606807D01*
X146770858Y-90625542D01*
X146765545Y-90626966D01*
X146765543Y-90626966D01*
X146568533Y-90679755D01*
X146568531Y-90679756D01*
X146563223Y-90681178D01*
X146558243Y-90683500D01*
X146558241Y-90683501D01*
X146373385Y-90769701D01*
X146373382Y-90769703D01*
X146368404Y-90772024D01*
X146192319Y-90895319D01*
X146040319Y-91047319D01*
X145917024Y-91223404D01*
X145914703Y-91228382D01*
X145914701Y-91228385D01*
X145828501Y-91413241D01*
X145826178Y-91418223D01*
X145824756Y-91423531D01*
X145824755Y-91423533D01*
X145788169Y-91560072D01*
X145770542Y-91625858D01*
X145751807Y-91840000D01*
X130808500Y-91840000D01*
X130808500Y-89300000D01*
X143211807Y-89300000D01*
X143230542Y-89514142D01*
X143231966Y-89519455D01*
X143231966Y-89519457D01*
X143250728Y-89589475D01*
X143286178Y-89721777D01*
X143377024Y-89916596D01*
X143500319Y-90092681D01*
X143652319Y-90244681D01*
X143828403Y-90367976D01*
X143833381Y-90370297D01*
X143833384Y-90370299D01*
X144018241Y-90456499D01*
X144023223Y-90458822D01*
X144028531Y-90460244D01*
X144028533Y-90460245D01*
X144225543Y-90513034D01*
X144225545Y-90513034D01*
X144230858Y-90514458D01*
X144445000Y-90533193D01*
X144659142Y-90514458D01*
X144664455Y-90513034D01*
X144664457Y-90513034D01*
X144861467Y-90460245D01*
X144861469Y-90460244D01*
X144866777Y-90458822D01*
X144871759Y-90456499D01*
X145056616Y-90370299D01*
X145056619Y-90370297D01*
X145061597Y-90367976D01*
X145237681Y-90244681D01*
X145389681Y-90092681D01*
X145512976Y-89916596D01*
X145603822Y-89721777D01*
X145639273Y-89589475D01*
X145658034Y-89519457D01*
X145658034Y-89519455D01*
X145659458Y-89514142D01*
X145678193Y-89300000D01*
X145659458Y-89085858D01*
X145603822Y-88878223D01*
X145512976Y-88683404D01*
X145389681Y-88507319D01*
X145237681Y-88355319D01*
X145061597Y-88232024D01*
X145056619Y-88229703D01*
X145056616Y-88229701D01*
X144871759Y-88143501D01*
X144871758Y-88143500D01*
X144866777Y-88141178D01*
X144861469Y-88139756D01*
X144861467Y-88139755D01*
X144664457Y-88086966D01*
X144664455Y-88086966D01*
X144659142Y-88085542D01*
X144445000Y-88066807D01*
X144230858Y-88085542D01*
X144225545Y-88086966D01*
X144225543Y-88086966D01*
X144028533Y-88139755D01*
X144028531Y-88139756D01*
X144023223Y-88141178D01*
X144018243Y-88143500D01*
X144018241Y-88143501D01*
X143833385Y-88229701D01*
X143833382Y-88229703D01*
X143828404Y-88232024D01*
X143652319Y-88355319D01*
X143500319Y-88507319D01*
X143377024Y-88683404D01*
X143286178Y-88878223D01*
X143230542Y-89085858D01*
X143211807Y-89300000D01*
X130808500Y-89300000D01*
X130808500Y-86760000D01*
X145751807Y-86760000D01*
X145770542Y-86974142D01*
X145771966Y-86979455D01*
X145771966Y-86979457D01*
X145819847Y-87158148D01*
X145826178Y-87181777D01*
X145828500Y-87186757D01*
X145828501Y-87186759D01*
X145908586Y-87358500D01*
X145917024Y-87376596D01*
X146040319Y-87552681D01*
X146192319Y-87704681D01*
X146368403Y-87827976D01*
X146373381Y-87830297D01*
X146373384Y-87830299D01*
X146558241Y-87916499D01*
X146563223Y-87918822D01*
X146568531Y-87920244D01*
X146568533Y-87920245D01*
X146765543Y-87973034D01*
X146765545Y-87973034D01*
X146770858Y-87974458D01*
X146985000Y-87993193D01*
X147199142Y-87974458D01*
X147204455Y-87973034D01*
X147204457Y-87973034D01*
X147401467Y-87920245D01*
X147401469Y-87920244D01*
X147406777Y-87918822D01*
X147411759Y-87916499D01*
X147596616Y-87830299D01*
X147596619Y-87830297D01*
X147601597Y-87827976D01*
X147777681Y-87704681D01*
X147929681Y-87552681D01*
X148052976Y-87376596D01*
X148061415Y-87358500D01*
X148141499Y-87186759D01*
X148141500Y-87186757D01*
X148143822Y-87181777D01*
X148150154Y-87158148D01*
X148198034Y-86979457D01*
X148198034Y-86979455D01*
X148199458Y-86974142D01*
X148218193Y-86760000D01*
X148199458Y-86545858D01*
X148195618Y-86531526D01*
X148145245Y-86343533D01*
X148145244Y-86343531D01*
X148143822Y-86338223D01*
X148124623Y-86297050D01*
X148055299Y-86148385D01*
X148055297Y-86148382D01*
X148052976Y-86143404D01*
X147929681Y-85967319D01*
X147777681Y-85815319D01*
X147601597Y-85692024D01*
X147596619Y-85689703D01*
X147596616Y-85689701D01*
X147411759Y-85603501D01*
X147411758Y-85603500D01*
X147406777Y-85601178D01*
X147401469Y-85599756D01*
X147401467Y-85599755D01*
X147204457Y-85546966D01*
X147204455Y-85546966D01*
X147199142Y-85545542D01*
X146985000Y-85526807D01*
X146770858Y-85545542D01*
X146765545Y-85546966D01*
X146765543Y-85546966D01*
X146568533Y-85599755D01*
X146568531Y-85599756D01*
X146563223Y-85601178D01*
X146558243Y-85603500D01*
X146558241Y-85603501D01*
X146373385Y-85689701D01*
X146373382Y-85689703D01*
X146368404Y-85692024D01*
X146192319Y-85815319D01*
X146040319Y-85967319D01*
X145917024Y-86143404D01*
X145914703Y-86148382D01*
X145914701Y-86148385D01*
X145845377Y-86297050D01*
X145826178Y-86338223D01*
X145824756Y-86343531D01*
X145824755Y-86343533D01*
X145774382Y-86531526D01*
X145770542Y-86545858D01*
X145751807Y-86760000D01*
X130808500Y-86760000D01*
X130808500Y-84562500D01*
X132986496Y-84562500D01*
X132987186Y-84569065D01*
X133004228Y-84731206D01*
X133006458Y-84752428D01*
X133065473Y-84934056D01*
X133068776Y-84939778D01*
X133068777Y-84939779D01*
X133102686Y-84998510D01*
X133160960Y-85099444D01*
X133165378Y-85104351D01*
X133165379Y-85104352D01*
X133252264Y-85200848D01*
X133288747Y-85241366D01*
X133443248Y-85353618D01*
X133449276Y-85356302D01*
X133449278Y-85356303D01*
X133584787Y-85416635D01*
X133617712Y-85431294D01*
X133711113Y-85451147D01*
X133798056Y-85469628D01*
X133798061Y-85469628D01*
X133804513Y-85471000D01*
X133995487Y-85471000D01*
X134001939Y-85469628D01*
X134001944Y-85469628D01*
X134088887Y-85451147D01*
X134182288Y-85431294D01*
X134215213Y-85416635D01*
X134350722Y-85356303D01*
X134350724Y-85356302D01*
X134356752Y-85353618D01*
X134511253Y-85241366D01*
X134547736Y-85200848D01*
X134634621Y-85104352D01*
X134634622Y-85104351D01*
X134639040Y-85099444D01*
X134697314Y-84998510D01*
X134731223Y-84939779D01*
X134731224Y-84939778D01*
X134734527Y-84934056D01*
X134793542Y-84752428D01*
X134795773Y-84731206D01*
X134812814Y-84569065D01*
X134813504Y-84562500D01*
X134805330Y-84484729D01*
X134794232Y-84379135D01*
X134794232Y-84379133D01*
X134793542Y-84372572D01*
X134734527Y-84190944D01*
X134639040Y-84025556D01*
X134631895Y-84017620D01*
X134515675Y-83888545D01*
X134515674Y-83888544D01*
X134511253Y-83883634D01*
X134356752Y-83771382D01*
X134350724Y-83768698D01*
X134350722Y-83768697D01*
X134188319Y-83696391D01*
X134188318Y-83696391D01*
X134182288Y-83693706D01*
X134088887Y-83673853D01*
X134001944Y-83655372D01*
X134001939Y-83655372D01*
X133995487Y-83654000D01*
X133804513Y-83654000D01*
X133798061Y-83655372D01*
X133798056Y-83655372D01*
X133711113Y-83673853D01*
X133617712Y-83693706D01*
X133611682Y-83696391D01*
X133611681Y-83696391D01*
X133449278Y-83768697D01*
X133449276Y-83768698D01*
X133443248Y-83771382D01*
X133288747Y-83883634D01*
X133284326Y-83888544D01*
X133284325Y-83888545D01*
X133168106Y-84017620D01*
X133160960Y-84025556D01*
X133065473Y-84190944D01*
X133006458Y-84372572D01*
X133005768Y-84379133D01*
X133005768Y-84379135D01*
X132994670Y-84484729D01*
X132986496Y-84562500D01*
X130808500Y-84562500D01*
X130808500Y-82453767D01*
X130809027Y-82442584D01*
X130810702Y-82435091D01*
X130809948Y-82411085D01*
X130808562Y-82367014D01*
X130808500Y-82363055D01*
X130808500Y-82335144D01*
X130807995Y-82331144D01*
X130807062Y-82319301D01*
X130805922Y-82283030D01*
X130805673Y-82275111D01*
X130800021Y-82255657D01*
X130796013Y-82236300D01*
X130794468Y-82224070D01*
X130794468Y-82224069D01*
X130793474Y-82216203D01*
X130790555Y-82208830D01*
X130777196Y-82175088D01*
X130773351Y-82163858D01*
X130763229Y-82129017D01*
X130763229Y-82129016D01*
X130761018Y-82121407D01*
X130756985Y-82114588D01*
X130756983Y-82114583D01*
X130750707Y-82103972D01*
X130742012Y-82086224D01*
X130734552Y-82067383D01*
X130727843Y-82058148D01*
X130708564Y-82031613D01*
X130702048Y-82021693D01*
X130683580Y-81990465D01*
X130683578Y-81990462D01*
X130679542Y-81983638D01*
X130665221Y-81969317D01*
X130652380Y-81954283D01*
X130645131Y-81944306D01*
X130640472Y-81937893D01*
X130606395Y-81909702D01*
X130597616Y-81901712D01*
X130020968Y-81325064D01*
X148968568Y-81325064D01*
X148975356Y-81334765D01*
X149023390Y-81375790D01*
X149031372Y-81381590D01*
X149244379Y-81512121D01*
X149253173Y-81516602D01*
X149483972Y-81612202D01*
X149493357Y-81615251D01*
X149736272Y-81673570D01*
X149746019Y-81675113D01*
X149995070Y-81694714D01*
X150004930Y-81694714D01*
X150253981Y-81675113D01*
X150263728Y-81673570D01*
X150506643Y-81615251D01*
X150516028Y-81612202D01*
X150746827Y-81516602D01*
X150755621Y-81512121D01*
X150968628Y-81381590D01*
X150976610Y-81375790D01*
X151023076Y-81336105D01*
X151031506Y-81323192D01*
X151025498Y-81312985D01*
X150012812Y-80300299D01*
X149998868Y-80292685D01*
X149997035Y-80292816D01*
X149990420Y-80297067D01*
X148975960Y-81311527D01*
X148968568Y-81325064D01*
X130020968Y-81325064D01*
X129370405Y-80674500D01*
X129336379Y-80612188D01*
X129333500Y-80585405D01*
X129333500Y-79202524D01*
X129353502Y-79134403D01*
X129365858Y-79118221D01*
X129439040Y-79036944D01*
X129534527Y-78871556D01*
X129593542Y-78689928D01*
X129599263Y-78635496D01*
X129626276Y-78569839D01*
X129684498Y-78529210D01*
X129755443Y-78526507D01*
X129813668Y-78559572D01*
X130702878Y-79448782D01*
X130736904Y-79511094D01*
X130739092Y-79524703D01*
X130742500Y-79557128D01*
X130751069Y-79638650D01*
X130756458Y-79689928D01*
X130815473Y-79871556D01*
X130910960Y-80036944D01*
X130915378Y-80041851D01*
X130915379Y-80041852D01*
X131034325Y-80173955D01*
X131038747Y-80178866D01*
X131111047Y-80231395D01*
X131181044Y-80282251D01*
X131193248Y-80291118D01*
X131199276Y-80293802D01*
X131199278Y-80293803D01*
X131361681Y-80366109D01*
X131367712Y-80368794D01*
X131448744Y-80386018D01*
X131548056Y-80407128D01*
X131548061Y-80407128D01*
X131554513Y-80408500D01*
X131745487Y-80408500D01*
X131751939Y-80407128D01*
X131751944Y-80407128D01*
X131851256Y-80386018D01*
X131932288Y-80368794D01*
X131938319Y-80366109D01*
X132100722Y-80293803D01*
X132100724Y-80293802D01*
X132106752Y-80291118D01*
X132118957Y-80282251D01*
X132188953Y-80231395D01*
X132261253Y-80178866D01*
X132265675Y-80173955D01*
X132381850Y-80044930D01*
X148345286Y-80044930D01*
X148364887Y-80293981D01*
X148366430Y-80303728D01*
X148424749Y-80546643D01*
X148427798Y-80556028D01*
X148523398Y-80786827D01*
X148527879Y-80795621D01*
X148658410Y-81008628D01*
X148664210Y-81016610D01*
X148703895Y-81063076D01*
X148716808Y-81071506D01*
X148727015Y-81065498D01*
X149739701Y-80052812D01*
X149746079Y-80041132D01*
X150252685Y-80041132D01*
X150252816Y-80042965D01*
X150257067Y-80049580D01*
X151271527Y-81064040D01*
X151285064Y-81071432D01*
X151294765Y-81064644D01*
X151335790Y-81016610D01*
X151341590Y-81008628D01*
X151472121Y-80795621D01*
X151476602Y-80786827D01*
X151572202Y-80556028D01*
X151575251Y-80546643D01*
X151633570Y-80303728D01*
X151635113Y-80293981D01*
X151654714Y-80044930D01*
X151654714Y-80035070D01*
X151635113Y-79786019D01*
X151633570Y-79776272D01*
X151575251Y-79533357D01*
X151572202Y-79523972D01*
X151476602Y-79293173D01*
X151472121Y-79284379D01*
X151341590Y-79071372D01*
X151335790Y-79063390D01*
X151296105Y-79016924D01*
X151283192Y-79008494D01*
X151272985Y-79014502D01*
X150260299Y-80027188D01*
X150252685Y-80041132D01*
X149746079Y-80041132D01*
X149747315Y-80038868D01*
X149747184Y-80037035D01*
X149742933Y-80030420D01*
X148728473Y-79015960D01*
X148714936Y-79008568D01*
X148705235Y-79015356D01*
X148664210Y-79063390D01*
X148658410Y-79071372D01*
X148527879Y-79284379D01*
X148523398Y-79293173D01*
X148427798Y-79523972D01*
X148424749Y-79533357D01*
X148366430Y-79776272D01*
X148364887Y-79786019D01*
X148345286Y-80035070D01*
X148345286Y-80044930D01*
X132381850Y-80044930D01*
X132384621Y-80041852D01*
X132384622Y-80041851D01*
X132389040Y-80036944D01*
X132484527Y-79871556D01*
X132543542Y-79689928D01*
X132548932Y-79638650D01*
X132562814Y-79506565D01*
X132563504Y-79500000D01*
X132551375Y-79384596D01*
X132544232Y-79316635D01*
X132544232Y-79316633D01*
X132543542Y-79310072D01*
X132484527Y-79128444D01*
X132389040Y-78963056D01*
X132261253Y-78821134D01*
X132172716Y-78756808D01*
X148968494Y-78756808D01*
X148974502Y-78767015D01*
X149987188Y-79779701D01*
X150001132Y-79787315D01*
X150002965Y-79787184D01*
X150009580Y-79782933D01*
X151024040Y-78768473D01*
X151031432Y-78754936D01*
X151024644Y-78745235D01*
X150976610Y-78704210D01*
X150968628Y-78698410D01*
X150755621Y-78567879D01*
X150746827Y-78563398D01*
X150516028Y-78467798D01*
X150506643Y-78464749D01*
X150263728Y-78406430D01*
X150253981Y-78404887D01*
X150004930Y-78385286D01*
X149995070Y-78385286D01*
X149746019Y-78404887D01*
X149736272Y-78406430D01*
X149493357Y-78464749D01*
X149483972Y-78467798D01*
X149253173Y-78563398D01*
X149244379Y-78567879D01*
X149031372Y-78698410D01*
X149023390Y-78704210D01*
X148976924Y-78743895D01*
X148968494Y-78756808D01*
X132172716Y-78756808D01*
X132106752Y-78708882D01*
X132100724Y-78706198D01*
X132100722Y-78706197D01*
X131938319Y-78633891D01*
X131938318Y-78633891D01*
X131932288Y-78631206D01*
X131838887Y-78611353D01*
X131751944Y-78592872D01*
X131751939Y-78592872D01*
X131745487Y-78591500D01*
X131689594Y-78591500D01*
X131621473Y-78571498D01*
X131600499Y-78554595D01*
X129903652Y-76857747D01*
X129896112Y-76849461D01*
X129892000Y-76842982D01*
X129866034Y-76818598D01*
X129842349Y-76796357D01*
X129839507Y-76793602D01*
X129819770Y-76773865D01*
X129816573Y-76771385D01*
X129807551Y-76763680D01*
X129794122Y-76751069D01*
X129775321Y-76733414D01*
X129768375Y-76729595D01*
X129768372Y-76729593D01*
X129757566Y-76723652D01*
X129741047Y-76712801D01*
X129740583Y-76712441D01*
X129725041Y-76700386D01*
X129717772Y-76697241D01*
X129717768Y-76697238D01*
X129684463Y-76682826D01*
X129673813Y-76677609D01*
X129635060Y-76656305D01*
X129615437Y-76651267D01*
X129596734Y-76644863D01*
X129585420Y-76639967D01*
X129585419Y-76639967D01*
X129578145Y-76636819D01*
X129570322Y-76635580D01*
X129570312Y-76635577D01*
X129534476Y-76629901D01*
X129522856Y-76627495D01*
X129487711Y-76618472D01*
X129487710Y-76618472D01*
X129480030Y-76616500D01*
X129459776Y-76616500D01*
X129440065Y-76614949D01*
X129438582Y-76614714D01*
X129420057Y-76611780D01*
X129390786Y-76614547D01*
X129376039Y-76615941D01*
X129364181Y-76616500D01*
X125328767Y-76616500D01*
X125317584Y-76615973D01*
X125310091Y-76614298D01*
X125302165Y-76614547D01*
X125302164Y-76614547D01*
X125242014Y-76616438D01*
X125238055Y-76616500D01*
X125210144Y-76616500D01*
X125206210Y-76616997D01*
X125206209Y-76616997D01*
X125206144Y-76617005D01*
X125194307Y-76617938D01*
X125162049Y-76618952D01*
X125158030Y-76619078D01*
X125150111Y-76619327D01*
X125130657Y-76624979D01*
X125111300Y-76628987D01*
X125099070Y-76630532D01*
X125099069Y-76630532D01*
X125091203Y-76631526D01*
X125083832Y-76634445D01*
X125083830Y-76634445D01*
X125050088Y-76647804D01*
X125038858Y-76651649D01*
X125004017Y-76661771D01*
X125004016Y-76661771D01*
X124996407Y-76663982D01*
X124989588Y-76668015D01*
X124989583Y-76668017D01*
X124978972Y-76674293D01*
X124961224Y-76682988D01*
X124942383Y-76690448D01*
X124935967Y-76695110D01*
X124935966Y-76695110D01*
X124906613Y-76716436D01*
X124896693Y-76722952D01*
X124865465Y-76741420D01*
X124865462Y-76741422D01*
X124858638Y-76745458D01*
X124844317Y-76759779D01*
X124829284Y-76772619D01*
X124812893Y-76784528D01*
X124807843Y-76790632D01*
X124807838Y-76790637D01*
X124784707Y-76818598D01*
X124776717Y-76827379D01*
X123899499Y-77704596D01*
X123837187Y-77738621D01*
X123810404Y-77741500D01*
X123754513Y-77741500D01*
X123748061Y-77742872D01*
X123748056Y-77742872D01*
X123661113Y-77761353D01*
X123567712Y-77781206D01*
X123561682Y-77783891D01*
X123561681Y-77783891D01*
X123399278Y-77856197D01*
X123399276Y-77856198D01*
X123393248Y-77858882D01*
X123238747Y-77971134D01*
X123234326Y-77976044D01*
X123234325Y-77976045D01*
X123140545Y-78080199D01*
X123110960Y-78113056D01*
X123083598Y-78160448D01*
X123030667Y-78252128D01*
X123015473Y-78278444D01*
X122992227Y-78349988D01*
X122990999Y-78353767D01*
X122950925Y-78412373D01*
X122885529Y-78440010D01*
X122810468Y-78425247D01*
X122807572Y-78423655D01*
X122791047Y-78412801D01*
X122782833Y-78406430D01*
X122775041Y-78400386D01*
X122767772Y-78397241D01*
X122767768Y-78397238D01*
X122734463Y-78382826D01*
X122723813Y-78377609D01*
X122685060Y-78356305D01*
X122675176Y-78353767D01*
X122665438Y-78351267D01*
X122646734Y-78344863D01*
X122635420Y-78339967D01*
X122635419Y-78339967D01*
X122628145Y-78336819D01*
X122620322Y-78335580D01*
X122620312Y-78335577D01*
X122584476Y-78329901D01*
X122572856Y-78327495D01*
X122537711Y-78318472D01*
X122537710Y-78318472D01*
X122530030Y-78316500D01*
X122509776Y-78316500D01*
X122490065Y-78314949D01*
X122477886Y-78313020D01*
X122470057Y-78311780D01*
X122440786Y-78314547D01*
X122426039Y-78315941D01*
X122414181Y-78316500D01*
X120678768Y-78316500D01*
X120667585Y-78315973D01*
X120660092Y-78314298D01*
X120652166Y-78314547D01*
X120652165Y-78314547D01*
X120592002Y-78316438D01*
X120588044Y-78316500D01*
X120560144Y-78316500D01*
X120556154Y-78317004D01*
X120544320Y-78317936D01*
X120500111Y-78319326D01*
X120492497Y-78321538D01*
X120492492Y-78321539D01*
X120480659Y-78324977D01*
X120461296Y-78328988D01*
X120441203Y-78331526D01*
X120433836Y-78334443D01*
X120433831Y-78334444D01*
X120400092Y-78347802D01*
X120388865Y-78351646D01*
X120346407Y-78363982D01*
X120339581Y-78368019D01*
X120328972Y-78374293D01*
X120311224Y-78382988D01*
X120292383Y-78390448D01*
X120285967Y-78395110D01*
X120285966Y-78395110D01*
X120256613Y-78416436D01*
X120246693Y-78422952D01*
X120215465Y-78441420D01*
X120215462Y-78441422D01*
X120208638Y-78445458D01*
X120194317Y-78459779D01*
X120179284Y-78472619D01*
X120162893Y-78484528D01*
X120134702Y-78518605D01*
X120126712Y-78527384D01*
X113149500Y-85504595D01*
X113087188Y-85538621D01*
X113060405Y-85541500D01*
X113004513Y-85541500D01*
X112998061Y-85542872D01*
X112998056Y-85542872D01*
X112911112Y-85561353D01*
X112817712Y-85581206D01*
X112811682Y-85583891D01*
X112811681Y-85583891D01*
X112649278Y-85656197D01*
X112649276Y-85656198D01*
X112643248Y-85658882D01*
X112488747Y-85771134D01*
X112484326Y-85776044D01*
X112484325Y-85776045D01*
X112367382Y-85905924D01*
X112360960Y-85913056D01*
X112357659Y-85918774D01*
X112270273Y-86070131D01*
X112265473Y-86078444D01*
X112206458Y-86260072D01*
X112205768Y-86266633D01*
X112205768Y-86266635D01*
X112196979Y-86350263D01*
X112186496Y-86450000D01*
X112187186Y-86456565D01*
X112204356Y-86619924D01*
X112206458Y-86639928D01*
X112265473Y-86821556D01*
X112268776Y-86827278D01*
X112268777Y-86827279D01*
X112302686Y-86886010D01*
X112360960Y-86986944D01*
X112365378Y-86991851D01*
X112365379Y-86991852D01*
X112430000Y-87063621D01*
X112488747Y-87128866D01*
X112643248Y-87241118D01*
X112649276Y-87243802D01*
X112649278Y-87243803D01*
X112811681Y-87316109D01*
X112817712Y-87318794D01*
X112892680Y-87334729D01*
X112998056Y-87357128D01*
X112998061Y-87357128D01*
X113004513Y-87358500D01*
X113195487Y-87358500D01*
X113201939Y-87357128D01*
X113201944Y-87357128D01*
X113307320Y-87334729D01*
X113382288Y-87318794D01*
X113388319Y-87316109D01*
X113550722Y-87243803D01*
X113550724Y-87243802D01*
X113556752Y-87241118D01*
X113711253Y-87128866D01*
X113770000Y-87063621D01*
X113834621Y-86991852D01*
X113834622Y-86991851D01*
X113839040Y-86986944D01*
X113897314Y-86886010D01*
X113931223Y-86827279D01*
X113931224Y-86827278D01*
X113934527Y-86821556D01*
X113993542Y-86639928D01*
X113995645Y-86619924D01*
X114005985Y-86521540D01*
X114010907Y-86474706D01*
X114037920Y-86409050D01*
X114047122Y-86398782D01*
X117845904Y-82600000D01*
X119536496Y-82600000D01*
X119556458Y-82789928D01*
X119615473Y-82971556D01*
X119710960Y-83136944D01*
X119715378Y-83141851D01*
X119715379Y-83141852D01*
X119806319Y-83242851D01*
X119838747Y-83278866D01*
X119993248Y-83391118D01*
X119999276Y-83393802D01*
X119999278Y-83393803D01*
X120118238Y-83446767D01*
X120167712Y-83468794D01*
X120261112Y-83488647D01*
X120348056Y-83507128D01*
X120348061Y-83507128D01*
X120354513Y-83508500D01*
X120545487Y-83508500D01*
X120551939Y-83507128D01*
X120551944Y-83507128D01*
X120638888Y-83488647D01*
X120732288Y-83468794D01*
X120781762Y-83446767D01*
X120900722Y-83393803D01*
X120900724Y-83393802D01*
X120906752Y-83391118D01*
X121061253Y-83278866D01*
X121093681Y-83242851D01*
X121184621Y-83141852D01*
X121184622Y-83141851D01*
X121189040Y-83136944D01*
X121284527Y-82971556D01*
X121343542Y-82789928D01*
X121363504Y-82600000D01*
X121356515Y-82533502D01*
X121344232Y-82416635D01*
X121344232Y-82416633D01*
X121343542Y-82410072D01*
X121284527Y-82228444D01*
X121189040Y-82063056D01*
X121091101Y-81954283D01*
X121065675Y-81926045D01*
X121065674Y-81926044D01*
X121061253Y-81921134D01*
X120906752Y-81808882D01*
X120900724Y-81806198D01*
X120900722Y-81806197D01*
X120738319Y-81733891D01*
X120738318Y-81733891D01*
X120732288Y-81731206D01*
X120638888Y-81711353D01*
X120551944Y-81692872D01*
X120551939Y-81692872D01*
X120545487Y-81691500D01*
X120354513Y-81691500D01*
X120348061Y-81692872D01*
X120348056Y-81692872D01*
X120261112Y-81711353D01*
X120167712Y-81731206D01*
X120161682Y-81733891D01*
X120161681Y-81733891D01*
X119999278Y-81806197D01*
X119999276Y-81806198D01*
X119993248Y-81808882D01*
X119838747Y-81921134D01*
X119834326Y-81926044D01*
X119834325Y-81926045D01*
X119808900Y-81954283D01*
X119710960Y-82063056D01*
X119615473Y-82228444D01*
X119556458Y-82410072D01*
X119555768Y-82416633D01*
X119555768Y-82416635D01*
X119543485Y-82533502D01*
X119536496Y-82600000D01*
X117845904Y-82600000D01*
X120825499Y-79620405D01*
X120887811Y-79586379D01*
X120914594Y-79583500D01*
X122135406Y-79583500D01*
X122203527Y-79603502D01*
X122224501Y-79620405D01*
X122796343Y-80192247D01*
X122803887Y-80200537D01*
X122808000Y-80207018D01*
X122813777Y-80212443D01*
X122857667Y-80253658D01*
X122860509Y-80256413D01*
X122880231Y-80276135D01*
X122883355Y-80278558D01*
X122883359Y-80278562D01*
X122883424Y-80278612D01*
X122892445Y-80286317D01*
X122924679Y-80316586D01*
X122931627Y-80320405D01*
X122931629Y-80320407D01*
X122942432Y-80326346D01*
X122958959Y-80337202D01*
X122968698Y-80344757D01*
X122968700Y-80344758D01*
X122974960Y-80349614D01*
X123015540Y-80367174D01*
X123026188Y-80372391D01*
X123050976Y-80386018D01*
X123064940Y-80393695D01*
X123072616Y-80395666D01*
X123072619Y-80395667D01*
X123084562Y-80398733D01*
X123103266Y-80405137D01*
X123111038Y-80408500D01*
X123121855Y-80413181D01*
X123129678Y-80414420D01*
X123129688Y-80414423D01*
X123165524Y-80420099D01*
X123177144Y-80422505D01*
X123208959Y-80430673D01*
X123219970Y-80433500D01*
X123240224Y-80433500D01*
X123259934Y-80435051D01*
X123279943Y-80438220D01*
X123287835Y-80437474D01*
X123306580Y-80435702D01*
X123323962Y-80434059D01*
X123335819Y-80433500D01*
X124421233Y-80433500D01*
X124432416Y-80434027D01*
X124439909Y-80435702D01*
X124447835Y-80435453D01*
X124447836Y-80435453D01*
X124507986Y-80433562D01*
X124511945Y-80433500D01*
X124539856Y-80433500D01*
X124543791Y-80433003D01*
X124543856Y-80432995D01*
X124555693Y-80432062D01*
X124587951Y-80431048D01*
X124591970Y-80430922D01*
X124599889Y-80430673D01*
X124619343Y-80425021D01*
X124638700Y-80421013D01*
X124650930Y-80419468D01*
X124650931Y-80419468D01*
X124658797Y-80418474D01*
X124666168Y-80415555D01*
X124666170Y-80415555D01*
X124699912Y-80402196D01*
X124711142Y-80398351D01*
X124745983Y-80388229D01*
X124745984Y-80388229D01*
X124753593Y-80386018D01*
X124760412Y-80381985D01*
X124760417Y-80381983D01*
X124771028Y-80375707D01*
X124788776Y-80367012D01*
X124807617Y-80359552D01*
X124843387Y-80333564D01*
X124853307Y-80327048D01*
X124884535Y-80308580D01*
X124884538Y-80308578D01*
X124891362Y-80304542D01*
X124905683Y-80290221D01*
X124920717Y-80277380D01*
X124922431Y-80276135D01*
X124937107Y-80265472D01*
X124965298Y-80231395D01*
X124973288Y-80222616D01*
X125600499Y-79595405D01*
X125662811Y-79561379D01*
X125689594Y-79558500D01*
X125745487Y-79558500D01*
X125751939Y-79557128D01*
X125751944Y-79557128D01*
X125838888Y-79538647D01*
X125932288Y-79518794D01*
X125967192Y-79503254D01*
X126100722Y-79443803D01*
X126100724Y-79443802D01*
X126106752Y-79441118D01*
X126261253Y-79328866D01*
X126389040Y-79186944D01*
X126484527Y-79021556D01*
X126543542Y-78839928D01*
X126545518Y-78821134D01*
X126562814Y-78656565D01*
X126563504Y-78650000D01*
X126561529Y-78631206D01*
X126544232Y-78466635D01*
X126544232Y-78466633D01*
X126543542Y-78460072D01*
X126484527Y-78278444D01*
X126469334Y-78252128D01*
X126416402Y-78160448D01*
X126389040Y-78113056D01*
X126371709Y-78093808D01*
X126340993Y-78029802D01*
X126349758Y-77959349D01*
X126395221Y-77904818D01*
X126465347Y-77883500D01*
X127788653Y-77883500D01*
X127856774Y-77903502D01*
X127903267Y-77957158D01*
X127913371Y-78027432D01*
X127897772Y-78072500D01*
X127865473Y-78128444D01*
X127806458Y-78310072D01*
X127805768Y-78316633D01*
X127805768Y-78316635D01*
X127789374Y-78472620D01*
X127786496Y-78500000D01*
X127787186Y-78506565D01*
X127791014Y-78542982D01*
X127806458Y-78689928D01*
X127865473Y-78871556D01*
X127960960Y-79036944D01*
X128034137Y-79118215D01*
X128064853Y-79182221D01*
X128066500Y-79202524D01*
X128066500Y-80821233D01*
X128065973Y-80832416D01*
X128064298Y-80839909D01*
X128064547Y-80847835D01*
X128064547Y-80847836D01*
X128066438Y-80907986D01*
X128066500Y-80911945D01*
X128066500Y-80939856D01*
X128066997Y-80943790D01*
X128066997Y-80943791D01*
X128067005Y-80943856D01*
X128067938Y-80955693D01*
X128069327Y-80999889D01*
X128074185Y-81016610D01*
X128074978Y-81019339D01*
X128078987Y-81038700D01*
X128081526Y-81058797D01*
X128084445Y-81066168D01*
X128084445Y-81066170D01*
X128097804Y-81099912D01*
X128101649Y-81111142D01*
X128113982Y-81153593D01*
X128118015Y-81160412D01*
X128118017Y-81160417D01*
X128124293Y-81171028D01*
X128132988Y-81188776D01*
X128140448Y-81207617D01*
X128145110Y-81214033D01*
X128145110Y-81214034D01*
X128166436Y-81243387D01*
X128172952Y-81253307D01*
X128195458Y-81291362D01*
X128209779Y-81305683D01*
X128222619Y-81320716D01*
X128234528Y-81337107D01*
X128240634Y-81342158D01*
X128268605Y-81365298D01*
X128277384Y-81373288D01*
X129504595Y-82600500D01*
X129538621Y-82662812D01*
X129541500Y-82689595D01*
X129541500Y-99015500D01*
X129521498Y-99083621D01*
X129467842Y-99130114D01*
X129415500Y-99141500D01*
X129276866Y-99141500D01*
X129214684Y-99148255D01*
X129078295Y-99199385D01*
X128961739Y-99286739D01*
X128874385Y-99403295D01*
X128823255Y-99539684D01*
X128816500Y-99601866D01*
X128816500Y-101398134D01*
X128823255Y-101460316D01*
X128874385Y-101596705D01*
X128961739Y-101713261D01*
X128968919Y-101718642D01*
X128968920Y-101718643D01*
X129030339Y-101764674D01*
X129072854Y-101821533D01*
X129077880Y-101892352D01*
X129043820Y-101954645D01*
X128981489Y-101988635D01*
X128954774Y-101991500D01*
X122167160Y-101991500D01*
X122099039Y-101971498D01*
X122052546Y-101917842D01*
X122042442Y-101847568D01*
X122071936Y-101782988D01*
X122111728Y-101752349D01*
X122273346Y-101673173D01*
X122277994Y-101670896D01*
X122459860Y-101541173D01*
X122618096Y-101383489D01*
X122677594Y-101300689D01*
X122745435Y-101206277D01*
X122748453Y-101202077D01*
X122794048Y-101109823D01*
X122824909Y-101047379D01*
X122873022Y-100995172D01*
X122941724Y-100977265D01*
X123009200Y-100999343D01*
X123052292Y-101050455D01*
X123073899Y-101097324D01*
X123079649Y-101107285D01*
X123200272Y-101277962D01*
X123207740Y-101286705D01*
X123357446Y-101432543D01*
X123366380Y-101439777D01*
X123540152Y-101555889D01*
X123550265Y-101561380D01*
X123742288Y-101643879D01*
X123753221Y-101647431D01*
X123927332Y-101686828D01*
X123941405Y-101685939D01*
X123945000Y-101676540D01*
X123945000Y-101669146D01*
X124295000Y-101669146D01*
X124298966Y-101682652D01*
X124312965Y-101684656D01*
X124395613Y-101672673D01*
X124406809Y-101669985D01*
X124604707Y-101602807D01*
X124615216Y-101598128D01*
X124797552Y-101496015D01*
X124807045Y-101489490D01*
X124967725Y-101355854D01*
X124975854Y-101347725D01*
X125109490Y-101187045D01*
X125116015Y-101177552D01*
X125218128Y-100995216D01*
X125222807Y-100984707D01*
X125289985Y-100786809D01*
X125292673Y-100775613D01*
X125304661Y-100692929D01*
X125302675Y-100678993D01*
X125289107Y-100675000D01*
X124313115Y-100675000D01*
X124297876Y-100679475D01*
X124296671Y-100680865D01*
X124295000Y-100688548D01*
X124295000Y-101669146D01*
X123945000Y-101669146D01*
X123945000Y-100306885D01*
X124295000Y-100306885D01*
X124299475Y-100322124D01*
X124300865Y-100323329D01*
X124308548Y-100325000D01*
X125290946Y-100325000D01*
X125305491Y-100320729D01*
X125307554Y-100308595D01*
X125305490Y-100286134D01*
X125303393Y-100274820D01*
X125246664Y-100073675D01*
X125242542Y-100062936D01*
X125150107Y-99875497D01*
X125144097Y-99865689D01*
X125019047Y-99698227D01*
X125011357Y-99689687D01*
X124857883Y-99547816D01*
X124848758Y-99540815D01*
X124672006Y-99429293D01*
X124661759Y-99424072D01*
X124467642Y-99346627D01*
X124456615Y-99343360D01*
X124312769Y-99314748D01*
X124299894Y-99315900D01*
X124295000Y-99331056D01*
X124295000Y-100306885D01*
X123945000Y-100306885D01*
X123945000Y-99330512D01*
X123941194Y-99317550D01*
X123926278Y-99315614D01*
X123813777Y-99334945D01*
X123802669Y-99337922D01*
X123606592Y-99410258D01*
X123596210Y-99415210D01*
X123416604Y-99522064D01*
X123407292Y-99528829D01*
X123250163Y-99666629D01*
X123242246Y-99674972D01*
X123112862Y-99839095D01*
X123106594Y-99848747D01*
X123049143Y-99957943D01*
X122999724Y-100008915D01*
X122930591Y-100025078D01*
X122863695Y-100001299D01*
X122822087Y-99949520D01*
X122781354Y-99855840D01*
X122669775Y-99683365D01*
X122662822Y-99672617D01*
X122662820Y-99672614D01*
X122660014Y-99668277D01*
X122509670Y-99503051D01*
X122505619Y-99499852D01*
X122505615Y-99499848D01*
X122338414Y-99367800D01*
X122338410Y-99367798D01*
X122334359Y-99364598D01*
X122301805Y-99346627D01*
X122280642Y-99334945D01*
X122138789Y-99256638D01*
X122133920Y-99254914D01*
X122133916Y-99254912D01*
X121933087Y-99183795D01*
X121933083Y-99183794D01*
X121928212Y-99182069D01*
X121923119Y-99181162D01*
X121923116Y-99181161D01*
X121713373Y-99143800D01*
X121713367Y-99143799D01*
X121708284Y-99142894D01*
X121634452Y-99141992D01*
X121490081Y-99140228D01*
X121490079Y-99140228D01*
X121484911Y-99140165D01*
X121264091Y-99173955D01*
X121051756Y-99243357D01*
X121021443Y-99259137D01*
X120870099Y-99337922D01*
X120853607Y-99346507D01*
X120849474Y-99349610D01*
X120849471Y-99349612D01*
X120701934Y-99460386D01*
X120674965Y-99480635D01*
X120635203Y-99522243D01*
X120563729Y-99597037D01*
X120520629Y-99642138D01*
X120413201Y-99799621D01*
X120358293Y-99844621D01*
X120287768Y-99852792D01*
X120224021Y-99821538D01*
X120203324Y-99797054D01*
X120122822Y-99672617D01*
X120122820Y-99672614D01*
X120120014Y-99668277D01*
X119969670Y-99503051D01*
X119965619Y-99499852D01*
X119965615Y-99499848D01*
X119798414Y-99367800D01*
X119798410Y-99367798D01*
X119794359Y-99364598D01*
X119761805Y-99346627D01*
X119740642Y-99334945D01*
X119598789Y-99256638D01*
X119593920Y-99254914D01*
X119593916Y-99254912D01*
X119393087Y-99183795D01*
X119393083Y-99183794D01*
X119388212Y-99182069D01*
X119383119Y-99181162D01*
X119383116Y-99181161D01*
X119173373Y-99143800D01*
X119173367Y-99143799D01*
X119168284Y-99142894D01*
X119094452Y-99141992D01*
X118950081Y-99140228D01*
X118950079Y-99140228D01*
X118944911Y-99140165D01*
X118724091Y-99173955D01*
X118511756Y-99243357D01*
X118481443Y-99259137D01*
X118330099Y-99337922D01*
X118313607Y-99346507D01*
X118309474Y-99349610D01*
X118309471Y-99349612D01*
X118161934Y-99460386D01*
X118134965Y-99480635D01*
X118070766Y-99547816D01*
X118054283Y-99565064D01*
X117992759Y-99600494D01*
X117921846Y-99597037D01*
X117864060Y-99555791D01*
X117845207Y-99522243D01*
X117803767Y-99411703D01*
X117800615Y-99403295D01*
X117713261Y-99286739D01*
X117596705Y-99199385D01*
X117460316Y-99148255D01*
X117398134Y-99141500D01*
X115601866Y-99141500D01*
X115539684Y-99148255D01*
X115403295Y-99199385D01*
X115286739Y-99286739D01*
X115199385Y-99403295D01*
X115148255Y-99539684D01*
X115141500Y-99601866D01*
X115141500Y-101398134D01*
X115148255Y-101460316D01*
X115199385Y-101596705D01*
X115286739Y-101713261D01*
X115293919Y-101718642D01*
X115293920Y-101718643D01*
X115355339Y-101764674D01*
X115397854Y-101821533D01*
X115402880Y-101892352D01*
X115368820Y-101954645D01*
X115306489Y-101988635D01*
X115279774Y-101991500D01*
X69452432Y-101991500D01*
X69384311Y-101971498D01*
X69337818Y-101917842D01*
X69327714Y-101847568D01*
X69357208Y-101782988D01*
X69370602Y-101769689D01*
X69479245Y-101676899D01*
X69481499Y-101674974D01*
X69483551Y-101672857D01*
X69483559Y-101672849D01*
X69764999Y-101382426D01*
X69765001Y-101382423D01*
X69767059Y-101380300D01*
X70023619Y-101060059D01*
X70098818Y-100945580D01*
X70247273Y-100719580D01*
X70247279Y-100719570D01*
X70248904Y-100717096D01*
X70440914Y-100354453D01*
X70597943Y-99975350D01*
X70605891Y-99949517D01*
X70717726Y-99585990D01*
X70717726Y-99585988D01*
X70718599Y-99583152D01*
X70722345Y-99565064D01*
X70735819Y-99500000D01*
X101986496Y-99500000D01*
X101987186Y-99506565D01*
X102004639Y-99672617D01*
X102006458Y-99689928D01*
X102065473Y-99871556D01*
X102160960Y-100036944D01*
X102165378Y-100041851D01*
X102165379Y-100041852D01*
X102182352Y-100060702D01*
X102288747Y-100178866D01*
X102297603Y-100185300D01*
X102431417Y-100282522D01*
X102443248Y-100291118D01*
X102449276Y-100293802D01*
X102449278Y-100293803D01*
X102611681Y-100366109D01*
X102617712Y-100368794D01*
X102711113Y-100388647D01*
X102798056Y-100407128D01*
X102798061Y-100407128D01*
X102804513Y-100408500D01*
X102995487Y-100408500D01*
X103001939Y-100407128D01*
X103001944Y-100407128D01*
X103088887Y-100388647D01*
X103182288Y-100368794D01*
X103214499Y-100354453D01*
X103220644Y-100351717D01*
X103298752Y-100316941D01*
X103369118Y-100307507D01*
X103401246Y-100316940D01*
X103479356Y-100351717D01*
X103485502Y-100354453D01*
X103517712Y-100368794D01*
X103611113Y-100388647D01*
X103698056Y-100407128D01*
X103698061Y-100407128D01*
X103704513Y-100408500D01*
X103895487Y-100408500D01*
X103901939Y-100407128D01*
X103901944Y-100407128D01*
X103988887Y-100388647D01*
X104082288Y-100368794D01*
X104088319Y-100366109D01*
X104250722Y-100293803D01*
X104250724Y-100293802D01*
X104256752Y-100291118D01*
X104268584Y-100282522D01*
X104402397Y-100185300D01*
X104411253Y-100178866D01*
X104517648Y-100060702D01*
X104534621Y-100041852D01*
X104534622Y-100041851D01*
X104539040Y-100036944D01*
X104634527Y-99871556D01*
X104693542Y-99689928D01*
X104695362Y-99672617D01*
X104712814Y-99506565D01*
X104713504Y-99500000D01*
X107186496Y-99500000D01*
X107187186Y-99506565D01*
X107204639Y-99672617D01*
X107206458Y-99689928D01*
X107265473Y-99871556D01*
X107360960Y-100036944D01*
X107365378Y-100041851D01*
X107365379Y-100041852D01*
X107382352Y-100060702D01*
X107488747Y-100178866D01*
X107497603Y-100185300D01*
X107631417Y-100282522D01*
X107643248Y-100291118D01*
X107649276Y-100293802D01*
X107649278Y-100293803D01*
X107811681Y-100366109D01*
X107817712Y-100368794D01*
X107911113Y-100388647D01*
X107998056Y-100407128D01*
X107998061Y-100407128D01*
X108004513Y-100408500D01*
X108195487Y-100408500D01*
X108201939Y-100407128D01*
X108201944Y-100407128D01*
X108288887Y-100388647D01*
X108382288Y-100368794D01*
X108388319Y-100366109D01*
X108550722Y-100293803D01*
X108550724Y-100293802D01*
X108556752Y-100291118D01*
X108568584Y-100282522D01*
X108702397Y-100185300D01*
X108711253Y-100178866D01*
X108817648Y-100060702D01*
X108834621Y-100041852D01*
X108834622Y-100041851D01*
X108839040Y-100036944D01*
X108934527Y-99871556D01*
X108993542Y-99689928D01*
X108995362Y-99672617D01*
X109012814Y-99506565D01*
X109013504Y-99500000D01*
X109007952Y-99447173D01*
X108994232Y-99316635D01*
X108994232Y-99316633D01*
X108993542Y-99310072D01*
X108934527Y-99128444D01*
X108839040Y-98963056D01*
X108711253Y-98821134D01*
X108556752Y-98708882D01*
X108550724Y-98706198D01*
X108550722Y-98706197D01*
X108388319Y-98633891D01*
X108388318Y-98633891D01*
X108382288Y-98631206D01*
X108288888Y-98611353D01*
X108201944Y-98592872D01*
X108201939Y-98592872D01*
X108195487Y-98591500D01*
X108004513Y-98591500D01*
X107998061Y-98592872D01*
X107998056Y-98592872D01*
X107911112Y-98611353D01*
X107817712Y-98631206D01*
X107811682Y-98633891D01*
X107811681Y-98633891D01*
X107649278Y-98706197D01*
X107649276Y-98706198D01*
X107643248Y-98708882D01*
X107488747Y-98821134D01*
X107360960Y-98963056D01*
X107265473Y-99128444D01*
X107206458Y-99310072D01*
X107205768Y-99316633D01*
X107205768Y-99316635D01*
X107192048Y-99447173D01*
X107186496Y-99500000D01*
X104713504Y-99500000D01*
X104707952Y-99447173D01*
X104694232Y-99316635D01*
X104694232Y-99316633D01*
X104693542Y-99310072D01*
X104634527Y-99128444D01*
X104539040Y-98963056D01*
X104411253Y-98821134D01*
X104288857Y-98732207D01*
X104245503Y-98675986D01*
X104239428Y-98605250D01*
X104240219Y-98602239D01*
X104241501Y-98596211D01*
X104243542Y-98589928D01*
X104263504Y-98400000D01*
X104259948Y-98366165D01*
X104244233Y-98216642D01*
X104244232Y-98216638D01*
X104243542Y-98210072D01*
X104241501Y-98203791D01*
X104240128Y-98197332D01*
X104242743Y-98196776D01*
X104241061Y-98137684D01*
X104277730Y-98076890D01*
X104288857Y-98067792D01*
X104405909Y-97982749D01*
X104405911Y-97982747D01*
X104411253Y-97978866D01*
X104539040Y-97836944D01*
X104634527Y-97671556D01*
X104693542Y-97489928D01*
X104707356Y-97358500D01*
X104712814Y-97306565D01*
X104713504Y-97300000D01*
X104700051Y-97172004D01*
X104694232Y-97116635D01*
X104694232Y-97116633D01*
X104693542Y-97110072D01*
X104634527Y-96928444D01*
X104539040Y-96763056D01*
X104515793Y-96737237D01*
X104415675Y-96626045D01*
X104415674Y-96626044D01*
X104411253Y-96621134D01*
X104256752Y-96508882D01*
X104250724Y-96506198D01*
X104250722Y-96506197D01*
X104088319Y-96433891D01*
X104088318Y-96433891D01*
X104082288Y-96431206D01*
X103988887Y-96411353D01*
X103901944Y-96392872D01*
X103901939Y-96392872D01*
X103895487Y-96391500D01*
X103704513Y-96391500D01*
X103698061Y-96392872D01*
X103698056Y-96392872D01*
X103611113Y-96411353D01*
X103517712Y-96431206D01*
X103401248Y-96483059D01*
X103330882Y-96492493D01*
X103298754Y-96483060D01*
X103182288Y-96431206D01*
X103088887Y-96411353D01*
X103001944Y-96392872D01*
X103001939Y-96392872D01*
X102995487Y-96391500D01*
X102804513Y-96391500D01*
X102798061Y-96392872D01*
X102798056Y-96392872D01*
X102711113Y-96411353D01*
X102617712Y-96431206D01*
X102611682Y-96433891D01*
X102611681Y-96433891D01*
X102449278Y-96506197D01*
X102449276Y-96506198D01*
X102443248Y-96508882D01*
X102288747Y-96621134D01*
X102284326Y-96626044D01*
X102284325Y-96626045D01*
X102184208Y-96737237D01*
X102160960Y-96763056D01*
X102065473Y-96928444D01*
X102006458Y-97110072D01*
X102005768Y-97116633D01*
X102005768Y-97116635D01*
X101999949Y-97172004D01*
X101986496Y-97300000D01*
X101987186Y-97306565D01*
X101992645Y-97358500D01*
X102006458Y-97489928D01*
X102065473Y-97671556D01*
X102160960Y-97836944D01*
X102288747Y-97978866D01*
X102294089Y-97982747D01*
X102294091Y-97982749D01*
X102411143Y-98067792D01*
X102454497Y-98124014D01*
X102460572Y-98194750D01*
X102459781Y-98197761D01*
X102458499Y-98203789D01*
X102456458Y-98210072D01*
X102455768Y-98216638D01*
X102455767Y-98216642D01*
X102440052Y-98366165D01*
X102436496Y-98400000D01*
X102456458Y-98589928D01*
X102458499Y-98596209D01*
X102459872Y-98602668D01*
X102457257Y-98603224D01*
X102458939Y-98662316D01*
X102422270Y-98723110D01*
X102411146Y-98732206D01*
X102288747Y-98821134D01*
X102160960Y-98963056D01*
X102065473Y-99128444D01*
X102006458Y-99310072D01*
X102005768Y-99316633D01*
X102005768Y-99316635D01*
X101992048Y-99447173D01*
X101986496Y-99500000D01*
X70735819Y-99500000D01*
X70801206Y-99184259D01*
X70801208Y-99184249D01*
X70801810Y-99181340D01*
X70846839Y-98773480D01*
X70848371Y-98675986D01*
X70849722Y-98589928D01*
X70853284Y-98363193D01*
X70842763Y-98229504D01*
X70821321Y-97957067D01*
X70821089Y-97954119D01*
X70750540Y-97549892D01*
X70749756Y-97547025D01*
X70749753Y-97547013D01*
X70643047Y-97156961D01*
X70643044Y-97156951D01*
X70642263Y-97154097D01*
X70641219Y-97151333D01*
X70641215Y-97151322D01*
X70498267Y-96773022D01*
X70498266Y-96773019D01*
X70497219Y-96770249D01*
X70343547Y-96456565D01*
X70340331Y-96450000D01*
X89786496Y-96450000D01*
X89787186Y-96456565D01*
X89804483Y-96621134D01*
X89806458Y-96639928D01*
X89865473Y-96821556D01*
X89868776Y-96827278D01*
X89868777Y-96827279D01*
X89886803Y-96858500D01*
X89960960Y-96986944D01*
X89965378Y-96991851D01*
X89965379Y-96991852D01*
X90066172Y-97103794D01*
X90088747Y-97128866D01*
X90243248Y-97241118D01*
X90249276Y-97243802D01*
X90249278Y-97243803D01*
X90390245Y-97306565D01*
X90417712Y-97318794D01*
X90487712Y-97333673D01*
X90598056Y-97357128D01*
X90598061Y-97357128D01*
X90604513Y-97358500D01*
X90795487Y-97358500D01*
X90801939Y-97357128D01*
X90801944Y-97357128D01*
X90900150Y-97336253D01*
X90926347Y-97333500D01*
X96970543Y-97333500D01*
X96990255Y-97335051D01*
X97003507Y-97337150D01*
X97010094Y-97336805D01*
X97010098Y-97336805D01*
X97069850Y-97333673D01*
X97076445Y-97333500D01*
X97096306Y-97333500D01*
X97116069Y-97331423D01*
X97122628Y-97330907D01*
X97138427Y-97330079D01*
X97182377Y-97327776D01*
X97182381Y-97327775D01*
X97188971Y-97327430D01*
X97201929Y-97323958D01*
X97221372Y-97320355D01*
X97221795Y-97320311D01*
X97234702Y-97318954D01*
X97297894Y-97298422D01*
X97304196Y-97296556D01*
X97361985Y-97281071D01*
X97368363Y-97279362D01*
X97374242Y-97276366D01*
X97374251Y-97276363D01*
X97380317Y-97273272D01*
X97398579Y-97265708D01*
X97405043Y-97263608D01*
X97405051Y-97263605D01*
X97411331Y-97261564D01*
X97417050Y-97258262D01*
X97417055Y-97258260D01*
X97468867Y-97228346D01*
X97474637Y-97225213D01*
X97533839Y-97195047D01*
X97544259Y-97186609D01*
X97560552Y-97175411D01*
X97560903Y-97175209D01*
X97572169Y-97168704D01*
X97577075Y-97164287D01*
X97577080Y-97164283D01*
X97621538Y-97124253D01*
X97626554Y-97119969D01*
X97639409Y-97109559D01*
X97639412Y-97109556D01*
X97641986Y-97107472D01*
X97656031Y-97093427D01*
X97660816Y-97088886D01*
X97705276Y-97048854D01*
X97710185Y-97044434D01*
X97714066Y-97039093D01*
X97714070Y-97039088D01*
X97718075Y-97033576D01*
X97730915Y-97018543D01*
X97879053Y-96870405D01*
X97941365Y-96836379D01*
X97968148Y-96833500D01*
X98023653Y-96833500D01*
X98049850Y-96836253D01*
X98148056Y-96857128D01*
X98148061Y-96857128D01*
X98154513Y-96858500D01*
X98345487Y-96858500D01*
X98351939Y-96857128D01*
X98351944Y-96857128D01*
X98438887Y-96838647D01*
X98532288Y-96818794D01*
X98540201Y-96815271D01*
X98700722Y-96743803D01*
X98700724Y-96743802D01*
X98706752Y-96741118D01*
X98861253Y-96628866D01*
X98871711Y-96617251D01*
X98984621Y-96491852D01*
X98984622Y-96491851D01*
X98989040Y-96486944D01*
X99084527Y-96321556D01*
X99143542Y-96139928D01*
X99163504Y-95950000D01*
X99143542Y-95760072D01*
X99084527Y-95578444D01*
X99063990Y-95542872D01*
X99035051Y-95492749D01*
X98989040Y-95413056D01*
X98977294Y-95400010D01*
X98865675Y-95276045D01*
X98865674Y-95276044D01*
X98861253Y-95271134D01*
X98737960Y-95181556D01*
X98712094Y-95162763D01*
X98712093Y-95162762D01*
X98706752Y-95158882D01*
X98700724Y-95156198D01*
X98700722Y-95156197D01*
X98538319Y-95083891D01*
X98538318Y-95083891D01*
X98532288Y-95081206D01*
X98438887Y-95061353D01*
X98351944Y-95042872D01*
X98351939Y-95042872D01*
X98345487Y-95041500D01*
X98154513Y-95041500D01*
X98148061Y-95042872D01*
X98148056Y-95042872D01*
X98049850Y-95063747D01*
X98023653Y-95066500D01*
X97629457Y-95066500D01*
X97609745Y-95064949D01*
X97603008Y-95063882D01*
X97603009Y-95063882D01*
X97596493Y-95062850D01*
X97589906Y-95063195D01*
X97589902Y-95063195D01*
X97530150Y-95066327D01*
X97523555Y-95066500D01*
X97503694Y-95066500D01*
X97483931Y-95068577D01*
X97477372Y-95069093D01*
X97461573Y-95069921D01*
X97417623Y-95072224D01*
X97417619Y-95072225D01*
X97411029Y-95072570D01*
X97398071Y-95076042D01*
X97378628Y-95079645D01*
X97365298Y-95081046D01*
X97302106Y-95101578D01*
X97295804Y-95103444D01*
X97242328Y-95117773D01*
X97231637Y-95120638D01*
X97225758Y-95123634D01*
X97225749Y-95123637D01*
X97219683Y-95126728D01*
X97201421Y-95134292D01*
X97194957Y-95136392D01*
X97194949Y-95136395D01*
X97188669Y-95138436D01*
X97182950Y-95141738D01*
X97182945Y-95141740D01*
X97131133Y-95171654D01*
X97125363Y-95174787D01*
X97066161Y-95204953D01*
X97056309Y-95212931D01*
X97055742Y-95213390D01*
X97039446Y-95224590D01*
X97033546Y-95227996D01*
X97033543Y-95227998D01*
X97027831Y-95231296D01*
X97022926Y-95235712D01*
X97022921Y-95235716D01*
X96978453Y-95275754D01*
X96973443Y-95280034D01*
X96958015Y-95292528D01*
X96943979Y-95306564D01*
X96939194Y-95311105D01*
X96889815Y-95355566D01*
X96885932Y-95360910D01*
X96885927Y-95360916D01*
X96881926Y-95366423D01*
X96869085Y-95381458D01*
X96720948Y-95529595D01*
X96658636Y-95563621D01*
X96631853Y-95566500D01*
X90926347Y-95566500D01*
X90900150Y-95563747D01*
X90801944Y-95542872D01*
X90801939Y-95542872D01*
X90795487Y-95541500D01*
X90604513Y-95541500D01*
X90598061Y-95542872D01*
X90598056Y-95542872D01*
X90511112Y-95561353D01*
X90417712Y-95581206D01*
X90411682Y-95583891D01*
X90411681Y-95583891D01*
X90249278Y-95656197D01*
X90249276Y-95656198D01*
X90243248Y-95658882D01*
X90237907Y-95662762D01*
X90237906Y-95662763D01*
X90213953Y-95680166D01*
X90088747Y-95771134D01*
X89960960Y-95913056D01*
X89865473Y-96078444D01*
X89806458Y-96260072D01*
X89805768Y-96266633D01*
X89805768Y-96266635D01*
X89788471Y-96431206D01*
X89786496Y-96450000D01*
X70340331Y-96450000D01*
X70318008Y-96404434D01*
X70318007Y-96404433D01*
X70316695Y-96401754D01*
X70243864Y-96282904D01*
X70160095Y-96146206D01*
X70102294Y-96051884D01*
X69988144Y-95899850D01*
X69857704Y-95726120D01*
X69857701Y-95726116D01*
X69855919Y-95723743D01*
X69763355Y-95622016D01*
X69581746Y-95422431D01*
X69579756Y-95420244D01*
X69571857Y-95413056D01*
X69278455Y-95146081D01*
X69276257Y-95144081D01*
X69266017Y-95136392D01*
X68950500Y-94899496D01*
X68950501Y-94899496D01*
X68948116Y-94897706D01*
X68804993Y-94810000D01*
X118126496Y-94810000D01*
X118146458Y-94999928D01*
X118205473Y-95181556D01*
X118300960Y-95346944D01*
X118305378Y-95351851D01*
X118305379Y-95351852D01*
X118380654Y-95435453D01*
X118428747Y-95488866D01*
X118500577Y-95541054D01*
X118560691Y-95584729D01*
X118583248Y-95601118D01*
X118589276Y-95603802D01*
X118589278Y-95603803D01*
X118722862Y-95663278D01*
X118757712Y-95678794D01*
X118851113Y-95698647D01*
X118938056Y-95717128D01*
X118938061Y-95717128D01*
X118944513Y-95718500D01*
X119135487Y-95718500D01*
X119141939Y-95717128D01*
X119141944Y-95717128D01*
X119228887Y-95698647D01*
X119322288Y-95678794D01*
X119357138Y-95663278D01*
X119490722Y-95603803D01*
X119490724Y-95603802D01*
X119496752Y-95601118D01*
X119519310Y-95584729D01*
X119629671Y-95504546D01*
X119651253Y-95488866D01*
X119663568Y-95475189D01*
X119724015Y-95437950D01*
X119757204Y-95433500D01*
X121671233Y-95433500D01*
X121682416Y-95434027D01*
X121689909Y-95435702D01*
X121697835Y-95435453D01*
X121697836Y-95435453D01*
X121757986Y-95433562D01*
X121761945Y-95433500D01*
X121789856Y-95433500D01*
X121793791Y-95433003D01*
X121793856Y-95432995D01*
X121805693Y-95432062D01*
X121837951Y-95431048D01*
X121841970Y-95430922D01*
X121849889Y-95430673D01*
X121869343Y-95425021D01*
X121888700Y-95421013D01*
X121900930Y-95419468D01*
X121900931Y-95419468D01*
X121908797Y-95418474D01*
X121916168Y-95415555D01*
X121916170Y-95415555D01*
X121949912Y-95402196D01*
X121961142Y-95398351D01*
X121995983Y-95388229D01*
X121995984Y-95388229D01*
X122003593Y-95386018D01*
X122010412Y-95381985D01*
X122010417Y-95381983D01*
X122021028Y-95375707D01*
X122038776Y-95367012D01*
X122057617Y-95359552D01*
X122093387Y-95333564D01*
X122103307Y-95327048D01*
X122134535Y-95308580D01*
X122134538Y-95308578D01*
X122141362Y-95304542D01*
X122155683Y-95290221D01*
X122170717Y-95277380D01*
X122187107Y-95265472D01*
X122192158Y-95259367D01*
X122192163Y-95259362D01*
X122215299Y-95231396D01*
X122223287Y-95222618D01*
X122775500Y-94670405D01*
X122837812Y-94636379D01*
X122864595Y-94633500D01*
X123891800Y-94633500D01*
X123959921Y-94653502D01*
X123979147Y-94669843D01*
X123979420Y-94669540D01*
X123984332Y-94673963D01*
X123988747Y-94678866D01*
X124143248Y-94791118D01*
X124149276Y-94793802D01*
X124149278Y-94793803D01*
X124217749Y-94824288D01*
X124317712Y-94868794D01*
X124411112Y-94888647D01*
X124498056Y-94907128D01*
X124498061Y-94907128D01*
X124504513Y-94908500D01*
X124695487Y-94908500D01*
X124701939Y-94907128D01*
X124701944Y-94907128D01*
X124788887Y-94888647D01*
X124882288Y-94868794D01*
X124982251Y-94824288D01*
X125050722Y-94793803D01*
X125050724Y-94793802D01*
X125056752Y-94791118D01*
X125211253Y-94678866D01*
X125234091Y-94653502D01*
X125334621Y-94541852D01*
X125334622Y-94541851D01*
X125339040Y-94536944D01*
X125434527Y-94371556D01*
X125493542Y-94189928D01*
X125494647Y-94179420D01*
X125512814Y-94006565D01*
X125513504Y-94000000D01*
X125493542Y-93810072D01*
X125434527Y-93628444D01*
X125339040Y-93463056D01*
X125322882Y-93445110D01*
X125215675Y-93326045D01*
X125215674Y-93326044D01*
X125211253Y-93321134D01*
X125056752Y-93208882D01*
X125050724Y-93206198D01*
X125050722Y-93206197D01*
X124888319Y-93133891D01*
X124888318Y-93133891D01*
X124882288Y-93131206D01*
X124788888Y-93111353D01*
X124701944Y-93092872D01*
X124701939Y-93092872D01*
X124695487Y-93091500D01*
X124504513Y-93091500D01*
X124498061Y-93092872D01*
X124498056Y-93092872D01*
X124411112Y-93111353D01*
X124317712Y-93131206D01*
X124311682Y-93133891D01*
X124311681Y-93133891D01*
X124149278Y-93206197D01*
X124149276Y-93206198D01*
X124143248Y-93208882D01*
X123988747Y-93321134D01*
X123984332Y-93326037D01*
X123979420Y-93330460D01*
X123978295Y-93329211D01*
X123924986Y-93362051D01*
X123891800Y-93366500D01*
X122628767Y-93366500D01*
X122617584Y-93365973D01*
X122610091Y-93364298D01*
X122602165Y-93364547D01*
X122602164Y-93364547D01*
X122542001Y-93366438D01*
X122538043Y-93366500D01*
X122510144Y-93366500D01*
X122506154Y-93367004D01*
X122494320Y-93367936D01*
X122450111Y-93369326D01*
X122442497Y-93371538D01*
X122442492Y-93371539D01*
X122430659Y-93374977D01*
X122411296Y-93378988D01*
X122391203Y-93381526D01*
X122383836Y-93384443D01*
X122383831Y-93384444D01*
X122350092Y-93397802D01*
X122338865Y-93401646D01*
X122296407Y-93413982D01*
X122289581Y-93418019D01*
X122278972Y-93424293D01*
X122261224Y-93432988D01*
X122242383Y-93440448D01*
X122235967Y-93445110D01*
X122235966Y-93445110D01*
X122206613Y-93466436D01*
X122196693Y-93472952D01*
X122165465Y-93491420D01*
X122165462Y-93491422D01*
X122158638Y-93495458D01*
X122144317Y-93509779D01*
X122129284Y-93522619D01*
X122112893Y-93534528D01*
X122107842Y-93540633D01*
X122107837Y-93540638D01*
X122084701Y-93568604D01*
X122076713Y-93577382D01*
X121524500Y-94129595D01*
X121462188Y-94163621D01*
X121435405Y-94166500D01*
X119737866Y-94166500D01*
X119669745Y-94146498D01*
X119654838Y-94135116D01*
X119651253Y-94131134D01*
X119496752Y-94018882D01*
X119490724Y-94016198D01*
X119490722Y-94016197D01*
X119328319Y-93943891D01*
X119328318Y-93943891D01*
X119322288Y-93941206D01*
X119228888Y-93921353D01*
X119141944Y-93902872D01*
X119141939Y-93902872D01*
X119135487Y-93901500D01*
X118944513Y-93901500D01*
X118938061Y-93902872D01*
X118938056Y-93902872D01*
X118851112Y-93921353D01*
X118757712Y-93941206D01*
X118751682Y-93943891D01*
X118751681Y-93943891D01*
X118589278Y-94016197D01*
X118589276Y-94016198D01*
X118583248Y-94018882D01*
X118428747Y-94131134D01*
X118424326Y-94136044D01*
X118424325Y-94136045D01*
X118399496Y-94163621D01*
X118300960Y-94273056D01*
X118205473Y-94438444D01*
X118146458Y-94620072D01*
X118145768Y-94626633D01*
X118145768Y-94626635D01*
X118139950Y-94681992D01*
X118126496Y-94810000D01*
X68804993Y-94810000D01*
X68598246Y-94683305D01*
X68496582Y-94633500D01*
X68232419Y-94504088D01*
X68232418Y-94504088D01*
X68229751Y-94502781D01*
X68226978Y-94501733D01*
X67848678Y-94358785D01*
X67848667Y-94358781D01*
X67845903Y-94357737D01*
X67843049Y-94356956D01*
X67843039Y-94356953D01*
X67452987Y-94250247D01*
X67452975Y-94250244D01*
X67450108Y-94249460D01*
X67045881Y-94178911D01*
X67029558Y-94177626D01*
X66674638Y-94149693D01*
X66674629Y-94149693D01*
X66672181Y-94149500D01*
X66395398Y-94149500D01*
X66393917Y-94149570D01*
X66393910Y-94149570D01*
X66175023Y-94159893D01*
X66090118Y-94163897D01*
X65907214Y-94189928D01*
X65686809Y-94221296D01*
X65686806Y-94221297D01*
X65683873Y-94221714D01*
X65680998Y-94222404D01*
X65680994Y-94222405D01*
X65287754Y-94316813D01*
X65287747Y-94316815D01*
X65284873Y-94317505D01*
X64896658Y-94450421D01*
X64522675Y-94619281D01*
X64520104Y-94620747D01*
X64520099Y-94620750D01*
X64407704Y-94684859D01*
X64166242Y-94822586D01*
X63830524Y-95058533D01*
X63828267Y-95060461D01*
X63828264Y-95060463D01*
X63615224Y-95242417D01*
X63518501Y-95325026D01*
X63516449Y-95327143D01*
X63516441Y-95327151D01*
X63278467Y-95572721D01*
X63232941Y-95619700D01*
X63231087Y-95622015D01*
X63229125Y-95624240D01*
X63227940Y-95623195D01*
X63174825Y-95660427D01*
X63103885Y-95663278D01*
X63042666Y-95627324D01*
X63010603Y-95563980D01*
X63008500Y-95541054D01*
X63008500Y-91750000D01*
X92536496Y-91750000D01*
X92556458Y-91939928D01*
X92615473Y-92121556D01*
X92710960Y-92286944D01*
X92838747Y-92428866D01*
X92993248Y-92541118D01*
X92999276Y-92543802D01*
X92999278Y-92543803D01*
X93161681Y-92616109D01*
X93167712Y-92618794D01*
X93261113Y-92638647D01*
X93348056Y-92657128D01*
X93348061Y-92657128D01*
X93354513Y-92658500D01*
X93545487Y-92658500D01*
X93551939Y-92657128D01*
X93551944Y-92657128D01*
X93638887Y-92638647D01*
X93732288Y-92618794D01*
X93738319Y-92616109D01*
X93900722Y-92543803D01*
X93900724Y-92543802D01*
X93906752Y-92541118D01*
X94021754Y-92457564D01*
X94088622Y-92433705D01*
X94095815Y-92433500D01*
X99954185Y-92433500D01*
X100022306Y-92453502D01*
X100028246Y-92457564D01*
X100143248Y-92541118D01*
X100149276Y-92543802D01*
X100149278Y-92543803D01*
X100311681Y-92616109D01*
X100317712Y-92618794D01*
X100411113Y-92638647D01*
X100498056Y-92657128D01*
X100498061Y-92657128D01*
X100504513Y-92658500D01*
X100695487Y-92658500D01*
X100701939Y-92657128D01*
X100701944Y-92657128D01*
X100788887Y-92638647D01*
X100882288Y-92618794D01*
X100888319Y-92616109D01*
X101050722Y-92543803D01*
X101050724Y-92543802D01*
X101056752Y-92541118D01*
X101211253Y-92428866D01*
X101339040Y-92286944D01*
X101434527Y-92121556D01*
X101493542Y-91939928D01*
X101513504Y-91750000D01*
X101493542Y-91560072D01*
X101434527Y-91378444D01*
X101339040Y-91213056D01*
X101211253Y-91071134D01*
X101056752Y-90958882D01*
X101050724Y-90956198D01*
X101050722Y-90956197D01*
X100888319Y-90883891D01*
X100888318Y-90883891D01*
X100882288Y-90881206D01*
X100788887Y-90861353D01*
X100701944Y-90842872D01*
X100701939Y-90842872D01*
X100695487Y-90841500D01*
X100504513Y-90841500D01*
X100498061Y-90842872D01*
X100498056Y-90842872D01*
X100411113Y-90861353D01*
X100317712Y-90881206D01*
X100311682Y-90883891D01*
X100311681Y-90883891D01*
X100149278Y-90956197D01*
X100149276Y-90956198D01*
X100143248Y-90958882D01*
X100137907Y-90962762D01*
X100137906Y-90962763D01*
X100028246Y-91042436D01*
X99961378Y-91066295D01*
X99954185Y-91066500D01*
X94095815Y-91066500D01*
X94027694Y-91046498D01*
X94021754Y-91042436D01*
X93912094Y-90962763D01*
X93912093Y-90962762D01*
X93906752Y-90958882D01*
X93900724Y-90956198D01*
X93900722Y-90956197D01*
X93738319Y-90883891D01*
X93738318Y-90883891D01*
X93732288Y-90881206D01*
X93638887Y-90861353D01*
X93551944Y-90842872D01*
X93551939Y-90842872D01*
X93545487Y-90841500D01*
X93354513Y-90841500D01*
X93348061Y-90842872D01*
X93348056Y-90842872D01*
X93261113Y-90861353D01*
X93167712Y-90881206D01*
X93161682Y-90883891D01*
X93161681Y-90883891D01*
X92999278Y-90956197D01*
X92999276Y-90956198D01*
X92993248Y-90958882D01*
X92838747Y-91071134D01*
X92710960Y-91213056D01*
X92615473Y-91378444D01*
X92556458Y-91560072D01*
X92536496Y-91750000D01*
X63008500Y-91750000D01*
X63008500Y-90038888D01*
X63028502Y-89970767D01*
X63082158Y-89924274D01*
X63152432Y-89914170D01*
X63217012Y-89943664D01*
X63223595Y-89949793D01*
X63849996Y-90576194D01*
X63890877Y-90612917D01*
X63911851Y-90629820D01*
X63913224Y-90630810D01*
X63951430Y-90658362D01*
X63951435Y-90658365D01*
X63956451Y-90661982D01*
X64089400Y-90722698D01*
X64113154Y-90729673D01*
X64153198Y-90741431D01*
X64153202Y-90741432D01*
X64157521Y-90742700D01*
X64161970Y-90743340D01*
X64161976Y-90743341D01*
X64297743Y-90762861D01*
X64297748Y-90762861D01*
X64302190Y-90763500D01*
X69197810Y-90763500D01*
X69224385Y-90762076D01*
X69250999Y-90760650D01*
X69251009Y-90760649D01*
X69252692Y-90760559D01*
X69279475Y-90757680D01*
X69281132Y-90757412D01*
X69281143Y-90757410D01*
X69327640Y-90749875D01*
X69327645Y-90749874D01*
X69333752Y-90748884D01*
X69339549Y-90746722D01*
X69339552Y-90746721D01*
X69466479Y-90699378D01*
X69466481Y-90699377D01*
X69470693Y-90697806D01*
X69533005Y-90663780D01*
X69577047Y-90630810D01*
X69646402Y-90578891D01*
X69646406Y-90578887D01*
X69650004Y-90576194D01*
X70576194Y-89650004D01*
X70612917Y-89609123D01*
X70629820Y-89588149D01*
X70634034Y-89582306D01*
X70658362Y-89548570D01*
X70658365Y-89548565D01*
X70661982Y-89543549D01*
X70722698Y-89410600D01*
X70742700Y-89342479D01*
X70748021Y-89305475D01*
X70762861Y-89202257D01*
X70762861Y-89202252D01*
X70763500Y-89197810D01*
X70763500Y-87700000D01*
X88736496Y-87700000D01*
X88737186Y-87706565D01*
X88749135Y-87820249D01*
X88756458Y-87889928D01*
X88815473Y-88071556D01*
X88910960Y-88236944D01*
X88915378Y-88241851D01*
X88915379Y-88241852D01*
X88997452Y-88333003D01*
X89038747Y-88378866D01*
X89193248Y-88491118D01*
X89199276Y-88493802D01*
X89199278Y-88493803D01*
X89229636Y-88507319D01*
X89367712Y-88568794D01*
X89461112Y-88588647D01*
X89548056Y-88607128D01*
X89548061Y-88607128D01*
X89554513Y-88608500D01*
X89745487Y-88608500D01*
X89751939Y-88607128D01*
X89751944Y-88607128D01*
X89838888Y-88588647D01*
X89932288Y-88568794D01*
X90070364Y-88507319D01*
X90100722Y-88493803D01*
X90100724Y-88493802D01*
X90106752Y-88491118D01*
X90261253Y-88378866D01*
X90265668Y-88373963D01*
X90270580Y-88369540D01*
X90271705Y-88370789D01*
X90325014Y-88337949D01*
X90358200Y-88333500D01*
X98971233Y-88333500D01*
X98982416Y-88334027D01*
X98989909Y-88335702D01*
X98997835Y-88335453D01*
X98997836Y-88335453D01*
X99057986Y-88333562D01*
X99061945Y-88333500D01*
X99089856Y-88333500D01*
X99093791Y-88333003D01*
X99093856Y-88332995D01*
X99105693Y-88332062D01*
X99137951Y-88331048D01*
X99141970Y-88330922D01*
X99149889Y-88330673D01*
X99169343Y-88325021D01*
X99188700Y-88321013D01*
X99200930Y-88319468D01*
X99200931Y-88319468D01*
X99208797Y-88318474D01*
X99216168Y-88315555D01*
X99216170Y-88315555D01*
X99249912Y-88302196D01*
X99261142Y-88298351D01*
X99295983Y-88288229D01*
X99295984Y-88288229D01*
X99303593Y-88286018D01*
X99310412Y-88281985D01*
X99310417Y-88281983D01*
X99321028Y-88275707D01*
X99338776Y-88267012D01*
X99357617Y-88259552D01*
X99393387Y-88233564D01*
X99403307Y-88227048D01*
X99434535Y-88208580D01*
X99434538Y-88208578D01*
X99441362Y-88204542D01*
X99455683Y-88190221D01*
X99470717Y-88177380D01*
X99480694Y-88170131D01*
X99487107Y-88165472D01*
X99515298Y-88131395D01*
X99523288Y-88122616D01*
X99825499Y-87820405D01*
X99887811Y-87786379D01*
X99914594Y-87783500D01*
X100241800Y-87783500D01*
X100309921Y-87803502D01*
X100329147Y-87819843D01*
X100329420Y-87819540D01*
X100334332Y-87823963D01*
X100338747Y-87828866D01*
X100360329Y-87844546D01*
X100470702Y-87924737D01*
X100493248Y-87941118D01*
X100499276Y-87943802D01*
X100499278Y-87943803D01*
X100639636Y-88006294D01*
X100667712Y-88018794D01*
X100761112Y-88038647D01*
X100848056Y-88057128D01*
X100848061Y-88057128D01*
X100854513Y-88058500D01*
X101045487Y-88058500D01*
X101051939Y-88057128D01*
X101051944Y-88057128D01*
X101138888Y-88038647D01*
X101232288Y-88018794D01*
X101260364Y-88006294D01*
X101400722Y-87943803D01*
X101400724Y-87943802D01*
X101406752Y-87941118D01*
X101429299Y-87924737D01*
X101486242Y-87883365D01*
X101561253Y-87828866D01*
X101584091Y-87803502D01*
X101684621Y-87691852D01*
X101684622Y-87691851D01*
X101689040Y-87686944D01*
X101784527Y-87521556D01*
X101843542Y-87339928D01*
X101846046Y-87316109D01*
X101862814Y-87156565D01*
X101863504Y-87150000D01*
X101862190Y-87137500D01*
X106273996Y-87137500D01*
X106274686Y-87144065D01*
X106293051Y-87318794D01*
X106293958Y-87327428D01*
X106352973Y-87509056D01*
X106448460Y-87674444D01*
X106452878Y-87679351D01*
X106452879Y-87679352D01*
X106564664Y-87803502D01*
X106576247Y-87816366D01*
X106668463Y-87883365D01*
X106719224Y-87920245D01*
X106730748Y-87928618D01*
X106736776Y-87931302D01*
X106736778Y-87931303D01*
X106899181Y-88003609D01*
X106905212Y-88006294D01*
X106998612Y-88026147D01*
X107085556Y-88044628D01*
X107085561Y-88044628D01*
X107092013Y-88046000D01*
X107282987Y-88046000D01*
X107289439Y-88044628D01*
X107289444Y-88044628D01*
X107376388Y-88026147D01*
X107469788Y-88006294D01*
X107475819Y-88003609D01*
X107638222Y-87931303D01*
X107638224Y-87931302D01*
X107644252Y-87928618D01*
X107655777Y-87920245D01*
X107706537Y-87883365D01*
X107798753Y-87816366D01*
X107810336Y-87803502D01*
X107922121Y-87679352D01*
X107922122Y-87679351D01*
X107926540Y-87674444D01*
X108022027Y-87509056D01*
X108081042Y-87327428D01*
X108081950Y-87318794D01*
X108100314Y-87144065D01*
X108101004Y-87137500D01*
X108093239Y-87063621D01*
X108081732Y-86954135D01*
X108081732Y-86954133D01*
X108081042Y-86947572D01*
X108022027Y-86765944D01*
X107926540Y-86600556D01*
X107921637Y-86595110D01*
X107803175Y-86463545D01*
X107803174Y-86463544D01*
X107798753Y-86458634D01*
X107699657Y-86386636D01*
X107649594Y-86350263D01*
X107649593Y-86350262D01*
X107644252Y-86346382D01*
X107638224Y-86343698D01*
X107638222Y-86343697D01*
X107475819Y-86271391D01*
X107475818Y-86271391D01*
X107469788Y-86268706D01*
X107376387Y-86248853D01*
X107289444Y-86230372D01*
X107289439Y-86230372D01*
X107282987Y-86229000D01*
X107092013Y-86229000D01*
X107085561Y-86230372D01*
X107085556Y-86230372D01*
X106998613Y-86248853D01*
X106905212Y-86268706D01*
X106899182Y-86271391D01*
X106899181Y-86271391D01*
X106736778Y-86343697D01*
X106736776Y-86343698D01*
X106730748Y-86346382D01*
X106725407Y-86350262D01*
X106725406Y-86350263D01*
X106675343Y-86386636D01*
X106576247Y-86458634D01*
X106571826Y-86463544D01*
X106571825Y-86463545D01*
X106453364Y-86595110D01*
X106448460Y-86600556D01*
X106352973Y-86765944D01*
X106293958Y-86947572D01*
X106293268Y-86954133D01*
X106293268Y-86954135D01*
X106281761Y-87063621D01*
X106273996Y-87137500D01*
X101862190Y-87137500D01*
X101846882Y-86991852D01*
X101844232Y-86966635D01*
X101844232Y-86966633D01*
X101843542Y-86960072D01*
X101784527Y-86778444D01*
X101689040Y-86613056D01*
X101682934Y-86606274D01*
X101565675Y-86476045D01*
X101565674Y-86476044D01*
X101561253Y-86471134D01*
X101406752Y-86358882D01*
X101400724Y-86356198D01*
X101400722Y-86356197D01*
X101238319Y-86283891D01*
X101238318Y-86283891D01*
X101232288Y-86281206D01*
X101132861Y-86260072D01*
X101051944Y-86242872D01*
X101051939Y-86242872D01*
X101045487Y-86241500D01*
X100854513Y-86241500D01*
X100848061Y-86242872D01*
X100848056Y-86242872D01*
X100767139Y-86260072D01*
X100667712Y-86281206D01*
X100661682Y-86283891D01*
X100661681Y-86283891D01*
X100499278Y-86356197D01*
X100499276Y-86356198D01*
X100493248Y-86358882D01*
X100487907Y-86362762D01*
X100487906Y-86362763D01*
X100376871Y-86443435D01*
X100338747Y-86471134D01*
X100334332Y-86476037D01*
X100329420Y-86480460D01*
X100328295Y-86479211D01*
X100274986Y-86512051D01*
X100241800Y-86516500D01*
X99678763Y-86516500D01*
X99667579Y-86515973D01*
X99660091Y-86514299D01*
X99652168Y-86514548D01*
X99592033Y-86516438D01*
X99588075Y-86516500D01*
X99560144Y-86516500D01*
X99556229Y-86516995D01*
X99556225Y-86516995D01*
X99556167Y-86517003D01*
X99556138Y-86517006D01*
X99544296Y-86517939D01*
X99500110Y-86519327D01*
X99482744Y-86524372D01*
X99480658Y-86524978D01*
X99461306Y-86528986D01*
X99449068Y-86530532D01*
X99449066Y-86530533D01*
X99441203Y-86531526D01*
X99400086Y-86547806D01*
X99388885Y-86551641D01*
X99346406Y-86563982D01*
X99339587Y-86568015D01*
X99339582Y-86568017D01*
X99328971Y-86574293D01*
X99311221Y-86582990D01*
X99292383Y-86590448D01*
X99285967Y-86595109D01*
X99285966Y-86595110D01*
X99256625Y-86616428D01*
X99246701Y-86622947D01*
X99215460Y-86641422D01*
X99215455Y-86641426D01*
X99208637Y-86645458D01*
X99194313Y-86659782D01*
X99179281Y-86672621D01*
X99162893Y-86684528D01*
X99134712Y-86718593D01*
X99126722Y-86727373D01*
X98824500Y-87029595D01*
X98762188Y-87063621D01*
X98735405Y-87066500D01*
X90358200Y-87066500D01*
X90290079Y-87046498D01*
X90270853Y-87030157D01*
X90270580Y-87030460D01*
X90265668Y-87026037D01*
X90261253Y-87021134D01*
X90106752Y-86908882D01*
X90100724Y-86906198D01*
X90100722Y-86906197D01*
X89938319Y-86833891D01*
X89938318Y-86833891D01*
X89932288Y-86831206D01*
X89838887Y-86811353D01*
X89751944Y-86792872D01*
X89751939Y-86792872D01*
X89745487Y-86791500D01*
X89554513Y-86791500D01*
X89548061Y-86792872D01*
X89548056Y-86792872D01*
X89461113Y-86811353D01*
X89367712Y-86831206D01*
X89361682Y-86833891D01*
X89361681Y-86833891D01*
X89199278Y-86906197D01*
X89199276Y-86906198D01*
X89193248Y-86908882D01*
X89038747Y-87021134D01*
X89034326Y-87026044D01*
X89034325Y-87026045D01*
X88916805Y-87156565D01*
X88910960Y-87163056D01*
X88865891Y-87241118D01*
X88822595Y-87316109D01*
X88815473Y-87328444D01*
X88756458Y-87510072D01*
X88736496Y-87700000D01*
X70763500Y-87700000D01*
X70763500Y-83514888D01*
X70783502Y-83446767D01*
X70800405Y-83425793D01*
X71675793Y-82550405D01*
X71738105Y-82516379D01*
X71764888Y-82513500D01*
X74257825Y-82513500D01*
X74325946Y-82533502D01*
X74372439Y-82587158D01*
X74382543Y-82657432D01*
X74353049Y-82722012D01*
X74322531Y-82747616D01*
X74147521Y-82852357D01*
X74147517Y-82852360D01*
X74143839Y-82854561D01*
X73919472Y-83034313D01*
X73721577Y-83242851D01*
X73553814Y-83476317D01*
X73419288Y-83730392D01*
X73417813Y-83734423D01*
X73326521Y-83983891D01*
X73320489Y-84000373D01*
X73259245Y-84281264D01*
X73258909Y-84285534D01*
X73237112Y-84562500D01*
X73236689Y-84567869D01*
X73253238Y-84854883D01*
X73254063Y-84859088D01*
X73254064Y-84859096D01*
X73268771Y-84934056D01*
X73308586Y-85136995D01*
X73309973Y-85141045D01*
X73309974Y-85141050D01*
X73399932Y-85403794D01*
X73401710Y-85408986D01*
X73412930Y-85431294D01*
X73527395Y-85658882D01*
X73530885Y-85665822D01*
X73693721Y-85902750D01*
X73696608Y-85905923D01*
X73696609Y-85905924D01*
X73864306Y-86090221D01*
X73887206Y-86115388D01*
X73890501Y-86118143D01*
X73890502Y-86118144D01*
X74087369Y-86282749D01*
X74107759Y-86299798D01*
X74351298Y-86452571D01*
X74613318Y-86570877D01*
X74654224Y-86582994D01*
X74884857Y-86651311D01*
X74884862Y-86651312D01*
X74888970Y-86652529D01*
X74893204Y-86653177D01*
X74893209Y-86653178D01*
X75141811Y-86691219D01*
X75173153Y-86696015D01*
X75319485Y-86698314D01*
X75456317Y-86700464D01*
X75456323Y-86700464D01*
X75460608Y-86700531D01*
X75464860Y-86700016D01*
X75464868Y-86700016D01*
X75741756Y-86666508D01*
X75741761Y-86666507D01*
X75746017Y-86665992D01*
X75966505Y-86608148D01*
X76019954Y-86594126D01*
X76019955Y-86594126D01*
X76024097Y-86593039D01*
X76289704Y-86483021D01*
X76516892Y-86350263D01*
X76534219Y-86340138D01*
X76534220Y-86340137D01*
X76537922Y-86337974D01*
X76764159Y-86160582D01*
X76785172Y-86138899D01*
X76941792Y-85977279D01*
X76964227Y-85954128D01*
X76966760Y-85950680D01*
X76966764Y-85950675D01*
X77131887Y-85725886D01*
X77134425Y-85722431D01*
X77177117Y-85643803D01*
X77200900Y-85600000D01*
X88786496Y-85600000D01*
X88787186Y-85606565D01*
X88804483Y-85771134D01*
X88806458Y-85789928D01*
X88865473Y-85971556D01*
X88960960Y-86136944D01*
X88965378Y-86141851D01*
X88965379Y-86141852D01*
X89079599Y-86268706D01*
X89088747Y-86278866D01*
X89243248Y-86391118D01*
X89249276Y-86393802D01*
X89249278Y-86393803D01*
X89390245Y-86456565D01*
X89417712Y-86468794D01*
X89511113Y-86488647D01*
X89598056Y-86507128D01*
X89598061Y-86507128D01*
X89604513Y-86508500D01*
X89795487Y-86508500D01*
X89801939Y-86507128D01*
X89801944Y-86507128D01*
X89888887Y-86488647D01*
X89982288Y-86468794D01*
X90009755Y-86456565D01*
X90150722Y-86393803D01*
X90150724Y-86393802D01*
X90156752Y-86391118D01*
X90204817Y-86356197D01*
X90304337Y-86283891D01*
X90311253Y-86278866D01*
X90315668Y-86273963D01*
X90320580Y-86269540D01*
X90321705Y-86270789D01*
X90375014Y-86237949D01*
X90408200Y-86233500D01*
X97421233Y-86233500D01*
X97432416Y-86234027D01*
X97439909Y-86235702D01*
X97447835Y-86235453D01*
X97447836Y-86235453D01*
X97507986Y-86233562D01*
X97511945Y-86233500D01*
X97539856Y-86233500D01*
X97543791Y-86233003D01*
X97543856Y-86232995D01*
X97555693Y-86232062D01*
X97587951Y-86231048D01*
X97591970Y-86230922D01*
X97599889Y-86230673D01*
X97619343Y-86225021D01*
X97638700Y-86221013D01*
X97650930Y-86219468D01*
X97650931Y-86219468D01*
X97658797Y-86218474D01*
X97666168Y-86215555D01*
X97666170Y-86215555D01*
X97699912Y-86202196D01*
X97711142Y-86198351D01*
X97745983Y-86188229D01*
X97745984Y-86188229D01*
X97753593Y-86186018D01*
X97760412Y-86181985D01*
X97760417Y-86181983D01*
X97771028Y-86175707D01*
X97788776Y-86167012D01*
X97807617Y-86159552D01*
X97843387Y-86133564D01*
X97853307Y-86127048D01*
X97884535Y-86108580D01*
X97884538Y-86108578D01*
X97891362Y-86104542D01*
X97905683Y-86090221D01*
X97920717Y-86077380D01*
X97937107Y-86065472D01*
X97965298Y-86031395D01*
X97973288Y-86022616D01*
X98475499Y-85520405D01*
X98537811Y-85486379D01*
X98564594Y-85483500D01*
X100241800Y-85483500D01*
X100309921Y-85503502D01*
X100329147Y-85519843D01*
X100329420Y-85519540D01*
X100334332Y-85523963D01*
X100338747Y-85528866D01*
X100352174Y-85538621D01*
X100438276Y-85601178D01*
X100493248Y-85641118D01*
X100499276Y-85643802D01*
X100499278Y-85643803D01*
X100661681Y-85716109D01*
X100667712Y-85718794D01*
X100761113Y-85738647D01*
X100848056Y-85757128D01*
X100848061Y-85757128D01*
X100854513Y-85758500D01*
X101045487Y-85758500D01*
X101051939Y-85757128D01*
X101051944Y-85757128D01*
X101138887Y-85738647D01*
X101232288Y-85718794D01*
X101238319Y-85716109D01*
X101400722Y-85643803D01*
X101400724Y-85643802D01*
X101406752Y-85641118D01*
X101561253Y-85528866D01*
X101584091Y-85503502D01*
X101684621Y-85391852D01*
X101684622Y-85391851D01*
X101689040Y-85386944D01*
X101784527Y-85221556D01*
X101843542Y-85039928D01*
X101854670Y-84934056D01*
X101862814Y-84856565D01*
X101863504Y-84850000D01*
X101851301Y-84733891D01*
X101844232Y-84666635D01*
X101844232Y-84666633D01*
X101843542Y-84660072D01*
X101784527Y-84478444D01*
X101689040Y-84313056D01*
X101672881Y-84295109D01*
X101565675Y-84176045D01*
X101565674Y-84176044D01*
X101561253Y-84171134D01*
X101406752Y-84058882D01*
X101400724Y-84056198D01*
X101400722Y-84056197D01*
X101238319Y-83983891D01*
X101238318Y-83983891D01*
X101232288Y-83981206D01*
X101138887Y-83961353D01*
X101051944Y-83942872D01*
X101051939Y-83942872D01*
X101045487Y-83941500D01*
X100854513Y-83941500D01*
X100848061Y-83942872D01*
X100848056Y-83942872D01*
X100761113Y-83961353D01*
X100667712Y-83981206D01*
X100661682Y-83983891D01*
X100661681Y-83983891D01*
X100499278Y-84056197D01*
X100499276Y-84056198D01*
X100493248Y-84058882D01*
X100338747Y-84171134D01*
X100334332Y-84176037D01*
X100329420Y-84180460D01*
X100328295Y-84179211D01*
X100274986Y-84212051D01*
X100241800Y-84216500D01*
X98328767Y-84216500D01*
X98317584Y-84215973D01*
X98310091Y-84214298D01*
X98302165Y-84214547D01*
X98302164Y-84214547D01*
X98242014Y-84216438D01*
X98238055Y-84216500D01*
X98210144Y-84216500D01*
X98206210Y-84216997D01*
X98206209Y-84216997D01*
X98206144Y-84217005D01*
X98194307Y-84217938D01*
X98162490Y-84218938D01*
X98158029Y-84219078D01*
X98150110Y-84219327D01*
X98132454Y-84224456D01*
X98130658Y-84224978D01*
X98111306Y-84228986D01*
X98104235Y-84229880D01*
X98091203Y-84231526D01*
X98083834Y-84234443D01*
X98083832Y-84234444D01*
X98050097Y-84247800D01*
X98038869Y-84251645D01*
X97996407Y-84263982D01*
X97989585Y-84268016D01*
X97989579Y-84268019D01*
X97978968Y-84274294D01*
X97961218Y-84282990D01*
X97949756Y-84287528D01*
X97949751Y-84287531D01*
X97942383Y-84290448D01*
X97924970Y-84303099D01*
X97906625Y-84316427D01*
X97896707Y-84322943D01*
X97878019Y-84333995D01*
X97858637Y-84345458D01*
X97844313Y-84359782D01*
X97829281Y-84372621D01*
X97812893Y-84384528D01*
X97784712Y-84418593D01*
X97776722Y-84427373D01*
X97274500Y-84929595D01*
X97212188Y-84963621D01*
X97185405Y-84966500D01*
X90408200Y-84966500D01*
X90340079Y-84946498D01*
X90320853Y-84930157D01*
X90320580Y-84930460D01*
X90315668Y-84926037D01*
X90311253Y-84921134D01*
X90289671Y-84905454D01*
X90162094Y-84812763D01*
X90162093Y-84812762D01*
X90156752Y-84808882D01*
X90150724Y-84806198D01*
X90150722Y-84806197D01*
X89988319Y-84733891D01*
X89988318Y-84733891D01*
X89982288Y-84731206D01*
X89888887Y-84711353D01*
X89801944Y-84692872D01*
X89801939Y-84692872D01*
X89795487Y-84691500D01*
X89604513Y-84691500D01*
X89598061Y-84692872D01*
X89598056Y-84692872D01*
X89511113Y-84711353D01*
X89417712Y-84731206D01*
X89411682Y-84733891D01*
X89411681Y-84733891D01*
X89249278Y-84806197D01*
X89249276Y-84806198D01*
X89243248Y-84808882D01*
X89088747Y-84921134D01*
X89084326Y-84926044D01*
X89084325Y-84926045D01*
X88981785Y-85039928D01*
X88960960Y-85063056D01*
X88937118Y-85104352D01*
X88881406Y-85200848D01*
X88865473Y-85228444D01*
X88806458Y-85410072D01*
X88805768Y-85416633D01*
X88805768Y-85416635D01*
X88788471Y-85581206D01*
X88786496Y-85600000D01*
X77200900Y-85600000D01*
X77269554Y-85473555D01*
X77269555Y-85473553D01*
X77271604Y-85469779D01*
X77356447Y-85245249D01*
X77371707Y-85204866D01*
X77371708Y-85204862D01*
X77373225Y-85200848D01*
X77404783Y-85063056D01*
X77436449Y-84924797D01*
X77436450Y-84924793D01*
X77437407Y-84920613D01*
X77447033Y-84812763D01*
X77462743Y-84636726D01*
X77462743Y-84636724D01*
X77462963Y-84634260D01*
X77463427Y-84590000D01*
X77452340Y-84427373D01*
X77444165Y-84307452D01*
X77444164Y-84307446D01*
X77443873Y-84303175D01*
X77441238Y-84290448D01*
X77386443Y-84025855D01*
X77385574Y-84021658D01*
X77289607Y-83750657D01*
X77157750Y-83495188D01*
X77144488Y-83476317D01*
X76994904Y-83263482D01*
X76992441Y-83259977D01*
X76882672Y-83141852D01*
X76799661Y-83052521D01*
X76799658Y-83052519D01*
X76796740Y-83049378D01*
X76574268Y-82867287D01*
X76426707Y-82776861D01*
X76377869Y-82746933D01*
X76330238Y-82694285D01*
X76318631Y-82624243D01*
X76346734Y-82559046D01*
X76405625Y-82519392D01*
X76443704Y-82513500D01*
X76447810Y-82513500D01*
X76474385Y-82512076D01*
X76500999Y-82510650D01*
X76501009Y-82510649D01*
X76502692Y-82510559D01*
X76529475Y-82507680D01*
X76531132Y-82507412D01*
X76531143Y-82507410D01*
X76577640Y-82499875D01*
X76577645Y-82499874D01*
X76583752Y-82498884D01*
X76589549Y-82496722D01*
X76589552Y-82496721D01*
X76716479Y-82449378D01*
X76716481Y-82449377D01*
X76720693Y-82447806D01*
X76783005Y-82413780D01*
X76791229Y-82407624D01*
X76896402Y-82328891D01*
X76896406Y-82328887D01*
X76900004Y-82326194D01*
X77826194Y-81400004D01*
X77862917Y-81359123D01*
X77879820Y-81338149D01*
X77892391Y-81320717D01*
X77908362Y-81298570D01*
X77908365Y-81298565D01*
X77911982Y-81293549D01*
X77972698Y-81160600D01*
X77988897Y-81105431D01*
X77991431Y-81096802D01*
X77991432Y-81096798D01*
X77992700Y-81092479D01*
X77995716Y-81071506D01*
X78012861Y-80952257D01*
X78012861Y-80952252D01*
X78013500Y-80947810D01*
X78013500Y-79981886D01*
X77991917Y-79834578D01*
X77971179Y-79765326D01*
X77908250Y-79630408D01*
X77902221Y-79623599D01*
X77902218Y-79623594D01*
X77879240Y-79597642D01*
X77849058Y-79533381D01*
X77858411Y-79463003D01*
X77878353Y-79431604D01*
X77906080Y-79399605D01*
X77911982Y-79392794D01*
X77972698Y-79259845D01*
X77992700Y-79191724D01*
X77993388Y-79186944D01*
X78012861Y-79051502D01*
X78012861Y-79051497D01*
X78013500Y-79047055D01*
X78013500Y-78302190D01*
X78011427Y-78263500D01*
X78010650Y-78249001D01*
X78010649Y-78248991D01*
X78010559Y-78247308D01*
X78007680Y-78220525D01*
X78006155Y-78211112D01*
X77999875Y-78172360D01*
X77999874Y-78172355D01*
X77998884Y-78166248D01*
X77985037Y-78129122D01*
X77949378Y-78033521D01*
X77949377Y-78033519D01*
X77947806Y-78029307D01*
X77936625Y-78008830D01*
X77915936Y-77970943D01*
X77915935Y-77970941D01*
X77913780Y-77966995D01*
X77866249Y-77903502D01*
X77828891Y-77853598D01*
X77828887Y-77853594D01*
X77826194Y-77849996D01*
X77600198Y-77624000D01*
X80486500Y-77624000D01*
X80498234Y-77733149D01*
X80498952Y-77736449D01*
X80498952Y-77736450D01*
X80505961Y-77768669D01*
X80509620Y-77785491D01*
X80544290Y-77889657D01*
X80623308Y-78012612D01*
X80626250Y-78016007D01*
X80626252Y-78016010D01*
X80662978Y-78058394D01*
X80669801Y-78066268D01*
X80673194Y-78069208D01*
X80773450Y-78156081D01*
X80773453Y-78156083D01*
X80780261Y-78161982D01*
X80788459Y-78165726D01*
X80820062Y-78180159D01*
X80913210Y-78222698D01*
X80936964Y-78229673D01*
X80977008Y-78241431D01*
X80977012Y-78241432D01*
X80981331Y-78242700D01*
X80985780Y-78243340D01*
X80985786Y-78243341D01*
X81121553Y-78262861D01*
X81121558Y-78262861D01*
X81126000Y-78263500D01*
X108374000Y-78263500D01*
X108377346Y-78263140D01*
X108377351Y-78263140D01*
X108479785Y-78252128D01*
X108479792Y-78252127D01*
X108483149Y-78251766D01*
X108503643Y-78247308D01*
X108532210Y-78241094D01*
X108532215Y-78241093D01*
X108535491Y-78240380D01*
X108639657Y-78205710D01*
X108762612Y-78126692D01*
X108816268Y-78080199D01*
X108856715Y-78033521D01*
X108906081Y-77976550D01*
X108906083Y-77976547D01*
X108911982Y-77969739D01*
X108972698Y-77836790D01*
X108987761Y-77785491D01*
X108991431Y-77772992D01*
X108991432Y-77772988D01*
X108992700Y-77768669D01*
X108996607Y-77741500D01*
X109012861Y-77628447D01*
X109012861Y-77628442D01*
X109013500Y-77624000D01*
X109013500Y-76245064D01*
X148968568Y-76245064D01*
X148975356Y-76254765D01*
X149023390Y-76295790D01*
X149031372Y-76301590D01*
X149244379Y-76432121D01*
X149253173Y-76436602D01*
X149483972Y-76532202D01*
X149493357Y-76535251D01*
X149736272Y-76593570D01*
X149746019Y-76595113D01*
X149995070Y-76614714D01*
X150004930Y-76614714D01*
X150253981Y-76595113D01*
X150263728Y-76593570D01*
X150506643Y-76535251D01*
X150516028Y-76532202D01*
X150746827Y-76436602D01*
X150755621Y-76432121D01*
X150968628Y-76301590D01*
X150976610Y-76295790D01*
X151023076Y-76256105D01*
X151031506Y-76243192D01*
X151025498Y-76232985D01*
X150012812Y-75220299D01*
X149998868Y-75212685D01*
X149997035Y-75212816D01*
X149990420Y-75217067D01*
X148975960Y-76231527D01*
X148968568Y-76245064D01*
X109013500Y-76245064D01*
X109013500Y-74400000D01*
X121286496Y-74400000D01*
X121287186Y-74406565D01*
X121303171Y-74558650D01*
X121306458Y-74589928D01*
X121365473Y-74771556D01*
X121460960Y-74936944D01*
X121465378Y-74941851D01*
X121465379Y-74941852D01*
X121511825Y-74993435D01*
X121588747Y-75078866D01*
X121743248Y-75191118D01*
X121749276Y-75193802D01*
X121749278Y-75193803D01*
X121911681Y-75266109D01*
X121917712Y-75268794D01*
X122011112Y-75288647D01*
X122098056Y-75307128D01*
X122098061Y-75307128D01*
X122104513Y-75308500D01*
X122295487Y-75308500D01*
X122301939Y-75307128D01*
X122301944Y-75307128D01*
X122388888Y-75288647D01*
X122482288Y-75268794D01*
X122488319Y-75266109D01*
X122650722Y-75193803D01*
X122650724Y-75193802D01*
X122656752Y-75191118D01*
X122811253Y-75078866D01*
X122815668Y-75073963D01*
X122820580Y-75069540D01*
X122821705Y-75070789D01*
X122875014Y-75037949D01*
X122908200Y-75033500D01*
X127885406Y-75033500D01*
X127953527Y-75053502D01*
X127974501Y-75070405D01*
X128296343Y-75392247D01*
X128303887Y-75400537D01*
X128308000Y-75407018D01*
X128313777Y-75412443D01*
X128357667Y-75453658D01*
X128360509Y-75456413D01*
X128380230Y-75476134D01*
X128383425Y-75478612D01*
X128392447Y-75486318D01*
X128424679Y-75516586D01*
X128431628Y-75520406D01*
X128442432Y-75526346D01*
X128458956Y-75537199D01*
X128474959Y-75549613D01*
X128515543Y-75567176D01*
X128526173Y-75572383D01*
X128564940Y-75593695D01*
X128572617Y-75595666D01*
X128572622Y-75595668D01*
X128584558Y-75598732D01*
X128603266Y-75605137D01*
X128621855Y-75613181D01*
X128629683Y-75614421D01*
X128629690Y-75614423D01*
X128665524Y-75620099D01*
X128677144Y-75622505D01*
X128712289Y-75631528D01*
X128719970Y-75633500D01*
X128740224Y-75633500D01*
X128759934Y-75635051D01*
X128779943Y-75638220D01*
X128787835Y-75637474D01*
X128823961Y-75634059D01*
X128835819Y-75633500D01*
X129391800Y-75633500D01*
X129459921Y-75653502D01*
X129479147Y-75669843D01*
X129479420Y-75669540D01*
X129484332Y-75673963D01*
X129488747Y-75678866D01*
X129508633Y-75693314D01*
X129546419Y-75720767D01*
X129643248Y-75791118D01*
X129649276Y-75793802D01*
X129649278Y-75793803D01*
X129811681Y-75866109D01*
X129817712Y-75868794D01*
X129911112Y-75888647D01*
X129998056Y-75907128D01*
X129998061Y-75907128D01*
X130004513Y-75908500D01*
X130195487Y-75908500D01*
X130201939Y-75907128D01*
X130201944Y-75907128D01*
X130288888Y-75888647D01*
X130382288Y-75868794D01*
X130388319Y-75866109D01*
X130550722Y-75793803D01*
X130550724Y-75793802D01*
X130556752Y-75791118D01*
X130711253Y-75678866D01*
X130747851Y-75638220D01*
X130834621Y-75541852D01*
X130834622Y-75541851D01*
X130839040Y-75536944D01*
X130914053Y-75407018D01*
X130931223Y-75377279D01*
X130931224Y-75377278D01*
X130934527Y-75371556D01*
X130993542Y-75189928D01*
X131013504Y-75000000D01*
X131009818Y-74964930D01*
X148345286Y-74964930D01*
X148364887Y-75213981D01*
X148366430Y-75223728D01*
X148424749Y-75466643D01*
X148427798Y-75476028D01*
X148523398Y-75706827D01*
X148527879Y-75715621D01*
X148658410Y-75928628D01*
X148664210Y-75936610D01*
X148703895Y-75983076D01*
X148716808Y-75991506D01*
X148727015Y-75985498D01*
X149739701Y-74972812D01*
X149746079Y-74961132D01*
X150252685Y-74961132D01*
X150252816Y-74962965D01*
X150257067Y-74969580D01*
X151271527Y-75984040D01*
X151285064Y-75991432D01*
X151294765Y-75984644D01*
X151335790Y-75936610D01*
X151341590Y-75928628D01*
X151472121Y-75715621D01*
X151476602Y-75706827D01*
X151572202Y-75476028D01*
X151575251Y-75466643D01*
X151633570Y-75223728D01*
X151635113Y-75213981D01*
X151654714Y-74964930D01*
X151654714Y-74955070D01*
X151635113Y-74706019D01*
X151633570Y-74696272D01*
X151575251Y-74453357D01*
X151572202Y-74443972D01*
X151476602Y-74213173D01*
X151472121Y-74204379D01*
X151341590Y-73991372D01*
X151335790Y-73983390D01*
X151296105Y-73936924D01*
X151283192Y-73928494D01*
X151272985Y-73934502D01*
X150260299Y-74947188D01*
X150252685Y-74961132D01*
X149746079Y-74961132D01*
X149747315Y-74958868D01*
X149747184Y-74957035D01*
X149742933Y-74950420D01*
X148728473Y-73935960D01*
X148714936Y-73928568D01*
X148705235Y-73935356D01*
X148664210Y-73983390D01*
X148658410Y-73991372D01*
X148527879Y-74204379D01*
X148523398Y-74213173D01*
X148427798Y-74443972D01*
X148424749Y-74453357D01*
X148366430Y-74696272D01*
X148364887Y-74706019D01*
X148345286Y-74955070D01*
X148345286Y-74964930D01*
X131009818Y-74964930D01*
X131007953Y-74947188D01*
X130994232Y-74816635D01*
X130994232Y-74816633D01*
X130993542Y-74810072D01*
X130934527Y-74628444D01*
X130839040Y-74463056D01*
X130813163Y-74434316D01*
X130715675Y-74326045D01*
X130715674Y-74326044D01*
X130711253Y-74321134D01*
X130556752Y-74208882D01*
X130550724Y-74206198D01*
X130550722Y-74206197D01*
X130388319Y-74133891D01*
X130388318Y-74133891D01*
X130382288Y-74131206D01*
X130269674Y-74107269D01*
X130201944Y-74092872D01*
X130201939Y-74092872D01*
X130195487Y-74091500D01*
X130004513Y-74091500D01*
X129998061Y-74092872D01*
X129998056Y-74092872D01*
X129930326Y-74107269D01*
X129817712Y-74131206D01*
X129811682Y-74133891D01*
X129811681Y-74133891D01*
X129649278Y-74206197D01*
X129649276Y-74206198D01*
X129643248Y-74208882D01*
X129488747Y-74321134D01*
X129484332Y-74326037D01*
X129479420Y-74330460D01*
X129478295Y-74329211D01*
X129424986Y-74362051D01*
X129391800Y-74366500D01*
X129114595Y-74366500D01*
X129046474Y-74346498D01*
X129025499Y-74329595D01*
X128879842Y-74183937D01*
X128703647Y-74007742D01*
X128696113Y-73999463D01*
X128692000Y-73992982D01*
X128642348Y-73946356D01*
X128639507Y-73943602D01*
X128619770Y-73923865D01*
X128616573Y-73921385D01*
X128607551Y-73913680D01*
X128581100Y-73888841D01*
X128575321Y-73883414D01*
X128568375Y-73879595D01*
X128568372Y-73879593D01*
X128557566Y-73873652D01*
X128541047Y-73862801D01*
X128535048Y-73858148D01*
X128525041Y-73850386D01*
X128517772Y-73847241D01*
X128517768Y-73847238D01*
X128484463Y-73832826D01*
X128473813Y-73827609D01*
X128435060Y-73806305D01*
X128415437Y-73801267D01*
X128396734Y-73794863D01*
X128385420Y-73789967D01*
X128385419Y-73789967D01*
X128378145Y-73786819D01*
X128370322Y-73785580D01*
X128370312Y-73785577D01*
X128334476Y-73779901D01*
X128322856Y-73777495D01*
X128287711Y-73768472D01*
X128287710Y-73768472D01*
X128280030Y-73766500D01*
X128259776Y-73766500D01*
X128240065Y-73764949D01*
X128227886Y-73763020D01*
X128220057Y-73761780D01*
X128212165Y-73762526D01*
X128176039Y-73765941D01*
X128164181Y-73766500D01*
X122908200Y-73766500D01*
X122840079Y-73746498D01*
X122820853Y-73730157D01*
X122820580Y-73730460D01*
X122815668Y-73726037D01*
X122811253Y-73721134D01*
X122750244Y-73676808D01*
X148968494Y-73676808D01*
X148974502Y-73687015D01*
X149987188Y-74699701D01*
X150001132Y-74707315D01*
X150002965Y-74707184D01*
X150009580Y-74702933D01*
X151024040Y-73688473D01*
X151031432Y-73674936D01*
X151024644Y-73665235D01*
X150976610Y-73624210D01*
X150968628Y-73618410D01*
X150755621Y-73487879D01*
X150746827Y-73483398D01*
X150516028Y-73387798D01*
X150506643Y-73384749D01*
X150263728Y-73326430D01*
X150253981Y-73324887D01*
X150004930Y-73305286D01*
X149995070Y-73305286D01*
X149746019Y-73324887D01*
X149736272Y-73326430D01*
X149493357Y-73384749D01*
X149483972Y-73387798D01*
X149253173Y-73483398D01*
X149244379Y-73487879D01*
X149031372Y-73618410D01*
X149023390Y-73624210D01*
X148976924Y-73663895D01*
X148968494Y-73676808D01*
X122750244Y-73676808D01*
X122656752Y-73608882D01*
X122650724Y-73606198D01*
X122650722Y-73606197D01*
X122488319Y-73533891D01*
X122488318Y-73533891D01*
X122482288Y-73531206D01*
X122388887Y-73511353D01*
X122301944Y-73492872D01*
X122301939Y-73492872D01*
X122295487Y-73491500D01*
X122104513Y-73491500D01*
X122098061Y-73492872D01*
X122098056Y-73492872D01*
X122011113Y-73511353D01*
X121917712Y-73531206D01*
X121911682Y-73533891D01*
X121911681Y-73533891D01*
X121749278Y-73606197D01*
X121749276Y-73606198D01*
X121743248Y-73608882D01*
X121588747Y-73721134D01*
X121584326Y-73726044D01*
X121584325Y-73726045D01*
X121475203Y-73847238D01*
X121460960Y-73863056D01*
X121418869Y-73935960D01*
X121386877Y-73991372D01*
X121365473Y-74028444D01*
X121306458Y-74210072D01*
X121286496Y-74400000D01*
X109013500Y-74400000D01*
X109013500Y-68676827D01*
X130075810Y-68676827D01*
X130085692Y-68689316D01*
X130194112Y-68761760D01*
X130204225Y-68767251D01*
X130387805Y-68846123D01*
X130398738Y-68849675D01*
X130593615Y-68893771D01*
X130605025Y-68895273D01*
X130804676Y-68903117D01*
X130816158Y-68902515D01*
X131013898Y-68873845D01*
X131025081Y-68871160D01*
X131214283Y-68806934D01*
X131224786Y-68802258D01*
X131399117Y-68704629D01*
X131408599Y-68698113D01*
X131417616Y-68690614D01*
X131426067Y-68678031D01*
X131419893Y-68667381D01*
X130762811Y-68010298D01*
X130748868Y-68002685D01*
X130747034Y-68002816D01*
X130740420Y-68007067D01*
X130082003Y-68665485D01*
X130075810Y-68676827D01*
X109013500Y-68676827D01*
X109013500Y-67725534D01*
X129595847Y-67725534D01*
X129608914Y-67924902D01*
X129610715Y-67936272D01*
X129659896Y-68129923D01*
X129663737Y-68140769D01*
X129747386Y-68322218D01*
X129753137Y-68332179D01*
X129811914Y-68415348D01*
X129822504Y-68423736D01*
X129835803Y-68416709D01*
X130489702Y-67762811D01*
X130497315Y-67748868D01*
X130497184Y-67747034D01*
X130492933Y-67740420D01*
X129834803Y-67082291D01*
X129821968Y-67075282D01*
X129811276Y-67083080D01*
X129784978Y-67116440D01*
X129778704Y-67126101D01*
X129685679Y-67302912D01*
X129681273Y-67313549D01*
X129622025Y-67504356D01*
X129619632Y-67515614D01*
X129596148Y-67714033D01*
X129595847Y-67725534D01*
X109013500Y-67725534D01*
X109013500Y-66820684D01*
X130072102Y-66820684D01*
X130077934Y-66830446D01*
X130737189Y-67489702D01*
X130751132Y-67497315D01*
X130752966Y-67497184D01*
X130759580Y-67492933D01*
X131419238Y-66833274D01*
X131425995Y-66820899D01*
X131419965Y-66812843D01*
X131279209Y-66724034D01*
X131268965Y-66718814D01*
X131083385Y-66644775D01*
X131072347Y-66641505D01*
X130876391Y-66602527D01*
X130864944Y-66601324D01*
X130665167Y-66598709D01*
X130653687Y-66599612D01*
X130456780Y-66633447D01*
X130445660Y-66636427D01*
X130258207Y-66705582D01*
X130247829Y-66710532D01*
X130077812Y-66811681D01*
X130072102Y-66820684D01*
X109013500Y-66820684D01*
X109013500Y-59676827D01*
X130075810Y-59676827D01*
X130085692Y-59689316D01*
X130194112Y-59761760D01*
X130204225Y-59767251D01*
X130387805Y-59846123D01*
X130398738Y-59849675D01*
X130593615Y-59893771D01*
X130605025Y-59895273D01*
X130804676Y-59903117D01*
X130816158Y-59902515D01*
X131013898Y-59873845D01*
X131025081Y-59871160D01*
X131214283Y-59806934D01*
X131224786Y-59802258D01*
X131399117Y-59704629D01*
X131408599Y-59698113D01*
X131417616Y-59690614D01*
X131426067Y-59678031D01*
X131419893Y-59667381D01*
X130762811Y-59010298D01*
X130748868Y-59002685D01*
X130747034Y-59002816D01*
X130740420Y-59007067D01*
X130082003Y-59665485D01*
X130075810Y-59676827D01*
X109013500Y-59676827D01*
X109013500Y-58725534D01*
X129595847Y-58725534D01*
X129608914Y-58924902D01*
X129610715Y-58936272D01*
X129659896Y-59129923D01*
X129663737Y-59140769D01*
X129747386Y-59322218D01*
X129753137Y-59332179D01*
X129811914Y-59415348D01*
X129822504Y-59423736D01*
X129835803Y-59416709D01*
X130489702Y-58762811D01*
X130497315Y-58748868D01*
X130497184Y-58747034D01*
X130492933Y-58740420D01*
X129834803Y-58082291D01*
X129821968Y-58075282D01*
X129811276Y-58083080D01*
X129784978Y-58116440D01*
X129778704Y-58126101D01*
X129685679Y-58302912D01*
X129681273Y-58313549D01*
X129622025Y-58504356D01*
X129619632Y-58515614D01*
X129596148Y-58714033D01*
X129595847Y-58725534D01*
X109013500Y-58725534D01*
X109013500Y-57820684D01*
X130072102Y-57820684D01*
X130077934Y-57830446D01*
X130737189Y-58489702D01*
X130751132Y-58497315D01*
X130752966Y-58497184D01*
X130759580Y-58492933D01*
X131419238Y-57833274D01*
X131425995Y-57820899D01*
X131419965Y-57812843D01*
X131279209Y-57724034D01*
X131268965Y-57718814D01*
X131083385Y-57644775D01*
X131072347Y-57641505D01*
X130876391Y-57602527D01*
X130864944Y-57601324D01*
X130665167Y-57598709D01*
X130653687Y-57599612D01*
X130456780Y-57633447D01*
X130445660Y-57636427D01*
X130258207Y-57705582D01*
X130247829Y-57710532D01*
X130077812Y-57811681D01*
X130072102Y-57820684D01*
X109013500Y-57820684D01*
X109013500Y-45126000D01*
X109002909Y-45027480D01*
X109002128Y-45020215D01*
X109002127Y-45020208D01*
X109001766Y-45016851D01*
X109001048Y-45013550D01*
X108991094Y-44967790D01*
X108991093Y-44967785D01*
X108990380Y-44964509D01*
X108955710Y-44860343D01*
X108876692Y-44737388D01*
X108830199Y-44683732D01*
X108820933Y-44675703D01*
X108726550Y-44593919D01*
X108726547Y-44593917D01*
X108719739Y-44588018D01*
X108586790Y-44527302D01*
X108563036Y-44520327D01*
X108522992Y-44508569D01*
X108522988Y-44508568D01*
X108518669Y-44507300D01*
X108514220Y-44506660D01*
X108514214Y-44506659D01*
X108378447Y-44487139D01*
X108378442Y-44487139D01*
X108374000Y-44486500D01*
X81126000Y-44486500D01*
X81122654Y-44486860D01*
X81122649Y-44486860D01*
X81020215Y-44497872D01*
X81020208Y-44497873D01*
X81016851Y-44498234D01*
X81013551Y-44498952D01*
X81013550Y-44498952D01*
X80967790Y-44508906D01*
X80967785Y-44508907D01*
X80964509Y-44509620D01*
X80860343Y-44544290D01*
X80737388Y-44623308D01*
X80733993Y-44626250D01*
X80733990Y-44626252D01*
X80711723Y-44645547D01*
X80683732Y-44669801D01*
X80680792Y-44673194D01*
X80593919Y-44773450D01*
X80593917Y-44773453D01*
X80588018Y-44780261D01*
X80527302Y-44913210D01*
X80507300Y-44981331D01*
X80506660Y-44985780D01*
X80506659Y-44985786D01*
X80487139Y-45121553D01*
X80486500Y-45126000D01*
X80486500Y-77624000D01*
X77600198Y-77624000D01*
X77065293Y-77089095D01*
X77031267Y-77026783D01*
X77036332Y-76955968D01*
X77065293Y-76910905D01*
X77826194Y-76150004D01*
X77862917Y-76109123D01*
X77879820Y-76088149D01*
X77884034Y-76082306D01*
X77908362Y-76048570D01*
X77908365Y-76048565D01*
X77911982Y-76043549D01*
X77972698Y-75910600D01*
X77979673Y-75886846D01*
X77991431Y-75846802D01*
X77991432Y-75846798D01*
X77992700Y-75842479D01*
X77999699Y-75793803D01*
X78012861Y-75702257D01*
X78012861Y-75702252D01*
X78013500Y-75697810D01*
X78013500Y-74901886D01*
X77991917Y-74754578D01*
X77971179Y-74685326D01*
X77908250Y-74550408D01*
X77902221Y-74543599D01*
X77902218Y-74543594D01*
X77879240Y-74517642D01*
X77849058Y-74453381D01*
X77858411Y-74383003D01*
X77878353Y-74351604D01*
X77897424Y-74329595D01*
X77911982Y-74312794D01*
X77972698Y-74179845D01*
X77986980Y-74131206D01*
X77991431Y-74116047D01*
X77991432Y-74116043D01*
X77992700Y-74111724D01*
X77995411Y-74092872D01*
X78012861Y-73971502D01*
X78012861Y-73971497D01*
X78013500Y-73967055D01*
X78013500Y-73052190D01*
X78010559Y-72997308D01*
X78007680Y-72970525D01*
X78007410Y-72968857D01*
X77999875Y-72922360D01*
X77999874Y-72922355D01*
X77998884Y-72916248D01*
X77947806Y-72779307D01*
X77913780Y-72716995D01*
X77907624Y-72708771D01*
X77828891Y-72603598D01*
X77828887Y-72603594D01*
X77826194Y-72599996D01*
X76900004Y-71673806D01*
X76900624Y-71673186D01*
X76866543Y-71614676D01*
X76869648Y-71543747D01*
X76910608Y-71485757D01*
X76976417Y-71459117D01*
X76988876Y-71458500D01*
X76998134Y-71458500D01*
X77060316Y-71451745D01*
X77196705Y-71400615D01*
X77313261Y-71313261D01*
X77400615Y-71196705D01*
X77451745Y-71060316D01*
X77458500Y-70998134D01*
X77458500Y-67701866D01*
X77451745Y-67639684D01*
X77400615Y-67503295D01*
X77313261Y-67386739D01*
X77196705Y-67299385D01*
X77060316Y-67248255D01*
X76998134Y-67241500D01*
X73701866Y-67241500D01*
X73639684Y-67248255D01*
X73503295Y-67299385D01*
X73386739Y-67386739D01*
X73299385Y-67503295D01*
X73248255Y-67639684D01*
X73241500Y-67701866D01*
X73241500Y-70998134D01*
X73248255Y-71060316D01*
X73299385Y-71196705D01*
X73304771Y-71203891D01*
X73365510Y-71284935D01*
X73390358Y-71351441D01*
X73375305Y-71420824D01*
X73325131Y-71471054D01*
X73264684Y-71486500D01*
X71514888Y-71486500D01*
X71446767Y-71466498D01*
X71425793Y-71449595D01*
X70800405Y-70824207D01*
X70766379Y-70761895D01*
X70763500Y-70735112D01*
X70763500Y-65052190D01*
X70760559Y-64997308D01*
X70757680Y-64970525D01*
X70757410Y-64968857D01*
X70749875Y-64922360D01*
X70749874Y-64922355D01*
X70748884Y-64916248D01*
X70697806Y-64779307D01*
X70663780Y-64716995D01*
X70657624Y-64708771D01*
X70578891Y-64603598D01*
X70578887Y-64603594D01*
X70576194Y-64599996D01*
X69650004Y-63673806D01*
X69609123Y-63637083D01*
X69588149Y-63620180D01*
X69582306Y-63615966D01*
X69548570Y-63591638D01*
X69548565Y-63591635D01*
X69543549Y-63588018D01*
X69410600Y-63527302D01*
X69386846Y-63520327D01*
X69346802Y-63508569D01*
X69346798Y-63508568D01*
X69342479Y-63507300D01*
X69338030Y-63506660D01*
X69338024Y-63506659D01*
X69202257Y-63487139D01*
X69202252Y-63487139D01*
X69197810Y-63486500D01*
X64052190Y-63486500D01*
X64025615Y-63487924D01*
X63999001Y-63489350D01*
X63998991Y-63489351D01*
X63997308Y-63489441D01*
X63970525Y-63492320D01*
X63968868Y-63492588D01*
X63968857Y-63492590D01*
X63922360Y-63500125D01*
X63922355Y-63500126D01*
X63916248Y-63501116D01*
X63910451Y-63503278D01*
X63910448Y-63503279D01*
X63783521Y-63550622D01*
X63783519Y-63550623D01*
X63779307Y-63552194D01*
X63716995Y-63586220D01*
X63713395Y-63588915D01*
X63603598Y-63671109D01*
X63603594Y-63671113D01*
X63599996Y-63673806D01*
X63223595Y-64050207D01*
X63161283Y-64084233D01*
X63090468Y-64079168D01*
X63033632Y-64036621D01*
X63008821Y-63970101D01*
X63008500Y-63961112D01*
X63008500Y-49452945D01*
X63028502Y-49384824D01*
X63082158Y-49338331D01*
X63152432Y-49328227D01*
X63217012Y-49357721D01*
X63227682Y-49368134D01*
X63420244Y-49579756D01*
X63723743Y-49855919D01*
X64051884Y-50102294D01*
X64401754Y-50316695D01*
X64404433Y-50318007D01*
X64404434Y-50318008D01*
X64532443Y-50380719D01*
X64770249Y-50497219D01*
X64773019Y-50498266D01*
X64773022Y-50498267D01*
X65151322Y-50641215D01*
X65151333Y-50641219D01*
X65154097Y-50642263D01*
X65156951Y-50643044D01*
X65156961Y-50643047D01*
X65547013Y-50749753D01*
X65547025Y-50749756D01*
X65549892Y-50750540D01*
X65954119Y-50821089D01*
X65957067Y-50821321D01*
X66325362Y-50850307D01*
X66325371Y-50850307D01*
X66327819Y-50850500D01*
X66604602Y-50850500D01*
X66606083Y-50850430D01*
X66606090Y-50850430D01*
X66836748Y-50839552D01*
X66909882Y-50836103D01*
X67115534Y-50806834D01*
X67313191Y-50778704D01*
X67313194Y-50778703D01*
X67316127Y-50778286D01*
X67319002Y-50777596D01*
X67319006Y-50777595D01*
X67712246Y-50683187D01*
X67712253Y-50683185D01*
X67715127Y-50682495D01*
X68103342Y-50549579D01*
X68477325Y-50380719D01*
X68479896Y-50379253D01*
X68479901Y-50379250D01*
X68653560Y-50280197D01*
X68833758Y-50177414D01*
X69169476Y-49941467D01*
X69271982Y-49853919D01*
X69479245Y-49676899D01*
X69481499Y-49674974D01*
X69483551Y-49672857D01*
X69483559Y-49672849D01*
X69764999Y-49382426D01*
X69765001Y-49382423D01*
X69767059Y-49380300D01*
X70023619Y-49060059D01*
X70126711Y-48903117D01*
X70247273Y-48719580D01*
X70247279Y-48719570D01*
X70248904Y-48717096D01*
X70440914Y-48354453D01*
X70597943Y-47975350D01*
X70636913Y-47848678D01*
X70717726Y-47585990D01*
X70717726Y-47585988D01*
X70718599Y-47583152D01*
X70736402Y-47497184D01*
X70801206Y-47184259D01*
X70801208Y-47184249D01*
X70801810Y-47181340D01*
X70842493Y-46812843D01*
X70846513Y-46776433D01*
X70846839Y-46773480D01*
X70853284Y-46363193D01*
X70842763Y-46229504D01*
X70821321Y-45957067D01*
X70821089Y-45954119D01*
X70750540Y-45549892D01*
X70749756Y-45547025D01*
X70749753Y-45547013D01*
X70643047Y-45156961D01*
X70643044Y-45156951D01*
X70642263Y-45154097D01*
X70641219Y-45151333D01*
X70641215Y-45151322D01*
X70498267Y-44773022D01*
X70498266Y-44773019D01*
X70497219Y-44770249D01*
X70369023Y-44508569D01*
X70318008Y-44404434D01*
X70318007Y-44404433D01*
X70316695Y-44401754D01*
X70243864Y-44282904D01*
X70103848Y-44054420D01*
X70102294Y-44051884D01*
X69855919Y-43723743D01*
X69763355Y-43622016D01*
X69581746Y-43422431D01*
X69579756Y-43420244D01*
X69368143Y-43227691D01*
X69331223Y-43167053D01*
X69332946Y-43096078D01*
X69372768Y-43037301D01*
X69438046Y-43009384D01*
X69452945Y-43008500D01*
X145547568Y-43008500D01*
X145615689Y-43028502D01*
G37*
%TD.AperFunction*%
%TD*%
%TA.AperFunction,Conductor*%
%TO.N,/SW*%
G36*
X108442121Y-45020002D02*
G01*
X108488614Y-45073658D01*
X108500000Y-45126000D01*
X108500000Y-77624000D01*
X108479998Y-77692121D01*
X108426342Y-77738614D01*
X108374000Y-77750000D01*
X81126000Y-77750000D01*
X81057879Y-77729998D01*
X81011386Y-77676342D01*
X81000000Y-77624000D01*
X81000000Y-45126000D01*
X81020002Y-45057879D01*
X81073658Y-45011386D01*
X81126000Y-45000000D01*
X108374000Y-45000000D01*
X108442121Y-45020002D01*
G37*
%TD.AperFunction*%
%TD*%
%TA.AperFunction,Conductor*%
%TO.N,/AC_IN_1*%
G36*
X76515931Y-77270002D02*
G01*
X76536905Y-77286905D01*
X77463095Y-78213095D01*
X77497121Y-78275407D01*
X77500000Y-78302190D01*
X77500000Y-79047055D01*
X77479998Y-79115176D01*
X77426342Y-79161669D01*
X77356068Y-79171773D01*
X77291488Y-79142279D01*
X77253104Y-79082553D01*
X77250822Y-79073574D01*
X77228292Y-78968925D01*
X77225816Y-78960404D01*
X77133317Y-78709674D01*
X77129662Y-78701579D01*
X77002761Y-78466391D01*
X76997999Y-78458886D01*
X76860327Y-78272493D01*
X76849204Y-78264054D01*
X76836607Y-78270880D01*
X75610299Y-79497188D01*
X75602685Y-79511132D01*
X75602816Y-79512965D01*
X75607067Y-79519580D01*
X76834304Y-80746817D01*
X76847704Y-80754134D01*
X76857609Y-80747147D01*
X76928749Y-80662516D01*
X76933967Y-80655334D01*
X77075391Y-80428568D01*
X77079543Y-80420728D01*
X77187604Y-80176297D01*
X77190614Y-80167936D01*
X77252731Y-79947685D01*
X77290472Y-79887551D01*
X77354734Y-79857368D01*
X77425112Y-79866718D01*
X77479262Y-79912634D01*
X77500000Y-79981886D01*
X77500000Y-80947810D01*
X77479998Y-81015931D01*
X77463095Y-81036905D01*
X76536905Y-81963095D01*
X76474593Y-81997121D01*
X76447810Y-82000000D01*
X71500000Y-82000000D01*
X70250000Y-83250000D01*
X70250000Y-89197810D01*
X70229998Y-89265931D01*
X70213095Y-89286905D01*
X69286905Y-90213095D01*
X69224593Y-90247121D01*
X69197810Y-90250000D01*
X64302190Y-90250000D01*
X64234069Y-90229998D01*
X64213095Y-90213095D01*
X63325064Y-89325064D01*
X63968568Y-89325064D01*
X63975356Y-89334765D01*
X64023390Y-89375790D01*
X64031372Y-89381590D01*
X64244379Y-89512121D01*
X64253173Y-89516602D01*
X64483972Y-89612202D01*
X64493357Y-89615251D01*
X64736272Y-89673570D01*
X64746019Y-89675113D01*
X64995070Y-89694714D01*
X65004930Y-89694714D01*
X65253981Y-89675113D01*
X65263728Y-89673570D01*
X65506643Y-89615251D01*
X65516028Y-89612202D01*
X65746827Y-89516602D01*
X65755621Y-89512121D01*
X65968628Y-89381590D01*
X65976610Y-89375790D01*
X66023076Y-89336105D01*
X66031506Y-89323192D01*
X66025498Y-89312985D01*
X65012812Y-88300299D01*
X64998868Y-88292685D01*
X64997035Y-88292816D01*
X64990420Y-88297067D01*
X63975960Y-89311527D01*
X63968568Y-89325064D01*
X63325064Y-89325064D01*
X63045405Y-89045405D01*
X63011379Y-88983093D01*
X63008500Y-88956310D01*
X63008500Y-88044930D01*
X63345286Y-88044930D01*
X63364887Y-88293981D01*
X63366430Y-88303728D01*
X63424749Y-88546643D01*
X63427798Y-88556028D01*
X63523398Y-88786827D01*
X63527879Y-88795621D01*
X63658410Y-89008628D01*
X63664210Y-89016610D01*
X63703895Y-89063076D01*
X63716808Y-89071506D01*
X63727015Y-89065498D01*
X64739701Y-88052812D01*
X64746079Y-88041132D01*
X65252685Y-88041132D01*
X65252816Y-88042965D01*
X65257067Y-88049580D01*
X66271527Y-89064040D01*
X66285064Y-89071432D01*
X66294765Y-89064644D01*
X66335790Y-89016610D01*
X66341590Y-89008628D01*
X66472121Y-88795621D01*
X66476602Y-88786827D01*
X66572202Y-88556028D01*
X66575251Y-88546643D01*
X66633570Y-88303728D01*
X66635113Y-88293981D01*
X66654714Y-88044930D01*
X66654714Y-88035070D01*
X66635113Y-87786019D01*
X66633570Y-87776272D01*
X66575251Y-87533357D01*
X66572202Y-87523972D01*
X66476602Y-87293173D01*
X66472121Y-87284379D01*
X66341590Y-87071372D01*
X66335790Y-87063390D01*
X66296105Y-87016924D01*
X66283192Y-87008494D01*
X66272985Y-87014502D01*
X65260299Y-88027188D01*
X65252685Y-88041132D01*
X64746079Y-88041132D01*
X64747315Y-88038868D01*
X64747184Y-88037035D01*
X64742933Y-88030420D01*
X63728473Y-87015960D01*
X63714936Y-87008568D01*
X63705235Y-87015356D01*
X63664210Y-87063390D01*
X63658410Y-87071372D01*
X63527879Y-87284379D01*
X63523398Y-87293173D01*
X63427798Y-87523972D01*
X63424749Y-87533357D01*
X63366430Y-87776272D01*
X63364887Y-87786019D01*
X63345286Y-88035070D01*
X63345286Y-88044930D01*
X63008500Y-88044930D01*
X63008500Y-86756808D01*
X63968494Y-86756808D01*
X63974502Y-86767015D01*
X64987188Y-87779701D01*
X65001132Y-87787315D01*
X65002965Y-87787184D01*
X65009580Y-87782933D01*
X66024040Y-86768473D01*
X66031432Y-86754936D01*
X66024644Y-86745235D01*
X65976610Y-86704210D01*
X65968628Y-86698410D01*
X65755621Y-86567879D01*
X65746827Y-86563398D01*
X65516028Y-86467798D01*
X65506643Y-86464749D01*
X65263728Y-86406430D01*
X65253981Y-86404887D01*
X65004930Y-86385286D01*
X64995070Y-86385286D01*
X64746019Y-86404887D01*
X64736272Y-86406430D01*
X64493357Y-86464749D01*
X64483972Y-86467798D01*
X64253173Y-86563398D01*
X64244379Y-86567879D01*
X64031372Y-86698410D01*
X64023390Y-86704210D01*
X63976924Y-86743895D01*
X63968494Y-86756808D01*
X63008500Y-86756808D01*
X63008500Y-84245064D01*
X63968568Y-84245064D01*
X63975356Y-84254765D01*
X64023390Y-84295790D01*
X64031372Y-84301590D01*
X64244379Y-84432121D01*
X64253173Y-84436602D01*
X64483972Y-84532202D01*
X64493357Y-84535251D01*
X64736272Y-84593570D01*
X64746019Y-84595113D01*
X64995070Y-84614714D01*
X65004930Y-84614714D01*
X65253981Y-84595113D01*
X65263728Y-84593570D01*
X65506643Y-84535251D01*
X65516028Y-84532202D01*
X65746827Y-84436602D01*
X65755621Y-84432121D01*
X65968628Y-84301590D01*
X65976610Y-84295790D01*
X66023076Y-84256105D01*
X66031506Y-84243192D01*
X66025498Y-84232985D01*
X65012812Y-83220299D01*
X64998868Y-83212685D01*
X64997035Y-83212816D01*
X64990420Y-83217067D01*
X63975960Y-84231527D01*
X63968568Y-84245064D01*
X63008500Y-84245064D01*
X63008500Y-82964930D01*
X63345286Y-82964930D01*
X63364887Y-83213981D01*
X63366430Y-83223728D01*
X63424749Y-83466643D01*
X63427798Y-83476028D01*
X63523398Y-83706827D01*
X63527879Y-83715621D01*
X63658410Y-83928628D01*
X63664210Y-83936610D01*
X63703895Y-83983076D01*
X63716808Y-83991506D01*
X63727015Y-83985498D01*
X64739701Y-82972812D01*
X64746079Y-82961132D01*
X65252685Y-82961132D01*
X65252816Y-82962965D01*
X65257067Y-82969580D01*
X66271527Y-83984040D01*
X66285064Y-83991432D01*
X66294765Y-83984644D01*
X66335790Y-83936610D01*
X66341590Y-83928628D01*
X66472121Y-83715621D01*
X66476602Y-83706827D01*
X66572202Y-83476028D01*
X66575251Y-83466643D01*
X66633570Y-83223728D01*
X66635113Y-83213981D01*
X66654714Y-82964930D01*
X66654714Y-82955070D01*
X66635113Y-82706019D01*
X66633570Y-82696272D01*
X66575251Y-82453357D01*
X66572202Y-82443972D01*
X66476602Y-82213173D01*
X66472121Y-82204379D01*
X66341590Y-81991372D01*
X66335790Y-81983390D01*
X66296105Y-81936924D01*
X66283192Y-81928494D01*
X66272985Y-81934502D01*
X65260299Y-82947188D01*
X65252685Y-82961132D01*
X64746079Y-82961132D01*
X64747315Y-82958868D01*
X64747184Y-82957035D01*
X64742933Y-82950420D01*
X63728473Y-81935960D01*
X63714936Y-81928568D01*
X63705235Y-81935356D01*
X63664210Y-81983390D01*
X63658410Y-81991372D01*
X63527879Y-82204379D01*
X63523398Y-82213173D01*
X63427798Y-82443972D01*
X63424749Y-82453357D01*
X63366430Y-82696272D01*
X63364887Y-82706019D01*
X63345286Y-82955070D01*
X63345286Y-82964930D01*
X63008500Y-82964930D01*
X63008500Y-81676808D01*
X63968494Y-81676808D01*
X63974502Y-81687015D01*
X64987188Y-82699701D01*
X65001132Y-82707315D01*
X65002965Y-82707184D01*
X65009580Y-82702933D01*
X66024040Y-81688473D01*
X66031432Y-81674936D01*
X66024644Y-81665235D01*
X65976610Y-81624210D01*
X65968628Y-81618410D01*
X65755621Y-81487879D01*
X65746827Y-81483398D01*
X65516028Y-81387798D01*
X65506643Y-81384749D01*
X65263728Y-81326430D01*
X65253981Y-81324887D01*
X65004930Y-81305286D01*
X64995070Y-81305286D01*
X64746019Y-81324887D01*
X64736272Y-81326430D01*
X64493357Y-81384749D01*
X64483972Y-81387798D01*
X64253173Y-81483398D01*
X64244379Y-81487879D01*
X64031372Y-81618410D01*
X64023390Y-81624210D01*
X63976924Y-81663895D01*
X63968494Y-81676808D01*
X63008500Y-81676808D01*
X63008500Y-81007523D01*
X74105921Y-81007523D01*
X74113311Y-81017825D01*
X74222419Y-81106653D01*
X74229698Y-81111768D01*
X74458640Y-81249603D01*
X74466554Y-81253636D01*
X74712647Y-81357843D01*
X74721052Y-81360720D01*
X74979376Y-81429214D01*
X74988088Y-81430876D01*
X75253492Y-81462288D01*
X75262357Y-81462706D01*
X75529523Y-81456410D01*
X75538378Y-81455573D01*
X75801991Y-81411696D01*
X75810625Y-81409623D01*
X76065431Y-81329038D01*
X76073693Y-81325767D01*
X76314593Y-81210088D01*
X76322318Y-81205682D01*
X76544515Y-81057215D01*
X76551542Y-81051765D01*
X76586966Y-81020035D01*
X76595330Y-81006539D01*
X76589640Y-80997127D01*
X75362812Y-79770299D01*
X75348868Y-79762685D01*
X75347035Y-79762816D01*
X75340420Y-79767067D01*
X74113087Y-80994400D01*
X74105921Y-81007523D01*
X63008500Y-81007523D01*
X63008500Y-79453045D01*
X73396159Y-79453045D01*
X73406650Y-79720079D01*
X73407625Y-79728908D01*
X73455638Y-79991804D01*
X73457847Y-80000407D01*
X73542424Y-80253914D01*
X73545823Y-80262121D01*
X73665276Y-80501183D01*
X73669801Y-80508834D01*
X73821741Y-80728674D01*
X73827294Y-80735606D01*
X73838829Y-80748085D01*
X73852460Y-80756237D01*
X73852979Y-80756221D01*
X73861592Y-80750921D01*
X75089701Y-79522812D01*
X75097315Y-79508868D01*
X75097184Y-79507035D01*
X75092933Y-79500420D01*
X73865161Y-78272648D01*
X73852321Y-78265637D01*
X73841629Y-78273434D01*
X73735832Y-78407638D01*
X73730837Y-78414987D01*
X73596611Y-78646073D01*
X73592699Y-78654060D01*
X73492374Y-78901752D01*
X73489630Y-78910196D01*
X73425203Y-79169561D01*
X73423676Y-79178312D01*
X73396438Y-79444161D01*
X73396159Y-79453045D01*
X63008500Y-79453045D01*
X63008500Y-79293690D01*
X63028502Y-79225569D01*
X63045405Y-79204595D01*
X64238886Y-78011114D01*
X74102517Y-78011114D01*
X74102567Y-78012158D01*
X74107461Y-78019974D01*
X75337188Y-79249701D01*
X75351132Y-79257315D01*
X75352965Y-79257184D01*
X75359580Y-79252933D01*
X76588135Y-78024378D01*
X76594989Y-78011826D01*
X76586782Y-78000756D01*
X76426870Y-77878714D01*
X76419444Y-77873837D01*
X76186269Y-77743253D01*
X76178243Y-77739476D01*
X75928986Y-77643046D01*
X75920513Y-77640439D01*
X75660165Y-77580094D01*
X75651387Y-77578704D01*
X75385140Y-77555644D01*
X75376269Y-77555504D01*
X75109419Y-77570190D01*
X75100609Y-77571304D01*
X74838505Y-77623439D01*
X74829930Y-77625785D01*
X74577790Y-77714329D01*
X74569624Y-77717863D01*
X74332476Y-77841053D01*
X74324904Y-77845692D01*
X74108903Y-78000049D01*
X74102517Y-78011114D01*
X64238886Y-78011114D01*
X64963095Y-77286905D01*
X65025407Y-77252879D01*
X65052190Y-77250000D01*
X76447810Y-77250000D01*
X76515931Y-77270002D01*
G37*
%TD.AperFunction*%
%TD*%
%TA.AperFunction,Conductor*%
%TO.N,/AC_IN_2*%
G36*
X69265931Y-64020002D02*
G01*
X69286905Y-64036905D01*
X70213095Y-64963095D01*
X70247121Y-65025407D01*
X70250000Y-65052190D01*
X70250000Y-71000000D01*
X71250000Y-72000000D01*
X76447810Y-72000000D01*
X76515931Y-72020002D01*
X76536905Y-72036905D01*
X77463095Y-72963095D01*
X77497121Y-73025407D01*
X77500000Y-73052190D01*
X77500000Y-73967055D01*
X77479998Y-74035176D01*
X77426342Y-74081669D01*
X77356068Y-74091773D01*
X77291488Y-74062279D01*
X77253104Y-74002553D01*
X77250822Y-73993574D01*
X77228292Y-73888925D01*
X77225816Y-73880404D01*
X77133317Y-73629674D01*
X77129662Y-73621579D01*
X77002761Y-73386391D01*
X76997999Y-73378886D01*
X76860327Y-73192493D01*
X76849204Y-73184054D01*
X76836607Y-73190880D01*
X75610299Y-74417188D01*
X75602685Y-74431132D01*
X75602816Y-74432965D01*
X75607067Y-74439580D01*
X76834304Y-75666817D01*
X76847704Y-75674134D01*
X76857609Y-75667147D01*
X76928749Y-75582516D01*
X76933967Y-75575334D01*
X77075391Y-75348568D01*
X77079543Y-75340728D01*
X77187604Y-75096297D01*
X77190614Y-75087936D01*
X77252731Y-74867685D01*
X77290472Y-74807551D01*
X77354734Y-74777368D01*
X77425112Y-74786718D01*
X77479262Y-74832634D01*
X77500000Y-74901886D01*
X77500000Y-75697810D01*
X77479998Y-75765931D01*
X77463095Y-75786905D01*
X76536905Y-76713095D01*
X76474593Y-76747121D01*
X76447810Y-76750000D01*
X65052190Y-76750000D01*
X64984069Y-76729998D01*
X64963095Y-76713095D01*
X64177523Y-75927523D01*
X74105921Y-75927523D01*
X74113311Y-75937825D01*
X74222419Y-76026653D01*
X74229698Y-76031768D01*
X74458640Y-76169603D01*
X74466554Y-76173636D01*
X74712647Y-76277843D01*
X74721052Y-76280720D01*
X74979376Y-76349214D01*
X74988088Y-76350876D01*
X75253492Y-76382288D01*
X75262357Y-76382706D01*
X75529523Y-76376410D01*
X75538378Y-76375573D01*
X75801991Y-76331696D01*
X75810625Y-76329623D01*
X76065431Y-76249038D01*
X76073693Y-76245767D01*
X76314593Y-76130088D01*
X76322318Y-76125682D01*
X76544515Y-75977215D01*
X76551542Y-75971765D01*
X76586966Y-75940035D01*
X76595330Y-75926539D01*
X76589640Y-75917127D01*
X75362812Y-74690299D01*
X75348868Y-74682685D01*
X75347035Y-74682816D01*
X75340420Y-74687067D01*
X74113087Y-75914400D01*
X74105921Y-75927523D01*
X64177523Y-75927523D01*
X63045405Y-74795405D01*
X63011379Y-74733093D01*
X63008500Y-74706310D01*
X63008500Y-74373045D01*
X73396159Y-74373045D01*
X73406650Y-74640079D01*
X73407625Y-74648908D01*
X73455638Y-74911804D01*
X73457847Y-74920407D01*
X73542424Y-75173914D01*
X73545823Y-75182121D01*
X73665276Y-75421183D01*
X73669801Y-75428834D01*
X73821741Y-75648674D01*
X73827294Y-75655606D01*
X73838829Y-75668085D01*
X73852460Y-75676237D01*
X73852979Y-75676221D01*
X73861592Y-75670921D01*
X75089701Y-74442812D01*
X75097315Y-74428868D01*
X75097184Y-74427035D01*
X75092933Y-74420420D01*
X73865161Y-73192648D01*
X73852321Y-73185637D01*
X73841629Y-73193434D01*
X73735832Y-73327638D01*
X73730837Y-73334987D01*
X73596611Y-73566073D01*
X73592699Y-73574060D01*
X73492374Y-73821752D01*
X73489630Y-73830196D01*
X73425203Y-74089561D01*
X73423676Y-74098312D01*
X73396438Y-74364161D01*
X73396159Y-74373045D01*
X63008500Y-74373045D01*
X63008500Y-72931114D01*
X74102517Y-72931114D01*
X74102567Y-72932158D01*
X74107461Y-72939974D01*
X75337188Y-74169701D01*
X75351132Y-74177315D01*
X75352965Y-74177184D01*
X75359580Y-74172933D01*
X76588135Y-72944378D01*
X76594989Y-72931826D01*
X76586782Y-72920756D01*
X76426870Y-72798714D01*
X76419444Y-72793837D01*
X76186269Y-72663253D01*
X76178243Y-72659476D01*
X75928986Y-72563046D01*
X75920513Y-72560439D01*
X75660165Y-72500094D01*
X75651387Y-72498704D01*
X75385140Y-72475644D01*
X75376269Y-72475504D01*
X75109419Y-72490190D01*
X75100609Y-72491304D01*
X74838505Y-72543439D01*
X74829930Y-72545785D01*
X74577790Y-72634329D01*
X74569624Y-72637863D01*
X74332476Y-72761053D01*
X74324904Y-72765692D01*
X74108903Y-72920049D01*
X74102517Y-72931114D01*
X63008500Y-72931114D01*
X63008500Y-72325064D01*
X63968568Y-72325064D01*
X63975356Y-72334765D01*
X64023390Y-72375790D01*
X64031372Y-72381590D01*
X64244379Y-72512121D01*
X64253173Y-72516602D01*
X64483972Y-72612202D01*
X64493357Y-72615251D01*
X64736272Y-72673570D01*
X64746019Y-72675113D01*
X64995070Y-72694714D01*
X65004930Y-72694714D01*
X65253981Y-72675113D01*
X65263728Y-72673570D01*
X65506643Y-72615251D01*
X65516028Y-72612202D01*
X65746827Y-72516602D01*
X65755621Y-72512121D01*
X65968628Y-72381590D01*
X65976610Y-72375790D01*
X66023076Y-72336105D01*
X66031506Y-72323192D01*
X66025498Y-72312985D01*
X65012812Y-71300299D01*
X64998868Y-71292685D01*
X64997035Y-71292816D01*
X64990420Y-71297067D01*
X63975960Y-72311527D01*
X63968568Y-72325064D01*
X63008500Y-72325064D01*
X63008500Y-71044930D01*
X63345286Y-71044930D01*
X63364887Y-71293981D01*
X63366430Y-71303728D01*
X63424749Y-71546643D01*
X63427798Y-71556028D01*
X63523398Y-71786827D01*
X63527879Y-71795621D01*
X63658410Y-72008628D01*
X63664210Y-72016610D01*
X63703895Y-72063076D01*
X63716808Y-72071506D01*
X63727015Y-72065498D01*
X64739701Y-71052812D01*
X64746079Y-71041132D01*
X65252685Y-71041132D01*
X65252816Y-71042965D01*
X65257067Y-71049580D01*
X66271527Y-72064040D01*
X66285064Y-72071432D01*
X66294765Y-72064644D01*
X66335790Y-72016610D01*
X66341590Y-72008628D01*
X66472121Y-71795621D01*
X66476602Y-71786827D01*
X66572202Y-71556028D01*
X66575251Y-71546643D01*
X66633570Y-71303728D01*
X66635113Y-71293981D01*
X66654714Y-71044930D01*
X66654714Y-71035070D01*
X66635113Y-70786019D01*
X66633570Y-70776272D01*
X66575251Y-70533357D01*
X66572202Y-70523972D01*
X66476602Y-70293173D01*
X66472121Y-70284379D01*
X66341590Y-70071372D01*
X66335790Y-70063390D01*
X66296105Y-70016924D01*
X66283192Y-70008494D01*
X66272985Y-70014502D01*
X65260299Y-71027188D01*
X65252685Y-71041132D01*
X64746079Y-71041132D01*
X64747315Y-71038868D01*
X64747184Y-71037035D01*
X64742933Y-71030420D01*
X63728473Y-70015960D01*
X63714936Y-70008568D01*
X63705235Y-70015356D01*
X63664210Y-70063390D01*
X63658410Y-70071372D01*
X63527879Y-70284379D01*
X63523398Y-70293173D01*
X63427798Y-70523972D01*
X63424749Y-70533357D01*
X63366430Y-70776272D01*
X63364887Y-70786019D01*
X63345286Y-71035070D01*
X63345286Y-71044930D01*
X63008500Y-71044930D01*
X63008500Y-69756808D01*
X63968494Y-69756808D01*
X63974502Y-69767015D01*
X64987188Y-70779701D01*
X65001132Y-70787315D01*
X65002965Y-70787184D01*
X65009580Y-70782933D01*
X66024040Y-69768473D01*
X66031432Y-69754936D01*
X66024644Y-69745235D01*
X65976610Y-69704210D01*
X65968628Y-69698410D01*
X65755621Y-69567879D01*
X65746827Y-69563398D01*
X65516028Y-69467798D01*
X65506643Y-69464749D01*
X65263728Y-69406430D01*
X65253981Y-69404887D01*
X65004930Y-69385286D01*
X64995070Y-69385286D01*
X64746019Y-69404887D01*
X64736272Y-69406430D01*
X64493357Y-69464749D01*
X64483972Y-69467798D01*
X64253173Y-69563398D01*
X64244379Y-69567879D01*
X64031372Y-69698410D01*
X64023390Y-69704210D01*
X63976924Y-69743895D01*
X63968494Y-69756808D01*
X63008500Y-69756808D01*
X63008500Y-67245064D01*
X63968568Y-67245064D01*
X63975356Y-67254765D01*
X64023390Y-67295790D01*
X64031372Y-67301590D01*
X64244379Y-67432121D01*
X64253173Y-67436602D01*
X64483972Y-67532202D01*
X64493357Y-67535251D01*
X64736272Y-67593570D01*
X64746019Y-67595113D01*
X64995070Y-67614714D01*
X65004930Y-67614714D01*
X65253981Y-67595113D01*
X65263728Y-67593570D01*
X65506643Y-67535251D01*
X65516028Y-67532202D01*
X65746827Y-67436602D01*
X65755621Y-67432121D01*
X65968628Y-67301590D01*
X65976610Y-67295790D01*
X66023076Y-67256105D01*
X66031506Y-67243192D01*
X66025498Y-67232985D01*
X65012812Y-66220299D01*
X64998868Y-66212685D01*
X64997035Y-66212816D01*
X64990420Y-66217067D01*
X63975960Y-67231527D01*
X63968568Y-67245064D01*
X63008500Y-67245064D01*
X63008500Y-65964930D01*
X63345286Y-65964930D01*
X63364887Y-66213981D01*
X63366430Y-66223728D01*
X63424749Y-66466643D01*
X63427798Y-66476028D01*
X63523398Y-66706827D01*
X63527879Y-66715621D01*
X63658410Y-66928628D01*
X63664210Y-66936610D01*
X63703895Y-66983076D01*
X63716808Y-66991506D01*
X63727015Y-66985498D01*
X64739701Y-65972812D01*
X64746079Y-65961132D01*
X65252685Y-65961132D01*
X65252816Y-65962965D01*
X65257067Y-65969580D01*
X66271527Y-66984040D01*
X66285064Y-66991432D01*
X66294765Y-66984644D01*
X66335790Y-66936610D01*
X66341590Y-66928628D01*
X66472121Y-66715621D01*
X66476602Y-66706827D01*
X66572202Y-66476028D01*
X66575251Y-66466643D01*
X66633570Y-66223728D01*
X66635113Y-66213981D01*
X66654714Y-65964930D01*
X66654714Y-65955070D01*
X66635113Y-65706019D01*
X66633570Y-65696272D01*
X66575251Y-65453357D01*
X66572202Y-65443972D01*
X66476602Y-65213173D01*
X66472121Y-65204379D01*
X66341590Y-64991372D01*
X66335790Y-64983390D01*
X66296105Y-64936924D01*
X66283192Y-64928494D01*
X66272985Y-64934502D01*
X65260299Y-65947188D01*
X65252685Y-65961132D01*
X64746079Y-65961132D01*
X64747315Y-65958868D01*
X64747184Y-65957035D01*
X64742933Y-65950420D01*
X63728473Y-64935960D01*
X63714936Y-64928568D01*
X63705235Y-64935356D01*
X63664210Y-64983390D01*
X63658410Y-64991372D01*
X63527879Y-65204379D01*
X63523398Y-65213173D01*
X63427798Y-65443972D01*
X63424749Y-65453357D01*
X63366430Y-65696272D01*
X63364887Y-65706019D01*
X63345286Y-65955070D01*
X63345286Y-65964930D01*
X63008500Y-65964930D01*
X63008500Y-65043690D01*
X63028502Y-64975569D01*
X63045405Y-64954595D01*
X63323192Y-64676808D01*
X63968494Y-64676808D01*
X63974502Y-64687015D01*
X64987188Y-65699701D01*
X65001132Y-65707315D01*
X65002965Y-65707184D01*
X65009580Y-65702933D01*
X66024040Y-64688473D01*
X66031432Y-64674936D01*
X66024644Y-64665235D01*
X65976610Y-64624210D01*
X65968628Y-64618410D01*
X65755621Y-64487879D01*
X65746827Y-64483398D01*
X65516028Y-64387798D01*
X65506643Y-64384749D01*
X65263728Y-64326430D01*
X65253981Y-64324887D01*
X65004930Y-64305286D01*
X64995070Y-64305286D01*
X64746019Y-64324887D01*
X64736272Y-64326430D01*
X64493357Y-64384749D01*
X64483972Y-64387798D01*
X64253173Y-64483398D01*
X64244379Y-64487879D01*
X64031372Y-64618410D01*
X64023390Y-64624210D01*
X63976924Y-64663895D01*
X63968494Y-64676808D01*
X63323192Y-64676808D01*
X63963095Y-64036905D01*
X64025407Y-64002879D01*
X64052190Y-64000000D01*
X69197810Y-64000000D01*
X69265931Y-64020002D01*
G37*
%TD.AperFunction*%
%TD*%
%TA.AperFunction,Conductor*%
%TO.N,/VOUT*%
G36*
X138692121Y-45020002D02*
G01*
X138738614Y-45073658D01*
X138750000Y-45126000D01*
X138750000Y-49000000D01*
X145750000Y-56000000D01*
X151865500Y-56000000D01*
X151933621Y-56020002D01*
X151980114Y-56073658D01*
X151991500Y-56126000D01*
X151991500Y-69624000D01*
X151971498Y-69692121D01*
X151917842Y-69738614D01*
X151865500Y-69750000D01*
X132626000Y-69750000D01*
X132557879Y-69729998D01*
X132511386Y-69676342D01*
X132500000Y-69624000D01*
X132500000Y-68578568D01*
X133100001Y-68578568D01*
X133100672Y-68587734D01*
X133108700Y-68642278D01*
X133114443Y-68660759D01*
X133156889Y-68747213D01*
X133168849Y-68763918D01*
X133236572Y-68831523D01*
X133253300Y-68843455D01*
X133339838Y-68885755D01*
X133358306Y-68891463D01*
X133412297Y-68899340D01*
X133421396Y-68900000D01*
X134056885Y-68900000D01*
X134072124Y-68895525D01*
X134073329Y-68894135D01*
X134075000Y-68886452D01*
X134075000Y-68881884D01*
X134425000Y-68881884D01*
X134429475Y-68897123D01*
X134430865Y-68898328D01*
X134438548Y-68899999D01*
X135078568Y-68899999D01*
X135087734Y-68899328D01*
X135142278Y-68891300D01*
X135160759Y-68885557D01*
X135247213Y-68843111D01*
X135263918Y-68831151D01*
X135331523Y-68763428D01*
X135343455Y-68746700D01*
X135385755Y-68660162D01*
X135391463Y-68641694D01*
X135399340Y-68587703D01*
X135400000Y-68578604D01*
X135400000Y-67943115D01*
X135395525Y-67927876D01*
X135394135Y-67926671D01*
X135386452Y-67925000D01*
X134443115Y-67925000D01*
X134427876Y-67929475D01*
X134426671Y-67930865D01*
X134425000Y-67938548D01*
X134425000Y-68881884D01*
X134075000Y-68881884D01*
X134075000Y-67943115D01*
X134070525Y-67927876D01*
X134069135Y-67926671D01*
X134061452Y-67925000D01*
X133118116Y-67925000D01*
X133102877Y-67929475D01*
X133101672Y-67930865D01*
X133100001Y-67938548D01*
X133100001Y-68578568D01*
X132500000Y-68578568D01*
X132500000Y-67556885D01*
X133100000Y-67556885D01*
X133104475Y-67572124D01*
X133105865Y-67573329D01*
X133113548Y-67575000D01*
X134056885Y-67575000D01*
X134072124Y-67570525D01*
X134073329Y-67569135D01*
X134075000Y-67561452D01*
X134075000Y-67556885D01*
X134425000Y-67556885D01*
X134429475Y-67572124D01*
X134430865Y-67573329D01*
X134438548Y-67575000D01*
X135381884Y-67575000D01*
X135397123Y-67570525D01*
X135398328Y-67569135D01*
X135399999Y-67561452D01*
X135399999Y-66921432D01*
X135399328Y-66912266D01*
X135391300Y-66857722D01*
X135385557Y-66839241D01*
X135343111Y-66752787D01*
X135331151Y-66736082D01*
X135263428Y-66668477D01*
X135246700Y-66656545D01*
X135160162Y-66614245D01*
X135141694Y-66608537D01*
X135087703Y-66600660D01*
X135078604Y-66600000D01*
X134443115Y-66600000D01*
X134427876Y-66604475D01*
X134426671Y-66605865D01*
X134425000Y-66613548D01*
X134425000Y-67556885D01*
X134075000Y-67556885D01*
X134075000Y-66618116D01*
X134070525Y-66602877D01*
X134069135Y-66601672D01*
X134061452Y-66600001D01*
X133421432Y-66600001D01*
X133412266Y-66600672D01*
X133357722Y-66608700D01*
X133339241Y-66614443D01*
X133252787Y-66656889D01*
X133236082Y-66668849D01*
X133168477Y-66736572D01*
X133156545Y-66753300D01*
X133114245Y-66839838D01*
X133108537Y-66858306D01*
X133100660Y-66912297D01*
X133100000Y-66921396D01*
X133100000Y-67556885D01*
X132500000Y-67556885D01*
X132500000Y-64325064D01*
X148968568Y-64325064D01*
X148975356Y-64334765D01*
X149023390Y-64375790D01*
X149031372Y-64381590D01*
X149244379Y-64512121D01*
X149253173Y-64516602D01*
X149483972Y-64612202D01*
X149493357Y-64615251D01*
X149736272Y-64673570D01*
X149746019Y-64675113D01*
X149995070Y-64694714D01*
X150004930Y-64694714D01*
X150253981Y-64675113D01*
X150263728Y-64673570D01*
X150506643Y-64615251D01*
X150516028Y-64612202D01*
X150746827Y-64516602D01*
X150755621Y-64512121D01*
X150968628Y-64381590D01*
X150976610Y-64375790D01*
X151023076Y-64336105D01*
X151031506Y-64323192D01*
X151025498Y-64312985D01*
X150012812Y-63300299D01*
X149998868Y-63292685D01*
X149997035Y-63292816D01*
X149990420Y-63297067D01*
X148975960Y-64311527D01*
X148968568Y-64325064D01*
X132500000Y-64325064D01*
X132500000Y-63044930D01*
X148345286Y-63044930D01*
X148364887Y-63293981D01*
X148366430Y-63303728D01*
X148424749Y-63546643D01*
X148427798Y-63556028D01*
X148523398Y-63786827D01*
X148527879Y-63795621D01*
X148658410Y-64008628D01*
X148664210Y-64016610D01*
X148703895Y-64063076D01*
X148716808Y-64071506D01*
X148727015Y-64065498D01*
X149739701Y-63052812D01*
X149746079Y-63041132D01*
X150252685Y-63041132D01*
X150252816Y-63042965D01*
X150257067Y-63049580D01*
X151271527Y-64064040D01*
X151285064Y-64071432D01*
X151294765Y-64064644D01*
X151335790Y-64016610D01*
X151341590Y-64008628D01*
X151472121Y-63795621D01*
X151476602Y-63786827D01*
X151572202Y-63556028D01*
X151575251Y-63546643D01*
X151633570Y-63303728D01*
X151635113Y-63293981D01*
X151654714Y-63044930D01*
X151654714Y-63035070D01*
X151635113Y-62786019D01*
X151633570Y-62776272D01*
X151575251Y-62533357D01*
X151572202Y-62523972D01*
X151476602Y-62293173D01*
X151472121Y-62284379D01*
X151341590Y-62071372D01*
X151335790Y-62063390D01*
X151296105Y-62016924D01*
X151283192Y-62008494D01*
X151272985Y-62014502D01*
X150260299Y-63027188D01*
X150252685Y-63041132D01*
X149746079Y-63041132D01*
X149747315Y-63038868D01*
X149747184Y-63037035D01*
X149742933Y-63030420D01*
X148728473Y-62015960D01*
X148714936Y-62008568D01*
X148705235Y-62015356D01*
X148664210Y-62063390D01*
X148658410Y-62071372D01*
X148527879Y-62284379D01*
X148523398Y-62293173D01*
X148427798Y-62523972D01*
X148424749Y-62533357D01*
X148366430Y-62776272D01*
X148364887Y-62786019D01*
X148345286Y-63035070D01*
X148345286Y-63044930D01*
X132500000Y-63044930D01*
X132500000Y-61756808D01*
X148968494Y-61756808D01*
X148974502Y-61767015D01*
X149987188Y-62779701D01*
X150001132Y-62787315D01*
X150002965Y-62787184D01*
X150009580Y-62782933D01*
X151024040Y-61768473D01*
X151031432Y-61754936D01*
X151024644Y-61745235D01*
X150976610Y-61704210D01*
X150968628Y-61698410D01*
X150755621Y-61567879D01*
X150746827Y-61563398D01*
X150516028Y-61467798D01*
X150506643Y-61464749D01*
X150263728Y-61406430D01*
X150253981Y-61404887D01*
X150004930Y-61385286D01*
X149995070Y-61385286D01*
X149746019Y-61404887D01*
X149736272Y-61406430D01*
X149493357Y-61464749D01*
X149483972Y-61467798D01*
X149253173Y-61563398D01*
X149244379Y-61567879D01*
X149031372Y-61698410D01*
X149023390Y-61704210D01*
X148976924Y-61743895D01*
X148968494Y-61756808D01*
X132500000Y-61756808D01*
X132500000Y-59578568D01*
X133100001Y-59578568D01*
X133100672Y-59587734D01*
X133108700Y-59642278D01*
X133114443Y-59660759D01*
X133156889Y-59747213D01*
X133168849Y-59763918D01*
X133236572Y-59831523D01*
X133253300Y-59843455D01*
X133339838Y-59885755D01*
X133358306Y-59891463D01*
X133412297Y-59899340D01*
X133421396Y-59900000D01*
X134056885Y-59900000D01*
X134072124Y-59895525D01*
X134073329Y-59894135D01*
X134075000Y-59886452D01*
X134075000Y-59881884D01*
X134425000Y-59881884D01*
X134429475Y-59897123D01*
X134430865Y-59898328D01*
X134438548Y-59899999D01*
X135078568Y-59899999D01*
X135087734Y-59899328D01*
X135142278Y-59891300D01*
X135160759Y-59885557D01*
X135247213Y-59843111D01*
X135263918Y-59831151D01*
X135331523Y-59763428D01*
X135343455Y-59746700D01*
X135385755Y-59660162D01*
X135391463Y-59641694D01*
X135399340Y-59587703D01*
X135400000Y-59578604D01*
X135400000Y-59245064D01*
X148968568Y-59245064D01*
X148975356Y-59254765D01*
X149023390Y-59295790D01*
X149031372Y-59301590D01*
X149244379Y-59432121D01*
X149253173Y-59436602D01*
X149483972Y-59532202D01*
X149493357Y-59535251D01*
X149736272Y-59593570D01*
X149746019Y-59595113D01*
X149995070Y-59614714D01*
X150004930Y-59614714D01*
X150253981Y-59595113D01*
X150263728Y-59593570D01*
X150506643Y-59535251D01*
X150516028Y-59532202D01*
X150746827Y-59436602D01*
X150755621Y-59432121D01*
X150968628Y-59301590D01*
X150976610Y-59295790D01*
X151023076Y-59256105D01*
X151031506Y-59243192D01*
X151025498Y-59232985D01*
X150012812Y-58220299D01*
X149998868Y-58212685D01*
X149997035Y-58212816D01*
X149990420Y-58217067D01*
X148975960Y-59231527D01*
X148968568Y-59245064D01*
X135400000Y-59245064D01*
X135400000Y-58943115D01*
X135395525Y-58927876D01*
X135394135Y-58926671D01*
X135386452Y-58925000D01*
X134443115Y-58925000D01*
X134427876Y-58929475D01*
X134426671Y-58930865D01*
X134425000Y-58938548D01*
X134425000Y-59881884D01*
X134075000Y-59881884D01*
X134075000Y-58943115D01*
X134070525Y-58927876D01*
X134069135Y-58926671D01*
X134061452Y-58925000D01*
X133118116Y-58925000D01*
X133102877Y-58929475D01*
X133101672Y-58930865D01*
X133100001Y-58938548D01*
X133100001Y-59578568D01*
X132500000Y-59578568D01*
X132500000Y-58556885D01*
X133100000Y-58556885D01*
X133104475Y-58572124D01*
X133105865Y-58573329D01*
X133113548Y-58575000D01*
X134056885Y-58575000D01*
X134072124Y-58570525D01*
X134073329Y-58569135D01*
X134075000Y-58561452D01*
X134075000Y-58556885D01*
X134425000Y-58556885D01*
X134429475Y-58572124D01*
X134430865Y-58573329D01*
X134438548Y-58575000D01*
X135381884Y-58575000D01*
X135397123Y-58570525D01*
X135398328Y-58569135D01*
X135399999Y-58561452D01*
X135399999Y-57964930D01*
X148345286Y-57964930D01*
X148364887Y-58213981D01*
X148366430Y-58223728D01*
X148424749Y-58466643D01*
X148427798Y-58476028D01*
X148523398Y-58706827D01*
X148527879Y-58715621D01*
X148658410Y-58928628D01*
X148664210Y-58936610D01*
X148703895Y-58983076D01*
X148716808Y-58991506D01*
X148727015Y-58985498D01*
X149739701Y-57972812D01*
X149746079Y-57961132D01*
X150252685Y-57961132D01*
X150252816Y-57962965D01*
X150257067Y-57969580D01*
X151271527Y-58984040D01*
X151285064Y-58991432D01*
X151294765Y-58984644D01*
X151335790Y-58936610D01*
X151341590Y-58928628D01*
X151472121Y-58715621D01*
X151476602Y-58706827D01*
X151572202Y-58476028D01*
X151575251Y-58466643D01*
X151633570Y-58223728D01*
X151635113Y-58213981D01*
X151654714Y-57964930D01*
X151654714Y-57955070D01*
X151635113Y-57706019D01*
X151633570Y-57696272D01*
X151575251Y-57453357D01*
X151572202Y-57443972D01*
X151476602Y-57213173D01*
X151472121Y-57204379D01*
X151341590Y-56991372D01*
X151335790Y-56983390D01*
X151296105Y-56936924D01*
X151283192Y-56928494D01*
X151272985Y-56934502D01*
X150260299Y-57947188D01*
X150252685Y-57961132D01*
X149746079Y-57961132D01*
X149747315Y-57958868D01*
X149747184Y-57957035D01*
X149742933Y-57950420D01*
X148728473Y-56935960D01*
X148714936Y-56928568D01*
X148705235Y-56935356D01*
X148664210Y-56983390D01*
X148658410Y-56991372D01*
X148527879Y-57204379D01*
X148523398Y-57213173D01*
X148427798Y-57443972D01*
X148424749Y-57453357D01*
X148366430Y-57696272D01*
X148364887Y-57706019D01*
X148345286Y-57955070D01*
X148345286Y-57964930D01*
X135399999Y-57964930D01*
X135399999Y-57921432D01*
X135399328Y-57912266D01*
X135391300Y-57857722D01*
X135385557Y-57839241D01*
X135343111Y-57752787D01*
X135331151Y-57736082D01*
X135263428Y-57668477D01*
X135246700Y-57656545D01*
X135160162Y-57614245D01*
X135141694Y-57608537D01*
X135087703Y-57600660D01*
X135078604Y-57600000D01*
X134443115Y-57600000D01*
X134427876Y-57604475D01*
X134426671Y-57605865D01*
X134425000Y-57613548D01*
X134425000Y-58556885D01*
X134075000Y-58556885D01*
X134075000Y-57618116D01*
X134070525Y-57602877D01*
X134069135Y-57601672D01*
X134061452Y-57600001D01*
X133421432Y-57600001D01*
X133412266Y-57600672D01*
X133357722Y-57608700D01*
X133339241Y-57614443D01*
X133252787Y-57656889D01*
X133236082Y-57668849D01*
X133168477Y-57736572D01*
X133156545Y-57753300D01*
X133114245Y-57839838D01*
X133108537Y-57858306D01*
X133100660Y-57912297D01*
X133100000Y-57921396D01*
X133100000Y-58556885D01*
X132500000Y-58556885D01*
X132500000Y-57750000D01*
X131426808Y-56676808D01*
X148968494Y-56676808D01*
X148974502Y-56687015D01*
X149987188Y-57699701D01*
X150001132Y-57707315D01*
X150002965Y-57707184D01*
X150009580Y-57702933D01*
X151024040Y-56688473D01*
X151031432Y-56674936D01*
X151024644Y-56665235D01*
X150976610Y-56624210D01*
X150968628Y-56618410D01*
X150755621Y-56487879D01*
X150746827Y-56483398D01*
X150516028Y-56387798D01*
X150506643Y-56384749D01*
X150263728Y-56326430D01*
X150253981Y-56324887D01*
X150004930Y-56305286D01*
X149995070Y-56305286D01*
X149746019Y-56324887D01*
X149736272Y-56326430D01*
X149493357Y-56384749D01*
X149483972Y-56387798D01*
X149253173Y-56483398D01*
X149244379Y-56487879D01*
X149031372Y-56618410D01*
X149023390Y-56624210D01*
X148976924Y-56663895D01*
X148968494Y-56676808D01*
X131426808Y-56676808D01*
X125536905Y-50786905D01*
X125502879Y-50724593D01*
X125500000Y-50697810D01*
X125500000Y-48578568D01*
X135850001Y-48578568D01*
X135850672Y-48587734D01*
X135858700Y-48642278D01*
X135864443Y-48660759D01*
X135906889Y-48747213D01*
X135918849Y-48763918D01*
X135986572Y-48831523D01*
X136003300Y-48843455D01*
X136089838Y-48885755D01*
X136108306Y-48891463D01*
X136162297Y-48899340D01*
X136171396Y-48900000D01*
X136806885Y-48900000D01*
X136822124Y-48895525D01*
X136823329Y-48894135D01*
X136825000Y-48886452D01*
X136825000Y-48881884D01*
X137175000Y-48881884D01*
X137179475Y-48897123D01*
X137180865Y-48898328D01*
X137188548Y-48899999D01*
X137828568Y-48899999D01*
X137837734Y-48899328D01*
X137892278Y-48891300D01*
X137910759Y-48885557D01*
X137997213Y-48843111D01*
X138013918Y-48831151D01*
X138081523Y-48763428D01*
X138093455Y-48746700D01*
X138135755Y-48660162D01*
X138141463Y-48641694D01*
X138149340Y-48587703D01*
X138150000Y-48578604D01*
X138150000Y-47943115D01*
X138145525Y-47927876D01*
X138144135Y-47926671D01*
X138136452Y-47925000D01*
X137193115Y-47925000D01*
X137177876Y-47929475D01*
X137176671Y-47930865D01*
X137175000Y-47938548D01*
X137175000Y-48881884D01*
X136825000Y-48881884D01*
X136825000Y-47943115D01*
X136820525Y-47927876D01*
X136819135Y-47926671D01*
X136811452Y-47925000D01*
X135868116Y-47925000D01*
X135852877Y-47929475D01*
X135851672Y-47930865D01*
X135850001Y-47938548D01*
X135850001Y-48578568D01*
X125500000Y-48578568D01*
X125500000Y-47556885D01*
X135850000Y-47556885D01*
X135854475Y-47572124D01*
X135855865Y-47573329D01*
X135863548Y-47575000D01*
X136806885Y-47575000D01*
X136822124Y-47570525D01*
X136823329Y-47569135D01*
X136825000Y-47561452D01*
X136825000Y-47556885D01*
X137175000Y-47556885D01*
X137179475Y-47572124D01*
X137180865Y-47573329D01*
X137188548Y-47575000D01*
X138131884Y-47575000D01*
X138147123Y-47570525D01*
X138148328Y-47569135D01*
X138149999Y-47561452D01*
X138149999Y-46921432D01*
X138149328Y-46912266D01*
X138141300Y-46857722D01*
X138135557Y-46839241D01*
X138093111Y-46752787D01*
X138081151Y-46736082D01*
X138013428Y-46668477D01*
X137996700Y-46656545D01*
X137910162Y-46614245D01*
X137891694Y-46608537D01*
X137837703Y-46600660D01*
X137828604Y-46600000D01*
X137193115Y-46600000D01*
X137177876Y-46604475D01*
X137176671Y-46605865D01*
X137175000Y-46613548D01*
X137175000Y-47556885D01*
X136825000Y-47556885D01*
X136825000Y-46618116D01*
X136820525Y-46602877D01*
X136819135Y-46601672D01*
X136811452Y-46600001D01*
X136171432Y-46600001D01*
X136162266Y-46600672D01*
X136107722Y-46608700D01*
X136089241Y-46614443D01*
X136002787Y-46656889D01*
X135986082Y-46668849D01*
X135918477Y-46736572D01*
X135906545Y-46753300D01*
X135864245Y-46839838D01*
X135858537Y-46858306D01*
X135850660Y-46912297D01*
X135850000Y-46921396D01*
X135850000Y-47556885D01*
X125500000Y-47556885D01*
X125500000Y-45126000D01*
X125520002Y-45057879D01*
X125573658Y-45011386D01*
X125626000Y-45000000D01*
X138624000Y-45000000D01*
X138692121Y-45020002D01*
G37*
%TD.AperFunction*%
%TD*%
M02*
