M48
; DRILL file {KiCad 6.0.8-f2edbf62ab~116~ubuntu20.04.1} date Tue 11 Oct 2022 12:42:59 AM EDT
; FORMAT={-:-/ absolute / metric / decimal}
; #@! TF.CreationDate,2022-10-11T00:42:59-04:00
; #@! TF.GenerationSoftware,Kicad,Pcbnew,6.0.8-f2edbf62ab~116~ubuntu20.04.1
; #@! TF.FileFunction,Plated,1,4,PTH
FMAT,2
METRIC
; #@! TA.AperFunction,Plated,PTH,ViaDrill
T1C0.400
; #@! TA.AperFunction,Plated,PTH,ComponentDrill
T2C0.800
; #@! TA.AperFunction,Plated,PTH,ComponentDrill
T3C1.000
; #@! TA.AperFunction,Plated,PTH,ComponentDrill
T4C1.400
; #@! TA.AperFunction,Plated,PTH,ComponentDrill
T5C1.600
%
G90
G05
T1
X63.45Y-55.7
X64.2Y-57.25
X64.25Y-54.15
X65.7Y-59.1
X65.7Y-60.05
X80.45Y-90.65
X82.4Y-87.8
X83.462Y-81.6
X83.462Y-84.45
X84.35Y-81.75
X84.35Y-82.6
X84.35Y-83.45
X84.35Y-84.3
X84.35Y-90.65
X85.8Y-65.0
X85.8Y-67.0
X85.8Y-69.0
X85.8Y-71.0
X85.8Y-73.0
X85.8Y-75.0
X85.8Y-77.0
X87.25Y-63.4
X89.42Y-68.0
X89.45Y-70.0
X89.45Y-76.0
X89.5Y-72.0
X89.5Y-74.0
X89.65Y-87.7
X89.7Y-85.6
X90.7Y-92.35
X90.7Y-96.45
X91.003Y-68.0
X91.033Y-76.0
X91.083Y-72.0
X92.587Y-68.0
X92.617Y-76.0
X92.667Y-72.0
X93.45Y-91.75
X94.17Y-68.0
X94.2Y-70.0
X94.2Y-76.0
X94.25Y-72.0
X94.25Y-74.0
X94.3Y-47.0
X94.3Y-48.917
X94.3Y-50.833
X94.3Y-52.75
X94.3Y-54.667
X94.3Y-56.583
X94.3Y-58.5
X94.45Y-84.65
X95.75Y-72.0
X95.8Y-68.0
X95.83Y-76.0
X96.05Y-95.25
X96.75Y-83.95
X97.333Y-72.0
X97.383Y-68.0
X97.413Y-76.0
X97.8Y-79.75
X97.8Y-80.7
X97.8Y-81.7
X97.8Y-82.7
X97.8Y-83.7
X97.95Y-86.5
X98.25Y-95.95
X98.917Y-70.0
X98.917Y-72.0
X98.967Y-68.0
X98.967Y-74.0
X98.997Y-76.0
X99.1Y-89.85
X99.6Y-93.05
X100.6Y-91.75
X100.95Y-84.85
X100.95Y-87.15
X101.1Y-63.4
X102.5Y-65.0
X102.5Y-67.0
X102.5Y-69.0
X102.5Y-71.0
X102.5Y-73.0
X102.5Y-75.0
X102.5Y-77.0
X102.9Y-97.3
X102.9Y-99.5
X103.2Y-83.7
X103.35Y-98.4
X103.8Y-97.3
X103.8Y-99.5
X104.85Y-94.8
X105.8Y-95.55
X106.0Y-84.7
X107.05Y-45.7
X107.05Y-46.75
X107.05Y-47.8
X107.05Y-48.85
X107.05Y-49.9
X107.05Y-50.95
X107.05Y-85.6
X107.188Y-87.138
X108.1Y-94.475
X108.1Y-99.5
X112.25Y-71.75
X113.1Y-86.45
X114.167Y-71.75
X116.083Y-71.75
X116.6Y-89.362
X117.75Y-91.112
X118.0Y-71.75
X118.0Y-83.9
X119.04Y-94.81
X119.917Y-71.75
X120.45Y-82.6
X121.15Y-86.15
X121.833Y-71.75
X121.9Y-80.15
X122.2Y-74.4
X122.55Y-89.25
X123.75Y-71.75
X123.85Y-78.65
X124.6Y-94.0
X124.75Y-75.85
X125.05Y-83.9
X125.65Y-78.65
X126.55Y-75.85
X126.95Y-82.0
X126.95Y-83.9
X126.95Y-85.8
X127.0Y-45.85
X127.0Y-48.65
X128.7Y-78.5
X128.75Y-46.3
X128.75Y-47.25
X128.75Y-48.2
X128.85Y-83.9
X130.1Y-75.0
X131.65Y-79.5
X132.6Y-77.763
X133.9Y-84.562
X133.95Y-86.112
X138.0Y-91.85
X138.15Y-76.4
X140.95Y-68.0
X141.0Y-72.95
X142.2Y-72.95
X142.3Y-68.0
X144.3Y-68.0
X144.4Y-72.95
X145.65Y-72.95
X145.75Y-68.0
X146.35Y-51.2
X147.0Y-51.85
X147.65Y-52.5
T2
X130.75Y-58.75
X130.75Y-67.75
X134.25Y-58.75
X134.25Y-67.75
X137.0Y-47.75
X140.5Y-47.75
X144.445Y-89.3
X146.985Y-86.76
X146.985Y-91.84
T3
X116.5Y-100.5
X119.04Y-100.5
X121.58Y-100.5
X124.12Y-100.5
X130.175Y-100.5
X132.715Y-100.5
X135.255Y-100.5
X137.795Y-100.5
X140.335Y-100.5
T4
X65.0Y-65.96
X65.0Y-71.04
X65.0Y-82.96
X65.0Y-88.04
X150.0Y-57.96
X150.0Y-63.04
X150.0Y-74.96
X150.0Y-80.04
T5
X75.35Y-69.35
X75.35Y-74.43
X75.35Y-79.51
X75.35Y-84.59
T0
M30
